<?xml version="1.0" encoding="UTF-8"?>
<svg id="Layer_2" data-name="Layer 2" xmlns="http://www.w3.org/2000/svg" viewBox="0 0 150.76 151.85">
  <defs>
    <style>
      .cls-1 {
        fill: #ed1d24;
      }
    </style>
  </defs>
  <g id="Layer_1-2" data-name="Layer 1">
    <path class="cls-1" d="M83.5.13c-.5.11-1.01.17-1.52.18-4,.51-7.92,1.5-11.69,2.94l-1.46.6c-2.1.85-4.15,1.84-6.13,2.96-.34.22-.71.39-1.09.5-.31.07-.55.22-.55.31s-.17.21-.36.29c-.35.14-.69.32-1.01.54-.35.23-.72.44-1.1.63-.42.19-.81.44-1.17.72-.24.21-.52.39-.81.53-3.18,1.96-6.21,4.16-9.06,6.57-1.59,1.43-3.06,2.99-4.39,4.67-.11.23-.26.44-.44.63-1.14,1.51-2.17,3.11-3.07,4.78-.22.52-.69,1.43-.98,2.06-1.03,2.18-1.49,4.59-1.32,6.99-.06,2.18.84,4.28,2.45,5.74,1.83,1.85,4.34,2.87,6.94,2.83,1.97.13,3.95-.1,5.84-.66.67-.2,1.59-.42,2.04-.55.39-.08.78-.22,1.14-.39.48-.25,3.16-1.46,3.29-1.46,3.06-1.6,6.01-3.4,8.83-5.38,2.67-1.79,5.03-3.35,5.24-3.46s1.46-.87,2.81-1.68,3.02-1.75,3.68-2.1l2.18-1.15c.53-.25,1.5-.7,2.18-.96s1.55-.63,1.88-.77.86-.37,1.14-.49c1.44-.45,2.93-.72,4.44-.8,3.53-.47,6.88,1.65,7.97,5.04.4,1.31.53,2.69.39,4.06.14,2.26-.21,4.51-1.03,6.62l-.53,1.23c-1.51,3.31-3.41,6.44-5.64,9.32-3.19,4.01-6.75,7.71-10.64,11.04l-2.81,2.33c-.88.72-1.9,1.45-3.02,2.21-.47.28-1.23.78-1.67,1.12-2.14,1.33-4.36,2.51-6.66,3.54l-1.7.75c-.34.18-.71.3-1.09.36-.36.04-.71.11-1.05.23-1.02.41-2.17-.09-2.58-1.11-.09-.23-.14-.47-.14-.72,0-1.7.81-2.8,5.92-7.87,5.53-5.48,6.13-6.3,6.13-8.38s-1.02-3.61-3.31-4.77c-.96-.51-2.05-.71-3.13-.58-1.66-.09-3.3.34-4.7,1.23-.33.21-.86.48-1.14.63-.22.1-.43.23-.63.38,0,0-.48.37-.94.72-1.52,1.26-2.91,2.69-4.13,4.24-.98,1.36-1.83,2.8-2.56,4.3-1.22,2.51-1.94,5.23-2.11,8.01,0,4.48,2.33,8.06,5.94,9.07,2.33.3,4.69.3,7.01,0,1.92-.43,3.81-1,5.65-1.72.14-.11.32-.18.5-.18,3.06-1.27,6.02-2.78,8.84-4.51.48-.32,1.02-.67,1.23-.8s1.23-.7,2.18-1.32,1.88-1.23,1.94-1.23c.5-.41,1.02-.79,1.56-1.14l2.08-1.43c.36-.26,1.32-1.01,2.18-1.69,4.77-3.69,9.12-7.89,12.99-12.52.45-.55.87-1.08.93-1.14.92-1.18,1.77-2.41,2.56-3.68.53-.82,1.03-1.67,1.47-2.54.39-.75.94-1.77,1.23-2.29s.85-1.86,1.3-3.02.88-2.27.96-2.45c.86-2.61,1.49-5.29,1.88-8.01.41-3.66.16-7.36-.75-10.93-.32-1.04-.73-2.05-1.23-3.02-1.64-3.57-4.17-6.65-7.36-8.95-.43-.27-.84-.58-1.23-.91-2.11-1.3-4.37-2.33-6.74-3.04-1.29-.37-2.6-.67-3.92-.88-1.34-.21-3.75-.34-5.65-.34h-.97c-.57-.02-1.14.02-1.7.12ZM44.7,113.73c-.69.17-1.38.3-2.08.39-.78.1-2.24.31-3.23.45-.66.07-1.3.19-1.94.38-.18.16-.21,35.56,0,35.82,1.45.19,2.91.26,4.37.2,4.24,0,4.27,0,4.38-.48,0-.26.07-8.66,0-18.66,0-18.04,0-18.21-.48-18.25-.35,0-.71.04-1.04.15h.02ZM39.6,98.71c-1.12.44-2.08,1.21-2.75,2.22-.66,1.02-.69,1.1-.69,3.23v2.21l.8,1.08c.67,1.07,1.72,1.86,2.93,2.21,1.79.62,3.77.33,5.31-.78,2.22-1.42,2.99-5.04,1.64-7.7-.46-.93-1.22-1.69-2.15-2.16-1.6-.76-3.43-.87-5.1-.29ZM115.75,119.97c.87.22,2.7,1.7,2.7,2.16.06.29.17.56.32.81.48.94.85,4.02.52,4.41s-1.02.31-5.22.31h-4.92l-.12-.52c-.12-1.76.31-3.51,1.23-5.02.68-1.06,1.72-1.85,2.93-2.21.47-.16.96-.25,1.46-.27.12,0,.63.2,1.1.32h.01ZM111.28,113.35c-.5.05-.98.19-1.43.39-.14.12-.32.19-.5.2-.57.15-1.13.37-1.64.66-2.03,1.18-3.78,2.8-5.1,4.75-.89,1.41-1.6,2.93-2.13,4.51-.08.35-.19.7-.32,1.03-.07.23-.33,1.13-.54,1.99-.55,3.83-.55,7.71,0,11.54.4,1.71,1.02,3.35,1.84,4.91.11.01.2.12.18.23,0,0,0,0,0,0,0,.78,2.45,3.92,4.22,5.35,1.16.81,2.43,1.47,3.76,1.94,1.9.56,3.87.9,5.85,1.01,2.96,0,8.28-1.23,10.04-2.45.39-.25.8-.45,1.23-.61.8-.3,1.53-.75,2.16-1.34-.55-1.79-1.37-3.48-2.45-5.02-.3.07-.58.22-.81.42-.23.2-.51.35-.81.42-.25.04-.49.14-.69.29-.8.37-1.62.69-2.45.96-1.56.6-3.24.84-4.91.7-2.58,0-3.02,0-3.85-.43-2.91-1.4-4.57-4.91-4.57-9.65-.04-.63-.04-1.27,0-1.9,0,0,4.64-.1,10.24-.16l10.19-.11v-2.08c-.12-4.07-1.23-9.57-2.15-10.82-.09-.12-.37-.64-.64-1.23-1.38-2.43-3.64-4.24-6.3-5.08-2.8-.75-5.72-.91-8.58-.48l.17.07ZM66.02,113.35c-4.05.92-7.77,2.92-10.78,5.78l-.87.8v30.73c0,.33.31.36,4.54.31h4.51l.06-14.5v-14.48l.8-.63c.76-.65,1.64-1.12,2.6-1.4,1.77-.56,3.62-.76,5.47-.61.58.09,1.16.11,1.74.06.38-.47.67-1.01.86-1.58.31-.83.81-1.91,1.05-2.45.69-1.31.63-1.64-.29-1.85l-1.79-.42c-2.61-.34-5.25-.29-7.84.17l-.06.07ZM20.25,132.88c.2,1.87.27,3.75.21,5.63,0,5.91.09,5.54-1.46,6.35-1.03.38-2.14.51-3.24.39h-2.53l-1.03-.71c-.56-.37-1.05-.82-1.46-1.35-1.55-2.57-1.48-5.8.18-8.29.75-.79,1.65-1.42,2.65-1.86.2,0,.4-.07.55-.2.29-.31,1.23-.39,3.68-.36,1.74,0,2.28.09,2.45.34v.05ZM14.11,112.83c-2.2.3-4.36.82-6.45,1.55-.23.1-.65.25-.94.33-1.4.49-2.72,1.15-3.95,1.97.1.37.23.73.39,1.08.55,1.42,1.22,2.79,2,4.1.17-.04.33-.1.48-.18,1.09-.54,2.21-1,3.37-1.37.63-.18,1.37-.43,1.67-.54,1.86-.46,3.79-.6,5.7-.39,2.82.45,3.86,1.77,4.03,5.11.09,1.85.09,1.9-.39,2.02-1.41.13-2.84.18-4.26.15-4.91,0-6.46.28-9.66,1.85-2.84,1.44-4.93,4.02-5.76,7.09-.5,2.2-.45,4.49.12,6.67,1.86,5.67,6.33,8.96,12.52,9.3,5.43.38,10.82-1.17,15.22-4.39l1.35-1.1.06-11.04c.06-12.75,0-13.2-1.5-16.31-1.07-1.8-2.6-3.28-4.43-4.29-.66-.31-1.4-.63-1.63-.72-2.57-.8-5.27-1.09-7.95-.87ZM86.21,103.43c-4.62.69-6.13.98-6.35,1.23s-.15,6.78-.15,19.47c.1,17.73.13,19.33.48,20.19.43,1.43,1.21,2.74,2.27,3.79,2.18,2.18,4.91,3.08,9.54,3.08,2.54,0,2.89,0,3.07-.38.25-1.62.29-3.27.15-4.91-.13-.53-.21-.54-1.78-.67-1.61.07-3.11-.76-3.91-2.16l-.52-.93-.07-10.78c0-8.03,0-10.87.2-11.04s.9-.28,3.11-.28c3.43,0,3.14.33,3.07-3.68v-2.71l-2.92-.1c-1.06-.01-2.12-.1-3.16-.27-.21-.12-.27-1.4-.27-5.16v-5h-.45c-.27,0-1.23.15-2.24.29l-.05.02ZM143.85,103.01s-1.02.23-2.16.42-3.02.48-4.16.69l-2.08.36v19.14c0,20.85,0,19.9,1.23,22.5.45.94,1.1,1.77,1.89,2.45,2.21,2.02,4.27,2.65,8.66,2.66,3.74,0,3.59.15,3.52-3.3v-2.45l-1.61-.15c-2.85-.25-4.22-1.4-4.54-3.76-.09-.71-.15-9.61-.12-19.77,0-17.57,0-19.27-.53-18.76l-.1-.02Z"/>
  </g>
</svg>