<?xml version="1.0" encoding="UTF-8"?>
<svg id="Layer_2" data-name="Layer 2" xmlns="http://www.w3.org/2000/svg" viewBox="0 0 155.43 153.91">
  <defs>
    <style>
      .cls-1 {
        fill: #050505;
      }
    </style>
  </defs>
  <g id="Layer_1-2" data-name="Layer 1">
    <path class="cls-1" d="M34.04,119.84l39.09-83.11,21.2,45.64-60.29,37.47h0ZM155.43,150.76l-27.68-57.86,26.87-16.27-13.84-22.82-24.44,14.65-26.87-57.05c-1.62-3.24-4.05-6.55-7.36-8.17-3.24-1.62-6.55-3.24-10.6-3.24-3.24,0-7.36,1.62-9.79,3.24-3.24,2.43-4.86,4.86-6.55,8.17L1.43,124.63h0c-3.24,8.98-.81,18.77,5.67,24.44,6.55,5.67,16.27,6.55,23.63,1.62l74.13-45.64,21.2,44.83,29.37.88h0Z"/>
  </g>
</svg>