<?xml version="1.0" encoding="UTF-8"?>
<svg id="Layer_2" data-name="Layer 2" xmlns="http://www.w3.org/2000/svg" viewBox="0 0 205.43 114.07">
  <defs>
    <style>
      .cls-1 {
        fill: #f79c34;
      }

      .cls-2 {
        fill: #333e47;
      }
    </style>
  </defs>
  <g id="Layer_1-2" data-name="Layer 1">
    <g>
      <path class="cls-2" d="M55.55.03c-5.49,0-11.25,2.55-15.72,6.52l-.5-3.41c-.13-.86-.81-1.58-1.82-1.58h-4.78c-.87,0-1.59.71-1.59,1.58v65.04c0,.87.71,1.58,1.59,1.58h6.24c.87,0,1.58-.71,1.58-1.58v-22.46c3.96,3.53,9.11,5.56,14.62,5.56,13.08,0,20.81-11.32,20.81-25.42C75.98,12.7,70.92.03,55.55.03ZM61.79,40.35c-2.43,2.4-5.15,3.05-9.24,3.05-3.64,0-8.43-1.9-12.01-4.54V12.24c3.73-2.86,8.48-4.41,12.44-4.41,10.34,0,13.16,8.13,13.16,17.44.06,6.28-1.1,11.87-4.35,15.08Z"/>
      <path class="cls-2" d="M121.7,48.51c0,.87-.71,1.58-1.59,1.58h-4.66c-1.01,0-1.69-.73-1.82-1.58l-.47-3.17c-2.14,1.81-4.77,3.41-7.62,4.51-5.48,2.13-11.8,2.48-17.16-.81-3.87-2.38-5.93-7.02-5.93-11.82,0-3.71,1.14-7.39,3.68-10.05,3.38-3.65,8.28-5.44,14.2-5.44,3.57,0,8.69.42,12.41,1.64v-6.38c0-6.49-2.73-9.3-9.94-9.3-5.51,0-9.72.83-15.58,2.65-.94.03-1.49-.68-1.49-1.55v-3.64c0-.87.75-1.72,1.55-1.97,4.19-1.83,10.12-2.96,16.42-3.17,8.22,0,17.99,1.85,17.99,14.5v34.02h0ZM112.74,39.19v-9.63c-3.13-.86-8.3-1.21-10.31-1.21-3.16,0-6.63.75-8.44,2.7-1.35,1.43-1.96,3.48-1.96,5.46,0,2.56.89,5.13,2.96,6.4,2.41,1.63,6.14,1.44,9.64.44,3.37-.95,6.53-2.65,8.11-4.16Z"/>
      <path class="cls-2" d="M130.52,68.1v-3.43c0-.97.48-1.65,1.5-1.59,1.9.27,4.58.54,6.49.15,2.49-.52,4.28-2.28,5.33-4.7,1.49-3.41,2.47-6.15,3.1-7.95L128.03,3.74c-.32-.79-.41-2.27,1.17-2.27h6.61c1.26,0,1.77.8,2.06,1.58l13.71,38.04,13.08-38.04c.27-.78.8-1.58,2.05-1.58h6.23c1.58,0,1.49,1.47,1.17,2.27l-18.75,48.29c-2.43,6.43-5.66,16.67-12.94,18.45-3.65.95-8.26.61-10.96-.52-.68-.34-.94-1.26-.94-1.86Z"/>
      <path class="cls-1" d="M192.02,66.15c-6.39.09-13.94,1.52-19.66,5.54-1.77,1.23-1.46,2.93.51,2.7,6.44-.77,20.76-2.51,23.33.76,2.57,3.27-2.84,16.78-5.23,22.82-.74,1.8.82,2.55,2.47,1.18,10.71-8.97,13.49-27.78,11.3-30.48-1.1-1.35-6.33-2.6-12.72-2.52Z"/>
      <path class="cls-1" d="M1.48,72.99c-1.49.21-2.14,2.1-.58,3.6,26.82,25.16,62.27,37.48,101.62,37.48,28.07,0,60.66-9.16,83.15-26.42,3.72-2.87.55-7.17-3.26-5.47-25.22,11.13-52.62,16.49-77.55,16.49-36.95,0-72.72-7.72-101.66-25.24-.63-.38-1.23-.51-1.72-.44Z"/>
    </g>
  </g>
</svg>