<?xml version="1.0" encoding="UTF-8"?>
<svg id="Layer_2" data-name="Layer 2" xmlns="http://www.w3.org/2000/svg" viewBox="0 0 237.07 237.07">
  <defs>
    <style>
      .cls-1 {
        fill: #2a2b35;
      }

      .cls-2 {
        fill: #fff;
      }

      .cls-3 {
        fill: #ea7b0c;
      }
    </style>
  </defs>
  <g id="Layer_1-2" data-name="Layer 1">
    <g>
      <circle class="cls-2" cx="118.54" cy="118.54" r="118.54"/>
      <g>
        <g>
          <path class="cls-1" d="M166.65,135.95c-.1-.19-.47-.38-.58-.57-4.15-5.3-8.87-9.85-8.87-20.06v-34.06c0-14.37,1.69-27.62-8.9-37.45-8.69-7.93-21.77-10.97-32.36-10.97h-4.54c-19.28,1.12-39.69,9.45-44.25,33.29-.75,3.04,1.53,4.17,3.03,4.54l21.19,2.65c2.27-.38,3.41-2.75,3.78-4.63,1.89-8.33,8.49-13.74,16.26-13.74h1.52c4.54,0,9.02,2.37,11.66,6.16,3.02,4.54,2.21,11.07,2.21,16.38v3.02c-2.76.37-10.16.75-15.83,1.49-8.7,1.15-17.17,2.66-24.35,6.07-13.99,5.68-23.35,17.79-23.35,35.56,0,4.57.68,8.66,1.8,12.31,4.32,14.17,16.37,21.37,30.82,21.37,6.05,0,10.97-.77,15.5-1.88,7.2-2.28,13.25-6.44,20.43-14.02,4.16,5.68,5.31,8.34,12.49,14.39,1.9.75,3.79.75,5.29-.37,4.55-3.8,12.5-10.61,16.65-14.39,1.71-1.36,1.3-3.34.41-5.1ZM110.95,99.42c4.91-1.13,10.3-1.51,15.83-1.51v4.55c0,8.7.81,15.51-3.72,23.08-2.65,5.29-6.98,8.7-11.89,9.85-.75,0-1.78.38-2.92.38-8.31,0-13.39-6.43-13.39-15.89,0-12.12,7.02-17.78,16.09-20.45Z"/>
          <path class="cls-3" d="M185.83,165.58c1.54-.01,3.06.1,4.01.3.47.11.9.23,1.09.32.07.02.16.05.19.07.04.13.12.47.11.95.02,1.81-.74,5.18-1.8,8.47-1.03,3.28-2.28,6.58-3.1,8.77-.2.5-.33,1.06-.33,1.66-.02.88.35,2.27,1.11,2.97.75.7,1.71,1.31,2.52,1.31h.04c1.21,0,2.24-.82,3.13-1.51,8.36-7.53,11.28-19.7,11.4-26.47v-1.24s-.01-.01-.01-.01c0-1.78-.46-3.15-1.21-4.27l-.09-.12-.09-.11c-.75-.83-1.48-1.14-2.27-1.48-2.35-.91-6.05-1.39-10.17-1.4-1.66,0-2.76.11-5.53.31v11.48s.77-.01,1-.01Z"/>
          <g>
            <path class="cls-3" d="M179.48,169.94c-.86-.01-2.55.31-3.37.69-.92.36-1.79.89-2.68,1.26l-1.73,1.03-2.14.91s.51,0,0,0h14.81c-.79-1.3-2.65-3.89-4.89-3.89Z"/>
            <path class="cls-3" d="M184.37,173.82h-14.81c-17.93,8.29-36.68,11.94-54.06,12.31-17.24.01-34.49-4.02-49.08-12.31-7.09-2.76-14.28-5.65-19.81-9.47-2.76-1.13-4.66-2.27-6.7-3.4-.81-.43-1.92-.65-2.73-.65-1.04,0-2.24.4-3.02,1.12-.78.74-1.31,1.79-1.3,2.88-.01,1.4.71,2.69,1.77,3.52,21.71,18.87,45.5,36.39,77.52,36.41.62,0,1.25-.02,1.88-.03,20.37-.45,43.39-7.34,61.27-18.57l.11-.06c2.34-1.4,4.68-3,6.88-4.76,1.37-1.02,2.32-3.28,2.32-4.94-.01-.48-.11.73-.24-2.03Z"/>
            <path class="cls-3" d="M180.89,154.8c-5.2,1.14-8.81,3.63-10.65,4.97-1.15.86-2.25,2-2.3,3.74-.03.95.38,2.04,1.17,2.68.8.64,1.69.87,2.5.87.19,0,.36,0,.52-.04h.15s.12-.03.12-.03c1.61-.34,3.67-.57,6.42-.96,2.11-.23,3.26-.4,6.03-.44v-11.48c0,.16-2.53.38-3.96.69Z"/>
          </g>
        </g>
        <path class="cls-1" d="M166.65,135.95c-4.15-5.3-9.45-10.42-9.45-20.63v-30.71c-8.29,6.07-22.83,10.73-36.77,13.5,2.06-.12,6.36-.2,6.36-.2v4.55c0,8.7.81,15.51-3.72,23.08-2.65,5.29-6.98,8.7-11.89,9.85-.75,0-1.78.38-2.92.38-8.31,0-13.17-6.43-13.17-15.89,0-11.39,5.83-17.04,14.13-19.89-5.89.69-11.38,1.02-17.59,1.02-8.21,0-16.41,1.65-24.03,3.91-2.85,5.34-4.33,11.43-4.33,18.73,0,4.57.74,8.66,1.85,12.31,4.32,14.17,16.34,21.37,30.8,21.37,6.05,0,10.96-.77,15.49-1.88,7.2-2.28,13.24-6.44,20.43-14.02,4.16,5.68,5.31,8.34,12.49,14.39,1.9.75,3.79.75,5.29-.37,4.55-3.8,12.5-10.61,16.65-14.39,1.71-1.37,1.29-3.35.4-5.1-.1-.2.11.19,0,0Z"/>
      </g>
    </g>
  </g>
</svg>