<svg xmlns="http://www.w3.org/2000/svg" xmlns:xlink="http://www.w3.org/1999/xlink" width="500" zoomAndPan="magnify" viewBox="0 0 375 374.999991" height="500" preserveAspectRatio="xMidYMid meet" version="1.2"><defs><clipPath id="8e004a9627"><path d="M 187.5 0 C 83.945312 0 0 83.945312 0 187.5 C 0 291.054688 83.945312 375 187.5 375 C 291.054688 375 375 291.054688 375 187.5 C 375 83.945312 291.054688 0 187.5 0 Z M 187.5 0 "/></clipPath><clipPath id="d77fe5d7c0"><path d="M 187.5 0 C 83.945312 0 0 83.945312 0 187.5 C 0 291.054688 83.945312 375 187.5 375 C 291.054688 375 375 291.054688 375 187.5 C 375 83.945312 291.054688 0 187.5 0 Z M 187.5 0 "/></clipPath><clipPath id="e190d7d5cd"><rect x="0" width="375" y="0" height="375"/></clipPath></defs><g id="361006fe7b"><g clip-rule="nonzero" clip-path="url(#8e004a9627)"><g transform="matrix(1,0,0,1,0,0)"><g clip-path="url(#e190d7d5cd)"><g clip-rule="nonzero" clip-path="url(#d77fe5d7c0)"><rect x="0" width="375" height="375" y="0" style="fill:#ffffff;fill-opacity:1;stroke:none;"/></g></g></g></g><path style=" stroke:none;fill-rule:nonzero;fill:#ffbc42;fill-opacity:1;" d="M 56.757812 95.996094 L 56.757812 218.027344 C 56.757812 225.195312 62.648438 231.128906 69.820312 231.128906 L 235.488281 231.128906 C 242.65625 231.128906 248.558594 225.195312 248.558594 218.027344 L 248.558594 95.996094 Z M 56.757812 95.996094 "/><path style=" stroke:none;fill-rule:nonzero;fill:#ff6b6b;fill-opacity:1;" d="M 69.820312 56.734375 C 62.648438 56.734375 56.757812 62.667969 56.757812 69.839844 L 56.757812 100.335938 L 248.558594 100.335938 L 248.558594 69.839844 C 248.558594 62.667969 242.65625 56.734375 235.488281 56.734375 Z M 69.820312 56.734375 "/><path style=" stroke:none;fill-rule:nonzero;fill:#dbe9ee;fill-opacity:1;" d="M 174.019531 74.179688 C 173.734375 74.195312 173.453125 74.238281 173.175781 74.308594 C 172.902344 74.378906 172.632812 74.476562 172.375 74.597656 C 172.117188 74.722656 171.875 74.867188 171.644531 75.039062 C 171.414062 75.210938 171.203125 75.402344 171.011719 75.613281 C 170.820312 75.824219 170.652344 76.054688 170.503906 76.300781 C 170.359375 76.542969 170.234375 76.800781 170.140625 77.070312 C 170.042969 77.339844 169.972656 77.617188 169.933594 77.898438 C 169.890625 78.179688 169.875 78.464844 169.890625 78.75 C 169.902344 79.035156 169.945312 79.316406 170.015625 79.59375 C 170.082031 79.871094 170.179688 80.140625 170.300781 80.398438 C 170.421875 80.65625 170.566406 80.902344 170.738281 81.132812 C 170.90625 81.363281 171.097656 81.574219 171.308594 81.765625 C 171.519531 81.957031 171.746094 82.128906 171.992188 82.277344 C 172.234375 82.425781 172.492188 82.546875 172.761719 82.644531 C 173.03125 82.742188 173.304688 82.8125 173.585938 82.855469 C 173.871094 82.898438 174.15625 82.914062 174.441406 82.902344 L 226.765625 82.902344 C 227.050781 82.902344 227.335938 82.875 227.617188 82.816406 C 227.898438 82.761719 228.171875 82.679688 228.433594 82.570312 C 228.699219 82.460938 228.949219 82.328125 229.1875 82.167969 C 229.425781 82.007812 229.648438 81.828125 229.851562 81.625 C 230.050781 81.421875 230.234375 81.203125 230.390625 80.964844 C 230.550781 80.726562 230.683594 80.472656 230.792969 80.210938 C 230.90625 79.945312 230.988281 79.671875 231.042969 79.390625 C 231.097656 79.109375 231.125 78.828125 231.125 78.542969 C 231.125 78.253906 231.097656 77.972656 231.042969 77.691406 C 230.988281 77.410156 230.90625 77.136719 230.792969 76.871094 C 230.683594 76.609375 230.550781 76.355469 230.390625 76.121094 C 230.234375 75.882812 230.050781 75.660156 229.851562 75.457031 C 229.648438 75.257812 229.425781 75.074219 229.1875 74.917969 C 228.949219 74.757812 228.699219 74.621094 228.433594 74.511719 C 228.171875 74.402344 227.898438 74.320312 227.617188 74.265625 C 227.335938 74.210938 227.050781 74.179688 226.765625 74.179688 L 174.441406 74.179688 C 174.300781 74.175781 174.160156 74.175781 174.019531 74.179688 Z M 174.019531 74.179688 "/><path style=" stroke:none;fill-rule:nonzero;fill:#dbe9ee;fill-opacity:1;" d="M 126.519531 183.183594 L 126.519531 305.214844 C 126.519531 312.386719 132.410156 318.320312 139.578125 318.320312 L 305.246094 318.320312 C 312.417969 318.320312 318.316406 312.386719 318.316406 305.214844 L 318.316406 183.183594 Z M 126.519531 183.183594 "/><path style=" stroke:none;fill-rule:nonzero;fill:#dbe9ee;fill-opacity:1;" d="M 104.695312 117.765625 C 98.882812 117.765625 98.882812 126.484375 104.695312 126.484375 L 183.183594 126.484375 C 189 126.484375 189 117.765625 183.183594 117.765625 Z M 104.695312 117.765625 "/><path style=" stroke:none;fill-rule:nonzero;fill:#dbe9ee;fill-opacity:1;" d="M 87.253906 178.8125 L 113.417969 178.8125 C 119.230469 178.8125 119.230469 170.09375 113.417969 170.09375 L 87.042969 170.09375 C 81.019531 170.371094 81.4375 179.09375 87.253906 178.8125 Z M 87.253906 178.8125 "/><path style=" stroke:none;fill-rule:nonzero;fill:#dbe9ee;fill-opacity:1;" d="M 87.253906 204.976562 L 113.417969 204.976562 C 119.230469 204.976562 119.230469 196.253906 113.417969 196.253906 L 87.042969 196.253906 C 81.019531 196.535156 81.4375 205.253906 87.253906 204.976562 Z M 87.253906 204.976562 "/><path style=" stroke:none;fill-rule:nonzero;fill:#dbe9ee;fill-opacity:1;" d="M 87.253906 143.929688 C 81.4375 143.929688 81.4375 152.648438 87.253906 152.648438 L 113.414062 152.648438 C 119.230469 152.648438 119.230469 143.929688 113.414062 143.929688 Z M 87.253906 143.929688 "/><path style=" stroke:none;fill-rule:nonzero;fill:#dbe9ee;fill-opacity:1;" d="M 200.625 117.765625 C 194.8125 117.765625 194.8125 126.484375 200.625 126.484375 L 218.035156 126.484375 C 223.851562 126.484375 223.851562 117.765625 218.035156 117.765625 Z M 200.625 117.765625 "/><path style=" stroke:none;fill-rule:nonzero;fill:#33658a;fill-opacity:1;" d="M 283.363281 61.0625 C 282.1875 61.097656 281.191406 61.539062 280.371094 62.382812 L 267.273438 75.449219 C 267.070312 75.648438 266.886719 75.871094 266.730469 76.109375 C 266.570312 76.347656 266.433594 76.597656 266.324219 76.863281 C 266.214844 77.128906 266.128906 77.402344 266.074219 77.683594 C 266.019531 77.964844 265.992188 78.25 265.992188 78.535156 C 265.992188 78.824219 266.019531 79.109375 266.074219 79.390625 C 266.128906 79.671875 266.214844 79.945312 266.324219 80.210938 C 266.433594 80.472656 266.570312 80.726562 266.730469 80.964844 C 266.886719 81.203125 267.070312 81.421875 267.273438 81.625 L 280.371094 94.691406 C 280.566406 94.921875 280.78125 95.125 281.019531 95.308594 C 281.257812 95.492188 281.511719 95.652344 281.785156 95.78125 C 282.054688 95.914062 282.335938 96.015625 282.628906 96.089844 C 282.917969 96.164062 283.214844 96.203125 283.515625 96.214844 C 283.816406 96.226562 284.113281 96.207031 284.410156 96.160156 C 284.707031 96.109375 284.996094 96.027344 285.277344 95.917969 C 285.554688 95.808594 285.820312 95.671875 286.074219 95.507812 C 286.324219 95.34375 286.558594 95.15625 286.769531 94.941406 C 286.980469 94.730469 287.171875 94.496094 287.335938 94.246094 C 287.5 93.992188 287.636719 93.726562 287.746094 93.449219 C 287.855469 93.167969 287.9375 92.878906 287.984375 92.582031 C 288.035156 92.285156 288.054688 91.988281 288.042969 91.6875 C 288.03125 91.386719 287.988281 91.089844 287.914062 90.800781 C 287.84375 90.507812 287.742188 90.226562 287.609375 89.957031 C 287.476562 89.6875 287.320312 89.433594 287.136719 89.195312 C 286.953125 88.957031 286.746094 88.742188 286.519531 88.546875 L 276.542969 78.535156 L 286.519531 68.5625 C 286.835938 68.253906 287.101562 67.910156 287.3125 67.523438 C 287.523438 67.140625 287.675781 66.730469 287.765625 66.300781 C 287.851562 65.867188 287.875 65.433594 287.832031 64.996094 C 287.789062 64.558594 287.683594 64.136719 287.511719 63.730469 C 287.339844 63.324219 287.113281 62.953125 286.832031 62.617188 C 286.546875 62.277344 286.222656 61.992188 285.851562 61.753906 C 285.480469 61.515625 285.085938 61.335938 284.660156 61.21875 C 284.234375 61.101562 283.804688 61.050781 283.363281 61.0625 Z M 283.363281 61.0625 "/><path style=" stroke:none;fill-rule:nonzero;fill:#33658a;fill-opacity:1;" d="M 270.363281 82.914062 L 287.804688 82.914062 C 295.125 82.914062 300.871094 88.660156 300.871094 95.980469 L 300.871094 122.140625 C 300.871094 127.957031 309.589844 127.957031 309.589844 122.140625 L 309.589844 95.980469 C 309.589844 83.980469 299.804688 74.191406 287.804688 74.191406 L 270.363281 74.191406 Z M 270.363281 82.914062 "/><path style=" stroke:none;fill-rule:nonzero;fill:#33658a;fill-opacity:1;" d="M 78.46875 248.550781 C 77.296875 248.574219 76.300781 249.003906 75.472656 249.835938 L 62.375 262.902344 C 62.171875 263.105469 61.988281 263.324219 61.828125 263.5625 C 61.667969 263.800781 61.53125 264.054688 61.421875 264.320312 C 61.308594 264.585938 61.226562 264.859375 61.167969 265.140625 C 61.113281 265.421875 61.082031 265.707031 61.082031 265.996094 C 61.082031 266.28125 61.109375 266.566406 61.164062 266.851562 C 61.222656 267.132812 61.304688 267.40625 61.414062 267.671875 C 61.523438 267.9375 61.660156 268.191406 61.816406 268.429688 C 61.976562 268.667969 62.160156 268.890625 62.363281 269.09375 C 62.566406 269.296875 62.789062 269.480469 63.027344 269.636719 C 63.265625 269.796875 63.519531 269.933594 63.785156 270.042969 C 64.050781 270.152344 64.324219 270.234375 64.605469 270.292969 C 64.890625 270.347656 65.175781 270.375 65.460938 270.375 C 65.75 270.375 66.035156 270.34375 66.316406 270.289062 C 66.597656 270.230469 66.871094 270.148438 67.136719 270.035156 C 67.402344 269.925781 67.65625 269.789062 67.894531 269.628906 C 68.132812 269.46875 68.351562 269.285156 68.554688 269.078125 L 78.53125 259.070312 L 88.539062 269.078125 C 88.742188 269.285156 88.964844 269.46875 89.203125 269.628906 C 89.441406 269.789062 89.691406 269.925781 89.957031 270.035156 C 90.222656 270.148438 90.496094 270.230469 90.777344 270.289062 C 91.0625 270.34375 91.347656 270.375 91.632812 270.375 C 91.921875 270.375 92.207031 270.347656 92.488281 270.292969 C 92.769531 270.234375 93.042969 270.152344 93.3125 270.042969 C 93.578125 269.933594 93.828125 269.800781 94.070312 269.640625 C 94.308594 269.480469 94.53125 269.296875 94.734375 269.09375 C 94.9375 268.890625 95.117188 268.667969 95.277344 268.429688 C 95.4375 268.191406 95.570312 267.9375 95.683594 267.671875 C 95.792969 267.40625 95.875 267.132812 95.929688 266.851562 C 95.984375 266.566406 96.011719 266.285156 96.011719 265.996094 C 96.011719 265.707031 95.984375 265.421875 95.925781 265.140625 C 95.867188 264.859375 95.785156 264.585938 95.675781 264.320312 C 95.5625 264.054688 95.425781 263.800781 95.265625 263.5625 C 95.105469 263.324219 94.921875 263.105469 94.71875 262.902344 L 81.621094 249.835938 C 80.75 248.960938 79.699219 248.53125 78.46875 248.550781 Z M 78.46875 248.550781 "/><path style=" stroke:none;fill-rule:nonzero;fill:#33658a;fill-opacity:1;" d="M 74.1875 252.925781 L 74.1875 287.808594 C 74.1875 299.8125 83.972656 309.597656 95.972656 309.597656 L 104.695312 309.597656 C 110.507812 309.597656 110.507812 300.875 104.695312 300.875 L 95.972656 300.875 C 88.652344 300.875 82.910156 295.132812 82.910156 287.808594 L 82.910156 252.925781 Z M 74.1875 252.925781 "/><path style=" stroke:none;fill-rule:nonzero;fill:#33b9ef;fill-opacity:1;" d="M 246.453125 204.976562 C 241.421875 204.972656 236.382812 206.859375 232.582031 210.703125 L 226.660156 216.433594 C 226.445312 216.628906 226.253906 216.84375 226.082031 217.078125 C 225.910156 217.316406 225.761719 217.566406 225.640625 217.828125 C 225.519531 218.09375 225.425781 218.367188 225.359375 218.652344 C 225.292969 218.933594 225.253906 219.222656 225.246094 219.511719 C 225.234375 219.804688 225.253906 220.09375 225.304688 220.378906 C 225.351562 220.667969 225.429688 220.945312 225.535156 221.21875 C 225.640625 221.488281 225.769531 221.75 225.925781 221.992188 C 226.082031 222.238281 226.261719 222.46875 226.464844 222.675781 C 226.667969 222.886719 226.886719 223.074219 227.125 223.238281 C 227.367188 223.40625 227.621094 223.542969 227.886719 223.660156 C 228.15625 223.773438 228.429688 223.859375 228.714844 223.917969 C 229 223.980469 229.289062 224.007812 229.582031 224.011719 C 229.871094 224.011719 230.160156 223.984375 230.445312 223.929688 C 230.730469 223.871094 231.007812 223.789062 231.277344 223.675781 C 231.546875 223.5625 231.800781 223.425781 232.042969 223.261719 C 232.285156 223.101562 232.507812 222.914062 232.710938 222.707031 L 238.730469 216.914062 C 238.75 216.894531 238.773438 216.871094 238.792969 216.847656 C 243.0625 212.53125 249.832031 212.535156 254.144531 216.847656 C 258.457031 221.164062 258.457031 227.902344 254.144531 232.265625 L 232.230469 254.082031 C 228.308594 257.992188 222.367188 258.316406 218.101562 255.175781 C 217.871094 255.003906 217.625 254.859375 217.367188 254.734375 C 217.105469 254.613281 216.835938 254.515625 216.554688 254.449219 C 216.277344 254.378906 215.992188 254.335938 215.707031 254.324219 C 215.417969 254.3125 215.132812 254.328125 214.847656 254.371094 C 214.5625 254.414062 214.285156 254.484375 214.015625 254.582031 C 213.746094 254.679688 213.488281 254.804688 213.242188 254.953125 C 212.996094 255.101562 212.765625 255.273438 212.554688 255.46875 C 212.339844 255.664062 212.152344 255.875 211.980469 256.109375 C 211.8125 256.339844 211.664062 256.589844 211.542969 256.847656 C 211.421875 257.109375 211.328125 257.378906 211.261719 257.660156 C 211.195312 257.941406 211.15625 258.222656 211.144531 258.511719 C 211.132812 258.800781 211.148438 259.085938 211.195312 259.371094 C 211.238281 259.652344 211.3125 259.929688 211.414062 260.199219 C 211.511719 260.46875 211.636719 260.726562 211.789062 260.972656 C 211.941406 261.21875 212.113281 261.445312 212.308594 261.65625 C 212.503906 261.867188 212.71875 262.054688 212.953125 262.222656 C 220.625 267.871094 231.464844 267.152344 238.375 260.261719 L 260.324219 238.410156 C 260.324219 238.398438 260.324219 238.386719 260.324219 238.378906 C 267.882812 230.730469 267.945312 218.324219 260.324219 210.703125 C 256.511719 206.890625 251.484375 204.976562 246.453125 204.972656 Z M 246.453125 204.976562 "/><path style=" stroke:none;fill-rule:nonzero;fill:#33658a;fill-opacity:1;" d="M 218.875 231.105469 C 214.335938 231.4375 209.875 233.355469 206.417969 236.804688 L 184.503906 258.65625 C 184.492188 258.664062 184.480469 258.675781 184.472656 258.6875 C 176.914062 266.332031 176.878906 278.742188 184.503906 286.363281 C 192.125 293.984375 204.644531 294.019531 212.242188 286.332031 L 218.164062 280.601562 C 218.398438 280.410156 218.605469 280.195312 218.792969 279.960938 C 218.980469 279.726562 219.140625 279.472656 219.277344 279.207031 C 219.410156 278.9375 219.515625 278.65625 219.59375 278.367188 C 219.671875 278.078125 219.71875 277.78125 219.734375 277.480469 C 219.75 277.183594 219.738281 276.882812 219.691406 276.585938 C 219.644531 276.289062 219.570312 276 219.464844 275.71875 C 219.359375 275.4375 219.226562 275.171875 219.066406 274.917969 C 218.90625 274.664062 218.722656 274.429688 218.511719 274.210938 C 218.304688 273.996094 218.074219 273.804688 217.824219 273.636719 C 217.578125 273.46875 217.3125 273.328125 217.035156 273.210938 C 216.757812 273.097656 216.472656 273.015625 216.175781 272.960938 C 215.878906 272.90625 215.582031 272.882812 215.28125 272.886719 C 214.980469 272.894531 214.683594 272.929688 214.390625 273 C 214.101562 273.066406 213.816406 273.164062 213.546875 273.292969 C 213.273438 273.417969 213.015625 273.570312 212.773438 273.75 C 212.535156 273.929688 212.3125 274.132812 212.113281 274.359375 L 206.097656 280.152344 C 206.074219 280.171875 206.054688 280.195312 206.03125 280.21875 C 201.765625 284.535156 194.996094 284.5 190.679688 280.183594 C 186.367188 275.871094 186.371094 269.160156 190.679688 264.800781 L 212.597656 242.949219 C 216.515625 239.042969 222.425781 238.714844 226.691406 241.855469 C 226.921875 242.027344 227.167969 242.175781 227.425781 242.300781 C 227.6875 242.425781 227.953125 242.523438 228.234375 242.59375 C 228.511719 242.664062 228.796875 242.707031 229.082031 242.722656 C 229.371094 242.734375 229.65625 242.722656 229.941406 242.679688 C 230.222656 242.640625 230.5 242.570312 230.773438 242.472656 C 231.042969 242.375 231.300781 242.253906 231.546875 242.105469 C 231.796875 241.957031 232.023438 241.789062 232.238281 241.59375 C 232.449219 241.398438 232.640625 241.1875 232.8125 240.957031 C 232.984375 240.726562 233.128906 240.480469 233.253906 240.21875 C 233.375 239.957031 233.46875 239.6875 233.539062 239.410156 C 233.609375 239.128906 233.648438 238.847656 233.660156 238.5625 C 233.675781 238.273438 233.660156 237.988281 233.617188 237.703125 C 233.570312 237.417969 233.5 237.140625 233.402344 236.871094 C 233.304688 236.601562 233.179688 236.34375 233.03125 236.097656 C 232.878906 235.851562 232.707031 235.625 232.511719 235.414062 C 232.320312 235.199219 232.105469 235.011719 231.871094 234.839844 C 228.039062 232.019531 223.410156 230.777344 218.871094 231.109375 Z M 218.875 231.105469 "/><path style=" stroke:none;fill-rule:nonzero;fill:#33658a;fill-opacity:1;" d="M 139.578125 143.925781 C 132.410156 143.925781 126.519531 149.859375 126.519531 157.027344 L 126.519531 187.527344 L 318.316406 187.527344 L 318.316406 157.027344 C 318.316406 149.859375 312.417969 143.925781 305.246094 143.925781 Z M 139.578125 143.925781 "/><path style=" stroke:none;fill-rule:nonzero;fill:#dbe9ee;fill-opacity:1;" d="M 244.199219 170.089844 L 296.527344 170.089844 C 302.339844 170.089844 302.339844 161.371094 296.527344 161.371094 L 243.992188 161.371094 C 237.96875 161.648438 238.386719 170.371094 244.199219 170.089844 Z M 244.199219 170.089844 "/><path style=" stroke:none;fill-rule:nonzero;fill:#ffa0a0;fill-opacity:1;" d="M 78.542969 74.195312 C 78.257812 74.195312 77.972656 74.222656 77.695312 74.277344 C 77.414062 74.332031 77.144531 74.414062 76.878906 74.523438 C 76.613281 74.632812 76.363281 74.765625 76.125 74.925781 C 75.890625 75.082031 75.667969 75.261719 75.46875 75.464844 C 75.265625 75.667969 75.085938 75.886719 74.925781 76.121094 C 74.769531 76.359375 74.632812 76.609375 74.523438 76.875 C 74.414062 77.136719 74.332031 77.410156 74.277344 77.6875 C 74.21875 77.96875 74.191406 78.25 74.191406 78.535156 C 74.191406 78.824219 74.21875 79.105469 74.273438 79.386719 C 74.328125 79.664062 74.414062 79.9375 74.523438 80.203125 C 74.628906 80.464844 74.765625 80.71875 74.921875 80.957031 C 75.082031 81.191406 75.261719 81.414062 75.464844 81.613281 C 75.667969 81.816406 75.886719 81.996094 76.125 82.15625 C 76.363281 82.3125 76.613281 82.449219 76.875 82.558594 C 77.140625 82.667969 77.414062 82.75 77.695312 82.804688 C 77.972656 82.859375 78.257812 82.886719 78.542969 82.886719 C 78.828125 82.886719 79.109375 82.859375 79.390625 82.804688 C 79.671875 82.746094 79.941406 82.664062 80.207031 82.554688 C 80.46875 82.445312 80.71875 82.3125 80.957031 82.152344 C 81.195312 81.992188 81.414062 81.8125 81.613281 81.609375 C 81.816406 81.410156 81.996094 81.191406 82.15625 80.953125 C 82.3125 80.714844 82.445312 80.464844 82.554688 80.199219 C 82.664062 79.9375 82.746094 79.664062 82.800781 79.382812 C 82.859375 79.105469 82.886719 78.820312 82.886719 78.535156 C 82.882812 78.25 82.855469 77.96875 82.800781 77.6875 C 82.746094 77.410156 82.664062 77.140625 82.554688 76.875 C 82.445312 76.613281 82.308594 76.363281 82.152344 76.125 C 81.992188 75.886719 81.8125 75.667969 81.613281 75.46875 C 81.410156 75.265625 81.191406 75.085938 80.953125 74.925781 C 80.71875 74.769531 80.46875 74.636719 80.203125 74.527344 C 79.941406 74.417969 79.667969 74.332031 79.390625 74.277344 C 79.109375 74.222656 78.828125 74.195312 78.542969 74.195312 Z M 95.988281 74.195312 C 95.703125 74.195312 95.421875 74.222656 95.140625 74.277344 C 94.863281 74.332031 94.589844 74.417969 94.328125 74.527344 C 94.066406 74.636719 93.8125 74.769531 93.578125 74.925781 C 93.339844 75.085938 93.121094 75.265625 92.917969 75.46875 C 92.71875 75.667969 92.539062 75.886719 92.378906 76.125 C 92.222656 76.363281 92.085938 76.613281 91.976562 76.875 C 91.867188 77.136719 91.785156 77.410156 91.730469 77.691406 C 91.675781 77.96875 91.648438 78.25 91.644531 78.535156 C 91.644531 78.820312 91.671875 79.105469 91.730469 79.382812 C 91.785156 79.664062 91.867188 79.9375 91.976562 80.199219 C 92.085938 80.464844 92.21875 80.714844 92.375 80.953125 C 92.535156 81.191406 92.714844 81.410156 92.917969 81.609375 C 93.117188 81.8125 93.335938 81.992188 93.574219 82.152344 C 93.8125 82.3125 94.0625 82.445312 94.324219 82.554688 C 94.589844 82.664062 94.859375 82.746094 95.140625 82.800781 C 95.421875 82.859375 95.703125 82.886719 95.988281 82.886719 C 96.273438 82.886719 96.558594 82.859375 96.839844 82.804688 C 97.117188 82.75 97.390625 82.667969 97.65625 82.558594 C 97.917969 82.449219 98.167969 82.3125 98.40625 82.15625 C 98.644531 81.996094 98.863281 81.816406 99.066406 81.613281 C 99.269531 81.414062 99.449219 81.191406 99.609375 80.957031 C 99.765625 80.71875 99.902344 80.464844 100.011719 80.203125 C 100.117188 79.9375 100.203125 79.664062 100.257812 79.386719 C 100.3125 79.105469 100.339844 78.824219 100.339844 78.535156 C 100.339844 78.25 100.3125 77.96875 100.253906 77.6875 C 100.199219 77.410156 100.117188 77.136719 100.007812 76.871094 C 99.898438 76.609375 99.765625 76.359375 99.605469 76.121094 C 99.445312 75.886719 99.265625 75.664062 99.0625 75.464844 C 98.863281 75.261719 98.640625 75.082031 98.40625 74.925781 C 98.167969 74.765625 97.917969 74.632812 97.652344 74.523438 C 97.390625 74.414062 97.117188 74.332031 96.835938 74.277344 C 96.558594 74.222656 96.273438 74.195312 95.988281 74.195312 Z M 113.425781 74.195312 C 113.140625 74.195312 112.859375 74.222656 112.578125 74.277344 C 112.300781 74.332031 112.027344 74.417969 111.765625 74.527344 C 111.503906 74.636719 111.253906 74.769531 111.015625 74.925781 C 110.777344 75.085938 110.558594 75.265625 110.355469 75.46875 C 110.15625 75.667969 109.976562 75.886719 109.816406 76.125 C 109.660156 76.363281 109.523438 76.613281 109.414062 76.875 C 109.308594 77.136719 109.222656 77.410156 109.167969 77.691406 C 109.113281 77.96875 109.085938 78.25 109.085938 78.535156 C 109.082031 78.820312 109.113281 79.105469 109.167969 79.382812 C 109.222656 79.664062 109.304688 79.9375 109.414062 80.199219 C 109.523438 80.464844 109.65625 80.714844 109.8125 80.953125 C 109.972656 81.191406 110.152344 81.410156 110.355469 81.609375 C 110.554688 81.8125 110.773438 81.992188 111.011719 82.152344 C 111.25 82.3125 111.5 82.445312 111.761719 82.554688 C 112.027344 82.664062 112.300781 82.746094 112.578125 82.800781 C 112.859375 82.859375 113.140625 82.886719 113.425781 82.886719 C 113.710938 82.886719 113.996094 82.859375 114.277344 82.804688 C 114.554688 82.75 114.828125 82.667969 115.09375 82.558594 C 115.355469 82.449219 115.605469 82.3125 115.84375 82.15625 C 116.082031 81.996094 116.300781 81.816406 116.503906 81.613281 C 116.707031 81.410156 116.886719 81.191406 117.046875 80.953125 C 117.203125 80.714844 117.339844 80.464844 117.449219 80.203125 C 117.558594 79.9375 117.640625 79.664062 117.695312 79.386719 C 117.75 79.105469 117.777344 78.820312 117.777344 78.535156 C 117.777344 78.25 117.75 77.96875 117.691406 77.6875 C 117.636719 77.410156 117.554688 77.136719 117.445312 76.871094 C 117.335938 76.609375 117.203125 76.359375 117.042969 76.121094 C 116.882812 75.882812 116.703125 75.664062 116.5 75.464844 C 116.300781 75.261719 116.078125 75.082031 115.84375 74.921875 C 115.605469 74.765625 115.355469 74.632812 115.089844 74.523438 C 114.828125 74.414062 114.554688 74.332031 114.273438 74.277344 C 113.996094 74.21875 113.710938 74.195312 113.425781 74.195312 Z M 113.425781 74.195312 "/><path style=" stroke:none;fill-rule:nonzero;fill:#5b91b8;fill-opacity:1;" d="M 148.292969 161.382812 C 148.007812 161.382812 147.726562 161.410156 147.445312 161.464844 C 147.164062 161.519531 146.894531 161.601562 146.628906 161.710938 C 146.367188 161.820312 146.117188 161.953125 145.878906 162.113281 C 145.640625 162.273438 145.421875 162.453125 145.21875 162.652344 C 145.015625 162.855469 144.835938 163.074219 144.675781 163.3125 C 144.519531 163.546875 144.382812 163.800781 144.273438 164.0625 C 144.164062 164.328125 144.082031 164.597656 144.027344 164.878906 C 143.972656 165.15625 143.941406 165.441406 143.941406 165.726562 C 143.941406 166.011719 143.96875 166.296875 144.027344 166.574219 C 144.082031 166.855469 144.164062 167.128906 144.273438 167.390625 C 144.382812 167.65625 144.515625 167.90625 144.675781 168.144531 C 144.832031 168.382812 145.015625 168.601562 145.214844 168.804688 C 145.417969 169.003906 145.636719 169.1875 145.875 169.34375 C 146.113281 169.503906 146.363281 169.636719 146.628906 169.746094 C 146.890625 169.855469 147.164062 169.9375 147.445312 169.992188 C 147.726562 170.050781 148.007812 170.078125 148.292969 170.078125 C 148.578125 170.078125 148.863281 170.046875 149.140625 169.992188 C 149.421875 169.9375 149.691406 169.855469 149.957031 169.746094 C 150.21875 169.632812 150.472656 169.5 150.707031 169.34375 C 150.945312 169.183594 151.164062 169.003906 151.367188 168.800781 C 151.566406 168.597656 151.746094 168.378906 151.90625 168.140625 C 152.0625 167.902344 152.199219 167.652344 152.308594 167.390625 C 152.414062 167.125 152.5 166.855469 152.554688 166.574219 C 152.609375 166.292969 152.636719 166.011719 152.636719 165.726562 C 152.636719 165.441406 152.609375 165.160156 152.550781 164.878906 C 152.496094 164.597656 152.414062 164.328125 152.304688 164.066406 C 152.195312 163.800781 152.0625 163.550781 151.902344 163.3125 C 151.746094 163.078125 151.566406 162.859375 151.363281 162.65625 C 151.160156 162.457031 150.941406 162.273438 150.707031 162.117188 C 150.46875 161.957031 150.21875 161.824219 149.957031 161.714844 C 149.691406 161.605469 149.421875 161.523438 149.140625 161.46875 C 148.859375 161.410156 148.578125 161.382812 148.292969 161.382812 Z M 165.738281 161.382812 C 165.457031 161.382812 165.171875 161.410156 164.894531 161.46875 C 164.613281 161.523438 164.34375 161.605469 164.078125 161.714844 C 163.816406 161.824219 163.566406 161.957031 163.328125 162.117188 C 163.089844 162.277344 162.871094 162.457031 162.671875 162.65625 C 162.46875 162.859375 162.289062 163.078125 162.128906 163.3125 C 161.972656 163.550781 161.839844 163.800781 161.730469 164.066406 C 161.621094 164.328125 161.539062 164.597656 161.480469 164.878906 C 161.425781 165.160156 161.398438 165.441406 161.398438 165.726562 C 161.398438 166.011719 161.425781 166.292969 161.480469 166.574219 C 161.535156 166.855469 161.617188 167.125 161.726562 167.390625 C 161.835938 167.652344 161.96875 167.90625 162.128906 168.140625 C 162.285156 168.378906 162.464844 168.597656 162.667969 168.800781 C 162.871094 169.003906 163.089844 169.183594 163.324219 169.34375 C 163.5625 169.5 163.8125 169.636719 164.078125 169.746094 C 164.339844 169.855469 164.613281 169.9375 164.890625 169.992188 C 165.171875 170.046875 165.453125 170.078125 165.738281 170.078125 C 166.027344 170.078125 166.308594 170.050781 166.589844 169.996094 C 166.871094 169.9375 167.140625 169.855469 167.40625 169.746094 C 167.671875 169.636719 167.921875 169.503906 168.160156 169.34375 C 168.394531 169.1875 168.617188 169.007812 168.816406 168.804688 C 169.019531 168.601562 169.199219 168.382812 169.359375 168.144531 C 169.519531 167.90625 169.652344 167.65625 169.761719 167.390625 C 169.871094 167.128906 169.953125 166.855469 170.007812 166.574219 C 170.0625 166.296875 170.089844 166.011719 170.089844 165.726562 C 170.089844 165.441406 170.0625 165.15625 170.007812 164.878906 C 169.949219 164.597656 169.867188 164.328125 169.757812 164.0625 C 169.648438 163.800781 169.515625 163.546875 169.355469 163.3125 C 169.199219 163.074219 169.015625 162.855469 168.816406 162.652344 C 168.613281 162.453125 168.394531 162.273438 168.15625 162.113281 C 167.917969 161.957031 167.667969 161.820312 167.402344 161.710938 C 167.140625 161.601562 166.867188 161.519531 166.589844 161.464844 C 166.308594 161.410156 166.027344 161.382812 165.738281 161.382812 Z M 183.179688 161.382812 C 182.894531 161.382812 182.609375 161.414062 182.332031 161.46875 C 182.050781 161.523438 181.78125 161.605469 181.515625 161.714844 C 181.253906 161.824219 181.003906 161.957031 180.765625 162.117188 C 180.53125 162.277344 180.308594 162.457031 180.109375 162.65625 C 179.90625 162.859375 179.726562 163.078125 179.570312 163.316406 C 179.410156 163.550781 179.277344 163.800781 179.167969 164.066406 C 179.058594 164.328125 178.976562 164.597656 178.917969 164.878906 C 178.863281 165.160156 178.835938 165.441406 178.835938 165.726562 C 178.835938 166.011719 178.863281 166.292969 178.917969 166.574219 C 178.972656 166.855469 179.054688 167.125 179.164062 167.390625 C 179.273438 167.652344 179.40625 167.90625 179.566406 168.140625 C 179.722656 168.378906 179.902344 168.597656 180.105469 168.800781 C 180.308594 169.003906 180.527344 169.183594 180.765625 169.34375 C 181 169.5 181.25 169.632812 181.515625 169.746094 C 181.777344 169.855469 182.050781 169.9375 182.332031 169.992188 C 182.609375 170.046875 182.894531 170.078125 183.179688 170.078125 C 183.464844 170.078125 183.746094 170.050781 184.027344 169.992188 C 184.308594 169.9375 184.578125 169.855469 184.84375 169.746094 C 185.109375 169.636719 185.359375 169.503906 185.597656 169.34375 C 185.832031 169.183594 186.054688 169.003906 186.253906 168.804688 C 186.457031 168.601562 186.636719 168.382812 186.796875 168.144531 C 186.957031 167.90625 187.089844 167.65625 187.199219 167.390625 C 187.308594 167.128906 187.390625 166.855469 187.445312 166.574219 C 187.5 166.296875 187.527344 166.011719 187.527344 165.726562 C 187.527344 165.441406 187.5 165.15625 187.445312 164.878906 C 187.390625 164.597656 187.304688 164.328125 187.195312 164.0625 C 187.085938 163.800781 186.953125 163.546875 186.792969 163.3125 C 186.636719 163.074219 186.453125 162.855469 186.253906 162.652344 C 186.050781 162.453125 185.832031 162.273438 185.59375 162.113281 C 185.355469 161.957031 185.105469 161.820312 184.84375 161.714844 C 184.578125 161.605469 184.304688 161.519531 184.027344 161.464844 C 183.746094 161.410156 183.464844 161.382812 183.179688 161.382812 Z M 183.179688 161.382812 "/></g></svg>