<?xml version="1.0" encoding="UTF-8"?>
<svg id="Layer_2" data-name="Layer 2" xmlns="http://www.w3.org/2000/svg" viewBox="0 0 146.9 146.9">
  <defs>
    <style>
      .cls-1 {
        fill: #295474;
      }

      .cls-2 {
        fill: #f7ad00;
      }

      .cls-3 {
        fill: #ced2dc;
      }

      .cls-4 {
        fill: #49505b;
      }

      .cls-5 {
        fill: #346d94;
      }

      .cls-6 {
        fill: #ffc306;
      }
    </style>
  </defs>
  <g id="Layer_1-2" data-name="Layer 1">
    <g>
      <g>
        <path class="cls-3" d="M45.59,32.93h10.13v30.39h-10.13v-30.39Z"/>
        <path class="cls-3" d="M17.73,32.93h10.13v30.39h-10.13v-30.39Z"/>
        <path class="cls-3" d="M73.45,32.93h10.13v30.39h-10.13v-30.39Z"/>
      </g>
      <path class="cls-1" d="M45.59,58.26h10.13c1.4,0,2.53,1.13,2.53,2.53v10.13h-15.2v-10.13c0-1.4,1.13-2.53,2.53-2.53Z"/>
      <path class="cls-1" d="M73.45,58.26h10.13c1.4,0,2.53,1.13,2.53,2.53v10.13h-15.2v-10.13c0-1.4,1.13-2.53,2.53-2.53Z"/>
      <path class="cls-1" d="M17.73,58.26h10.13c1.4,0,2.53,1.13,2.53,2.53v10.13h-15.2v-10.13c0-1.4,1.13-2.53,2.53-2.53Z"/>
      <path class="cls-3" d="M91.18,91.18h10.13v30.39h-10.13v-30.39Z"/>
      <path class="cls-3" d="M63.32,91.18h10.13v30.39h-10.13v-30.39Z"/>
      <path class="cls-3" d="M119.04,91.18h10.13v30.39h-10.13v-30.39Z"/>
      <path class="cls-2" d="M91.18,116.51h10.13c1.4,0,2.53,1.13,2.53,2.53v10.13h-15.2v-10.13c0-1.4,1.13-2.53,2.53-2.53Z"/>
      <path class="cls-2" d="M119.04,116.51h10.13c1.4,0,2.53,1.13,2.53,2.53v10.13h-15.2v-10.13c0-1.4,1.13-2.53,2.53-2.53Z"/>
      <path class="cls-2" d="M63.32,116.51h10.13c1.4,0,2.53,1.13,2.53,2.53v10.13h-15.2v-10.13c0-1.4,1.13-2.53,2.53-2.53Z"/>
      <path class="cls-5" d="M81.05,81.05H7.6v-7.6c0-2.79,2.27-5.06,5.07-5.07h68.16l.23,12.66Z"/>
      <path class="cls-1" d="M65.85,88.65H2.53c-1.4,0-2.53-1.13-2.53-2.53v-2.53c0-2.79,2.27-5.06,5.07-5.07h65.85l-5.07,10.13Z"/>
      <path class="cls-5" d="M99.42,37.99H1.89c-1.05,0-1.89-.87-1.89-1.92,0-.61.3-1.18.8-1.53L48.58.67c1.24-.89,2.91-.89,4.15,0l47.78,33.87c.86.61,1.06,1.8.45,2.65-.35.5-.92.79-1.53.8Z"/>
      <path class="cls-6" d="M58.25,126.64h75.98c2.8,0,5.07,2.27,5.07,5.07v7.6H53.19v-7.6c0-2.8,2.27-5.07,5.07-5.07Z"/>
      <path class="cls-2" d="M145.01,96.25H47.48c-1.05,0-1.89-.87-1.89-1.92,0-.61.3-1.18.8-1.53l47.78-33.87c1.24-.89,2.91-.89,4.15,0l47.78,33.87c.86.61,1.06,1.8.45,2.65-.35.5-.92.79-1.53.8Z"/>
      <path class="cls-2" d="M50.66,136.77h91.18c2.8,0,5.07,2.27,5.07,5.07v2.53c0,1.4-1.13,2.53-2.53,2.53H48.12c-1.4,0-2.53-1.13-2.53-2.53v-2.53c0-2.8,2.27-5.07,5.07-5.07Z"/>
      <path class="cls-4" d="M40.33,128.21c-.13-.31-.31-.59-.55-.83l-7.6-7.6c-1.01-.97-2.61-.94-3.58.06-.95.98-.95,2.54,0,3.52l3.28,3.28h-11.62c-5.6,0-10.13-4.54-10.13-10.13v-15.2c0-1.4-1.13-2.53-2.53-2.53s-2.53,1.13-2.53,2.53v15.2c0,8.39,6.81,15.19,15.2,15.2h11.62l-3.27,3.27c-1.01.97-1.03,2.58-.06,3.58s2.58,1.03,3.58.06c.02-.02.04-.04.06-.06l7.6-7.6c.24-.24.42-.52.55-.83.25-.62.25-1.31,0-1.93Z"/>
      <path class="cls-4" d="M136.03,36.2c-.99-.99-2.59-.99-3.58,0l-3.27,3.27v-11.62c0-8.39-6.81-15.19-15.2-15.2h-15.2c-1.4,0-2.53,1.13-2.53,2.53s1.13,2.53,2.53,2.53h15.2c5.6,0,10.13,4.54,10.13,10.13v11.62l-3.27-3.27c-1.01-.97-2.61-.94-3.58.06-.95.98-.95,2.54,0,3.52l7.6,7.6c.99.99,2.59.99,3.58,0,0,0,0,0,0,0l7.6-7.6c.99-.99.99-2.59,0-3.58Z"/>
    </g>
  </g>
</svg>