<?xml version="1.0" encoding="UTF-8"?>
<svg id="Layer_2" data-name="Layer 2" xmlns="http://www.w3.org/2000/svg" viewBox="0 0 236.32 236.32">
  <defs>
    <style>
      .cls-1 {
        fill: #f3ba2f;
      }

      .cls-2 {
        fill: #fff;
      }
    </style>
  </defs>
  <g id="Layer_1-2" data-name="Layer 1">
    <g id="Icon">
      <circle class="cls-1" cx="118.16" cy="118.16" r="118.16"/>
      <path class="cls-2" d="M93.44,108.01l24.72-24.72,24.72,24.74,14.38-14.38-39.09-39.12-39.09,39.09,14.38,14.38Z"/>
      <path class="cls-2" d="M54.54,118.15l14.38-14.38,14.38,14.38-14.38,14.38-14.38-14.38Z"/>
      <path class="cls-2" d="M93.44,128.31l24.72,24.72,24.72-24.74,14.4,14.38h-.02l-39.09,39.12-39.09-39.09-.02-.02,14.4-14.35Z"/>
      <path class="cls-2" d="M153.02,118.17l14.38-14.38,14.38,14.38-14.38,14.38-14.38-14.38Z"/>
      <path class="cls-2" d="M132.74,118.16l-14.59-14.61-10.78,10.8-1.25,1.22-2.56,2.56-.02.02.02.02,14.59,14.59,14.59-14.61Z"/>
    </g>
  </g>
</svg>