<?xml version="1.0" encoding="UTF-8"?>
<svg id="Layer_2" data-name="Layer 2" xmlns="http://www.w3.org/2000/svg" xmlns:xlink="http://www.w3.org/1999/xlink" viewBox="0 0 234 234">
  <defs>
    <style>
      .cls-1 {
        fill: url(#linear-gradient);
      }
    </style>
    <linearGradient id="linear-gradient" x1="34.27" y1="463.36" x2="199.73" y2="297.9" gradientTransform="translate(0 497.63) scale(1 -1)" gradientUnits="userSpaceOnUse">
      <stop offset="0" stop-color="#fde560"/>
      <stop offset="1" stop-color="#ff6f00"/>
    </linearGradient>
  </defs>
  <g id="Layer_1-2" data-name="Layer 1">
    <g id="Currency">
      <path id="Bitcoin" class="cls-1" d="M141.75,135.08c0,16.54-28.3,14.65-37.33,14.66v-29.31c9.03,0,37.33-2.59,37.33,14.65ZM234,117c0,64.62-52.38,117-117,117S0,181.62,0,117,52.38,0,117,0s117,52.38,117,117h0ZM148.96,110.17c7.72-3.93,12.55-10.86,11.42-22.39-1.52-15.77-15.13-21.06-32.32-22.56v-21.87h-13.31v21.3c-3.5,0-7.08.07-10.63.14v-21.44h-13.3v21.87c-2.89.06-5.72.11-8.48.11v-.07h-18.37s0,14.22,0,14.22c0,0,9.84-.19,9.67,0,5.39,0,7.15,3.13,7.66,5.84v24.92c.37,0,.86.02,1.41.09h-1.41v34.91c-.24,1.7-1.24,4.41-5,4.41.17.15-9.68,0-9.68,0l-2.65,15.9h17.33c3.23,0,6.4.06,9.51.08v22.12h13.3v-21.89c3.65.08,7.18.11,10.64.1v21.79h13.31v-22.08c22.39-1.28,38.06-6.92,40-27.94,1.57-16.93-6.39-24.48-19.1-27.53h0ZM135.56,93.72c0-15.69-23.61-13.3-31.13-13.3v26.59c7.51,0,31.12,1.75,31.13-13.29h0Z"/>
    </g>
  </g>
</svg>