<?xml version="1.0" encoding="UTF-8"?>
<svg id="Layer_2" data-name="Layer 2" xmlns="http://www.w3.org/2000/svg" viewBox="0 0 168.58 156.13">
  <defs>
    <style>
      .cls-1 {
        fill: #e80259;
      }

      .cls-2 {
        fill: #da0236;
      }

      .cls-3 {
        fill: #96011d;
      }
    </style>
  </defs>
  <g id="Layer_1-2" data-name="Layer 1">
    <g>
      <path class="cls-2" d="M59.1,73.54C39.89,48.89,21.07,24.72,2.24.56c.09-.19.18-.37.28-.56,24.65,2.96,49.31,5.92,74.34,8.93-5.92,21.55-11.76,42.79-17.76,64.61Z"/>
      <path class="cls-1" d="M62.06,74.1c5.96-21.65,11.84-43.02,17.9-65,18.33,25.58,36.29,50.66,54.25,75.73-.09.19-.19.38-.28.57-23.82-3.75-47.65-7.49-71.86-11.3Z"/>
      <path class="cls-2" d="M62.23,77.26c23.24,3.72,46.01,7.36,68.77,11,.04.23.09.46.13.69-19.69,9.87-39.38,19.74-59.42,29.78-3.16-13.83-6.25-27.35-9.48-41.47Z"/>
      <path class="cls-3" d="M36.51,155.87c7.39-26.06,14.78-52.13,22.34-78.77.41.92.68,1.34.78,1.8,3.54,15.91,7.04,31.83,10.61,47.74.36,1.58.02,2.52-1.26,3.55-10.2,8.24-20.34,16.56-30.5,24.85-.48.39-.99.73-1.49,1.1-.16-.09-.32-.17-.49-.26Z"/>
      <path class="cls-2" d="M115.78,54.62c12-2.17,23.52-4.25,35.67-6.44-4.57,12.48-8.98,24.5-13.6,37.1-7.46-10.35-14.59-20.25-22.08-30.66Z"/>
      <path class="cls-1" d="M81.18,117.17c17.76-9.05,35.52-18.11,53.27-27.16.14.12.29.24.43.36-.67,2.03-1.29,4.08-2.04,6.08-.16.43-.78.79-1.27.99-16.57,6.69-33.14,13.35-49.72,20.02-.13.05-.28.05-.42.07-.09-.12-.17-.24-.26-.35Z"/>
      <path class="cls-1" d="M168.36,63.71h-19.77c1.87-5.1,3.67-9.99,5.3-14.44,4.91,4.61,9.81,9.21,14.7,13.8-.07.21-.15.42-.22.64Z"/>
      <path class="cls-3" d="M30.3,42.04C20.2,32.48,10.1,22.92,0,13.36c.07-.19.15-.38.22-.56,2.56,0,5.11-.04,7.67.04.39.01.86.47,1.14.84,7.12,9.11,14.21,18.23,21.31,27.36.16.2.22.47.32.71-.12.1-.24.2-.37.3Z"/>
    </g>
  </g>
</svg>