<?xml version="1.0" encoding="UTF-8"?>
<svg id="Layer_2" data-name="Layer 2" xmlns="http://www.w3.org/2000/svg" viewBox="0 0 235.53 235.53">
  <defs>
    <style>
      .cls-1 {
        fill: #fff;
      }

      .cls-2 {
        fill: #0052ff;
      }
    </style>
  </defs>
  <g id="Layer_1-2" data-name="Layer 1">
    <g>
      <path class="cls-2" d="M117.76,0h0c65.04,0,117.76,52.72,117.76,117.76h0c0,65.04-52.72,117.76-117.76,117.76h0C52.72,235.53,0,182.8,0,117.76h0C0,52.72,52.72,0,117.76,0Z"/>
      <path class="cls-1" d="M117.81,159.15c-22.89,0-41.38-18.55-41.38-41.38s18.55-41.38,41.38-41.38c20.49,0,37.5,14.92,40.77,34.49h41.69c-3.53-42.51-39.08-75.92-82.51-75.92-45.73,0-82.82,37.09-82.82,82.82s37.09,82.82,82.82,82.82,78.99-33.41,82.51-75.92h-41.74c-3.27,19.57-20.23,34.49-40.72,34.49Z"/>
    </g>
  </g>
</svg>