<?xml version="1.0" encoding="UTF-8"?>
<svg id="Layer_2" data-name="Layer 2" xmlns="http://www.w3.org/2000/svg" viewBox="0 0 175.99 164.26">
  <defs>
    <style>
      .cls-1 {
        fill: #d7e6f0;
      }

      .cls-2 {
        fill: #64afe1;
      }

      .cls-3 {
        fill: #4182c3;
      }

      .cls-4 {
        fill: #a5c3dc;
      }

      .cls-5 {
        fill: #faa019;
      }

      .cls-6 {
        fill: #555a6e;
      }

      .cls-7 {
        fill: #ffd205;
      }
    </style>
  </defs>
  <g id="Layer_1-2" data-name="Layer 1">
    <g>
      <path class="cls-4" d="M52.8,82.13h-11.73C18.38,82.13,0,63.74,0,41.06S18.38,0,41.06,0h11.73c22.68,0,41.06,18.38,41.06,41.06s-18.38,41.06-41.06,41.06Z"/>
      <circle class="cls-1" cx="41.06" cy="41.06" r="41.06"/>
      <circle class="cls-4" cx="41.06" cy="41.06" r="29.33"/>
      <path class="cls-3" d="M134.92,82.13h-11.73c-22.68,0-41.06-18.38-41.06-41.06S100.51,0,123.19,0h11.73c22.68,0,41.06,18.38,41.06,41.06s-18.38,41.06-41.06,41.06Z"/>
      <circle class="cls-2" cx="123.19" cy="41.06" r="41.06"/>
      <circle class="cls-3" cx="123.19" cy="41.06" r="29.33"/>
      <path class="cls-3" d="M52.8,164.26h-11.73c-22.68,0-41.06-18.38-41.06-41.06s18.38-41.06,41.06-41.06h11.73c22.68,0,41.06,18.38,41.06,41.06s-18.38,41.06-41.06,41.06Z"/>
      <circle class="cls-2" cx="41.06" cy="123.19" r="41.06"/>
      <circle class="cls-3" cx="41.06" cy="123.19" r="29.33"/>
      <path class="cls-5" d="M134.92,164.26h-11.73c-22.68,0-41.06-18.38-41.06-41.06s18.38-41.06,41.06-41.06h11.73c22.68,0,41.06,18.38,41.06,41.06s-18.38,41.06-41.06,41.06Z"/>
      <circle class="cls-7" cx="123.19" cy="123.19" r="41.06"/>
      <circle class="cls-5" cx="123.19" cy="123.19" r="29.33"/>
      <g>
        <path class="cls-3" d="M52.38,33.69l-8.8-14.67c-.53-.88-1.48-1.42-2.52-1.42s-1.98.54-2.52,1.42l-8.8,14.67c-.81,1.34-.41,3.08.89,3.95l8.8,5.87c.49.33,1.06.49,1.63.49s1.13-.16,1.63-.49l8.8-5.87c1.3-.87,1.69-2.61.89-3.95Z"/>
        <path class="cls-2" d="M41.85,17.71c-1.27-.35-2.62.19-3.3,1.32l-8.8,14.67c-.81,1.34-.41,3.08.89,3.95l8.8,5.87c.49.33,1.06.49,1.63.49.47,0,.95-.11,1.38-.35.95-.51,1.55-1.5,1.55-2.59v-20.53c0-1.32-.88-2.47-2.15-2.83h0Z"/>
        <path class="cls-3" d="M51.89,44.81c-.99-.95-2.51-1.08-3.65-.32l-7.17,4.78-7.17-4.78c-1.14-.76-2.66-.63-3.65.32-.99.95-1.2,2.46-.49,3.63l8.8,14.67c.53.88,1.48,1.42,2.52,1.42s1.98-.54,2.52-1.42l8.8-14.67c.71-1.18.5-2.68-.49-3.63h0Z"/>
      </g>
      <path class="cls-1" d="M134.92,52.52h-15.94l3.92-10.79,6.62-2.21c.77-.26,1.18-1.09.93-1.86-.26-.77-1.09-1.18-1.86-.93l-4.41,1.47,4.96-13.65c.61-1.67-.25-3.51-1.92-4.12-1.67-.61-3.51.25-4.12,1.92l-6.7,18.44-5.41,1.8c-.77.26-1.18,1.09-.93,1.86.2.61.78,1,1.39,1,.15,0,.31-.02.46-.08l3.2-1.07-3.75,10.31c-.36.99-.21,2.08.39,2.94.6.86,1.58,1.37,2.63,1.37h20.53c1.77,0,3.21-1.44,3.21-3.21s-1.44-3.21-3.21-3.21h0Z"/>
      <path class="cls-2" d="M41.01,105.71c-1.87,2.9-1.82,6.43-.23,9.18.52.91.53,2.02,0,2.93l-.56.97c-.52.91-1.49,1.47-2.54,1.47h-1.12c-1.05,0-2.01-.56-2.54-1.47-1.59-2.75-4.62-4.56-8.07-4.39-4.43.22-8.06,3.8-8.34,8.23-.32,5.11,3.74,9.36,8.78,9.36,3.25,0,6.09-1.76,7.61-4.39.53-.91,1.49-1.48,2.54-1.48h1.12c1.05,0,2.02.56,2.54,1.47l.56.97c.52.91.52,2.02,0,2.93-1.59,2.75-1.63,6.28.23,9.18,2.4,3.73,7.32,5.08,11.29,3.11,4.59-2.28,6.24-7.92,3.72-12.29-1.63-2.82-4.57-4.39-7.61-4.4-1.05,0-2.03-.55-2.55-1.46l-.56-.97c-.52-.91-.52-2.03,0-2.93l.56-.97c.53-.91,1.5-1.46,2.55-1.46,3.03,0,5.98-1.58,7.61-4.4,2.52-4.37.87-10-3.72-12.29-3.97-1.97-8.89-.62-11.29,3.11Z"/>
      <path class="cls-1" d="M151.18,131.99h-10.39v-21.14c0-1.31-1.58-1.96-2.5-1.04l-15.1,15.09-15.1-15.1c-.92-.92-2.5-.27-2.5,1.04v21.14h-10.39c.65,2.06,1.52,4.03,2.59,5.87h12.2c.81,0,1.47-.66,1.47-1.47v-14.92l10.7,10.7c.57.57,1.5.57,2.07,0l10.7-10.7v14.92c0,.81.66,1.47,1.47,1.47h12.2c1.06-1.84,1.94-3.8,2.59-5.87h0Z"/>
      <path class="cls-6" d="M136.39,137.86c-.81,0-1.47-.66-1.47-1.47v-14.92l-10.7,10.7c-.57.57-1.5.57-2.07,0l-10.7-10.7v14.92c0,.81-.66,1.47-1.47,1.47h-12.2c5.07,8.76,14.54,14.67,25.4,14.67s20.33-5.9,25.4-14.67h-12.2Z"/>
    </g>
  </g>
</svg>