<?xml version="1.0" encoding="UTF-8"?>
<svg id="Layer_2" data-name="Layer 2" xmlns="http://www.w3.org/2000/svg" viewBox="0 0 180.28 204.55">
  <g id="Layer_1-2" data-name="Layer 1">
    <path d="M174.49,46.92L95.89,1.54c-3.57-2.05-7.96-2.05-11.52,0L5.77,46.92C2.2,48.99,0,52.79,0,56.91v90.75c0,4.1,2.21,7.92,5.77,9.99l78.6,45.38c3.58,2.03,7.96,2.03,11.54,0l78.6-45.38c3.57-2.06,5.77-5.87,5.77-9.99V56.91c0-4.1-2.21-7.92-5.77-9.99h-.02ZM91.91,96.65c-1.1.64-2.46.64-3.56,0L11.94,52.56,88.36,8.45c1.11-.61,2.45-.61,3.56,0l76.41,44.11-76.42,44.1ZM84.37,103.53c.56.32,1.16.59,1.79.82v90.48L9.75,150.74c-1.1-.64-1.79-1.81-1.79-3.09V59.44l76.41,44.1Z"/>
  </g>
</svg>