<?xml version="1.0" encoding="UTF-8"?>
<svg id="Layer_2" data-name="Layer 2" xmlns="http://www.w3.org/2000/svg" xmlns:xlink="http://www.w3.org/1999/xlink" viewBox="0 0 201.83 123.44">
  <defs>
    <style>
      .cls-1 {
        fill: none;
      }

      .cls-2 {
        fill: #e1121c;
      }

      .cls-2, .cls-3, .cls-4 {
        fill-rule: evenodd;
      }

      .cls-3 {
        fill: #00903c;
      }

      .cls-5 {
        fill: url(#linear-gradient);
      }

      .cls-4 {
        fill: #283989;
      }

      .cls-6 {
        fill: url(#linear-gradient-2);
        stroke: #cecccd;
        stroke-miterlimit: 10;
        stroke-width: .17px;
      }

      .cls-7 {
        clip-path: url(#clippath);
      }
    </style>
    <linearGradient id="linear-gradient" x1="3.44" y1="65.01" x2="196.68" y2="65.01" gradientUnits="userSpaceOnUse">
      <stop offset="0" stop-color="#949494"/>
      <stop offset=".06" stop-color="#a6a6a6"/>
      <stop offset=".16" stop-color="#d5d5d5"/>
      <stop offset=".25" stop-color="#fff"/>
      <stop offset=".37" stop-color="#cacaca"/>
      <stop offset=".51" stop-color="#8f8f8f"/>
      <stop offset=".62" stop-color="#6a6a6a"/>
      <stop offset=".68" stop-color="#5c5c5c"/>
      <stop offset=".72" stop-color="#636363"/>
      <stop offset=".78" stop-color="#787878"/>
      <stop offset=".85" stop-color="#9a9a9a"/>
      <stop offset=".93" stop-color="#c9c9c9"/>
      <stop offset="1" stop-color="#f4f4f4"/>
    </linearGradient>
    <clipPath id="clippath">
      <path class="cls-1" d="M201.83,59.09c0,32.64-45.09,59.09-100.7,59.09S.43,91.73.43,59.09,45.51,0,101.13,0s100.7,26.46,100.7,59.09Z"/>
    </clipPath>
    <linearGradient id="linear-gradient-2" x1="101.13" y1="-6.18" x2="101.13" y2="123.58" gradientUnits="userSpaceOnUse">
      <stop offset="0" stop-color="#cbcbcb"/>
      <stop offset=".28" stop-color="#e9e9e9"/>
      <stop offset=".45" stop-color="#fff"/>
      <stop offset=".7" stop-color="#d4d3d3"/>
      <stop offset="1" stop-color="#a7a6a6"/>
    </linearGradient>
  </defs>
  <g id="Layer_1-2" data-name="Layer 1">
    <g>
      <path class="cls-5" d="M201.83,65.01c0,32.27-45.18,58.43-100.92,58.43S0,97.28,0,65.01,45.19,6.59,100.91,6.59s100.92,26.16,100.92,58.43Z"/>
      <g class="cls-7">
        <path class="cls-6" d="M201.83,59.09c0,32.64-45.09,59.09-100.7,59.09S.43,91.73.43,59.09,45.51,0,101.13,0s100.7,26.46,100.7,59.09Z"/>
        <g>
          <path class="cls-2" d="M132.93,116.32c-2.8.45-5.38.98-7.97,1.26-5.77.61-11.56,1.11-17.34,1.62-1.3.12-2.6.11-3.9.11-.28,0-.62-.15-.82-.34-12.45-11.69-24.29-23.91-33.97-37.89-3.07-4.42-5.69-9.07-7.72-14.04-3.31-8.14-2.06-15.66,2.96-22.78,3.88-5.51,8.9-9.91,14.35-13.9,8.27-6.05,17.3-10.89,26.61-15.25,10.39-4.86,21.08-9.05,32.04-12.61.64-.21,1.43-.25,2.09-.11,2.36.51,4.69,1.14,7.04,1.9-1.72.62-3.46,1.23-5.17,1.87-12.37,4.59-24.32,10.02-35.41,17.05-5.96,3.77-11.55,8-16.22,13.23-3.53,3.95-6.34,8.27-7.52,13.43-.97,4.25-.59,8.37,1.2,12.39,2.42,5.44,5.81,10.29,9.52,14.95,6.95,8.72,14.82,16.64,23.12,24.16,5.42,4.92,11.04,9.64,16.57,14.45.13.11.24.22.54.49Z"/>
          <path class="cls-4" d="M93.34,119.3c-2.17-.1-4.1-.12-6.02-.28-3.94-.33-7.9-.58-11.81-1.14-5.16-.74-10.28-1.74-15.42-2.64-.22-.04-.46-.22-.62-.39-9.05-10.55-17.42-21.53-23.52-33.97-2.32-4.73-4.1-9.64-4.94-14.84-.93-5.76.39-11.03,3.41-15.98,3.21-5.28,7.6-9.57,12.43-13.46,7.35-5.91,15.47-10.71,23.9-15.04C87.48,12.99,105.06,6.36,123.01.55c2.59-.84,4.92-.33,7.37.08,1.1.19,2.2.41,3.54.66-1.94.68-3.66,1.27-5.37,1.89-14.27,5.17-28.14,11.12-41.31,18.54-7.6,4.28-14.86,9.02-21.27,14.88-3.36,3.08-6.38,6.43-8.76,10.29-4.02,6.52-4.73,13.3-2.03,20.46,2.5,6.6,6.09,12.63,10.09,18.46,6.81,9.89,14.62,19.04,22.81,27.9,1.66,1.81,3.37,3.59,5.25,5.59Z"/>
          <path class="cls-3" d="M166.22,105.87c-2.52,1.04-4.87,2.05-7.24,2.98-5.57,2.16-11.28,3.91-17.09,5.38-.52.13-.91.07-1.34-.26-12.03-9.02-23.61-18.51-34.14-29.15-5.66-5.74-10.98-11.74-15.05-18.67-1.6-2.71-2.92-5.55-3.53-8.64-1.01-5.06.03-9.81,2.48-14.32,2.55-4.7,6.15-8.59,10.22-12.1,7.24-6.24,15.45-11.09,24.02-15.41,7.73-3.91,15.73-7.23,23.89-10.2.69-.25,1.3-.28,2-.04,2.21.78,4.44,1.51,6.82,2.31-2.53.96-4.9,1.82-7.24,2.76-9.36,3.78-18.31,8.27-26.32,14.32-4.85,3.67-9.17,7.82-12.22,13.05-2.44,4.17-3.58,8.63-3.28,13.42.22,3.6,1.71,6.76,3.66,9.75,3.19,4.94,7.18,9.26,11.47,13.33,8.45,8.01,17.76,15,27.46,21.52,4.88,3.28,9.89,6.37,14.83,9.55.14.09.28.19.61.43Z"/>
        </g>
      </g>
    </g>
  </g>
</svg>