<?xml version="1.0" encoding="UTF-8"?>
<svg id="Layer_2" data-name="Layer 2" xmlns="http://www.w3.org/2000/svg" viewBox="0 0 190.38 127.89">
  <defs>
    <style>
      .cls-1 {
        fill: #046a38;
      }

      .cls-2 {
        fill: #000090;
      }

      .cls-3 {
        fill: #ff671f;
      }
    </style>
  </defs>
  <g id="Layer_1-2" data-name="Layer 1">
    <g>
      <path class="cls-2" d="M137.31,15.5c2.19,4.01,3.64,8.39,4.19,12.76h20.96c-.55-4.38-2-8.75-4.19-12.76h-20.96ZM44.92,28.52c-6.84.09-12.99,1.54-18.29,4.01-5.65,2.74-10.4,6.39-14.41,10.95-4.01,4.56-6.93,9.84-9.12,15.86-2.19,6.02-3.1,12.39-3.1,18.96,0,7.29.91,14.04,2.92,20.06,2.01,6.2,4.93,11.31,8.94,15.68,4.01,4.38,8.74,7.84,14.58,10.21,5.65,2.55,12.22,3.64,19.69,3.64,5.11,0,9.85-.55,14.59-2.01,4.74-1.46,8.93-3.46,12.76-6.2,3.65-2.74,6.93-6.2,9.66-10.21,2.55-4.01,4.39-8.57,5.66-13.68h-19.69c-1.82,5.29-4.75,9.29-8.39,11.85-3.65,2.55-8.57,3.83-14.59,3.83-4.38,0-8.2-.73-11.3-2.18-3.28-1.46-5.83-3.66-7.83-6.21-2.19-2.55-3.65-5.46-4.75-8.93-1.09-3.28-1.46-6.93-1.46-10.58h69.29c.73-6.93.36-13.87-1.46-20.43-1.82-6.56-4.55-12.57-8.38-17.68-4.01-5.11-8.94-9.13-14.78-12.23-5.83-3.1-12.58-4.74-19.87-4.74-.22,0-.44,0-.66,0h0ZM141.14,43.77c-1.82,5.11-4.93,8.75-9.31,10.93-4.38,2.19-9.85,3.29-16.23,3.29h-10.76v13.31c3.1,0,5.66,1.09,7.85,3.28s4.92,5.48,8.57,10.22l32.27,42.84h22.98l-43.58-57.43c6.56-1.82,12.57-4.74,18.04-9.12,5.47-4.38,9.12-10.03,10.95-17.32h-20.79ZM45.24,44.92c.11,0,.23,0,.34,0,3.46,0,6.57.74,9.49,2.2,2.92,1.46,5.28,3.28,7.29,5.47,2.01,2.19,3.65,4.92,4.75,7.83,1.09,3.1,1.82,6.2,2.18,9.49H20.79c0-3.46.73-6.75,2.01-9.85,1.28-2.92,2.92-5.65,5.1-7.83,2.19-2.19,4.74-4.02,7.66-5.29,2.83-1.24,6.17-1.96,9.69-2.01h0Z"/>
      <path id="s" class="cls-3" d="M110.33,0h80.05l-5.47,15.5h-80.05l5.47-15.5"/>
      <path class="cls-1" d="M110.33,28.27h80.05l-5.47,15.5h-80.05l5.47-15.5"/>
    </g>
  </g>
</svg>