<?xml version="1.0" encoding="UTF-8"?>
<svg id="Layer_2" data-name="Layer 2" xmlns="http://www.w3.org/2000/svg" viewBox="0 0 237.09 237.07">
  <defs>
    <style>
      .cls-1 {
        fill: #fff;
      }

      .cls-2 {
        fill: #5965f2;
      }
    </style>
  </defs>
  <g id="Layer_1-2" data-name="Layer 1">
    <g>
      <circle class="cls-1" cx="118.54" cy="118.54" r="118.54"/>
      <g>
        <path class="cls-2" d="M143.75,108.94c-7.63,0-13.64,6.91-13.64,15.34s6.15,15.28,13.64,15.28,13.55-6.89,13.64-15.32c.08-8.44-6.01-15.3-13.64-15.3Z"/>
        <path class="cls-2" d="M118.55,0C53.09,0,.02,53.07.02,118.54s53.07,118.54,118.54,118.54,118.54-53.07,118.54-118.54S184.02,0,118.55,0ZM193.79,156.97c-11.59,8.63-24.58,15.19-38.41,19.38-3.11-4.2-5.86-8.66-8.23-13.32,4.5-1.68,8.84-3.76,12.98-6.21-1.07-.8-2.14-1.62-3.17-2.47-24.31,11.5-52.5,11.5-76.82,0-1.01.82-2.05,1.64-3.13,2.45,4.13,2.44,8.46,4.51,12.95,6.19-2.37,4.67-5.12,9.13-8.23,13.35-13.82-4.21-26.81-10.77-38.41-19.38-2.68-28.31,2.69-57.06,22.44-86.52,9.97-4.61,20.5-7.88,31.33-9.71,1.51,2.67,2.89,5.42,4.11,8.23,11.5-1.71,23.19-1.71,34.69,0,1.08-2.61,2.63-5.83,4.01-8.23,10.81,1.83,21.34,5.08,31.3,9.67,17.18,25.25,25.71,53.74,22.58,86.57Z"/>
        <path class="cls-2" d="M93.34,108.94c-7.63,0-13.64,6.91-13.64,15.34s6.15,15.28,13.64,15.28,13.58-6.89,13.65-15.32c.07-8.44-6.02-15.3-13.65-15.3Z"/>
      </g>
    </g>
  </g>
</svg>