<?xml version="1.0" encoding="UTF-8"?>
<svg id="Layer_2" data-name="Layer 2" xmlns="http://www.w3.org/2000/svg" viewBox="0 0 176.15 189.94">
  <defs>
    <style>
      .cls-1 {
        fill: #00c252;
      }

      .cls-1, .cls-2 {
        fill-rule: evenodd;
      }
    </style>
  </defs>
  <g id="Layer_1-2" data-name="Layer 1">
    <g>
      <path id="Combined-Shape" class="cls-2" d="M91.08,0c42.51,0,76.97,28.53,76.97,63.73s-34.46,56.63-76.97,56.63c-41.9-.85-71.12-14.51-87.67-40.99C12.35,29.17,41.57,2.72,91.08,0ZM88.21,39.65c-24.44,2.47-39.4,14.11-44.87,34.9,7.45,6.57,22.41,10.22,44.87,10.95,22.56-.36,36.23-6.93,36.5-22.22-1.41-16.89-17.83-24.26-36.5-23.63Z"/>
      <path id="Combined-Shape-2" data-name="Combined-Shape" class="cls-1" d="M.21,96.15c12.61,36.17,47.38,56.3,83.12,56.3,29.64,0,49.29-12.83,59.6-32.19l33.22,20.81c-11.58,28.33-45.91,48.86-86.46,48.86C39.63,189.94-3.24,156.2.19,97.54c0-.47,0-.93.02-1.39Z"/>
    </g>
  </g>
</svg>