<?xml version="1.0" encoding="UTF-8"?>
<svg id="Layer_2" data-name="Layer 2" xmlns="http://www.w3.org/2000/svg" viewBox="0 0 199.61 164.02">
  <defs>
    <style>
      .cls-1 {
        fill: #ff9b00;
      }

      .cls-2 {
        fill: #009a46;
      }

      .cls-3 {
        fill: #ff5805;
      }

      .cls-4 {
        fill: #f5afcb;
      }
    </style>
  </defs>
  <g id="Layer_1-2" data-name="Layer 1">
    <g>
      <path class="cls-2" d="M0,35.82c0-10.66,3.06-19.72,9.63-26.18l11.34,11.34c-12.58,12.58-1.59,51.69,34.35,87.62,35.93,35.93,75.04,46.93,87.62,34.35l11.34,11.34c-21.31,21.31-69.71,6.12-110.29-34.35C15.87,91.7,0,59.85,0,35.82Z"/>
      <path class="cls-3" d="M71.53,164.02c-10.66,0-19.72-3.06-26.18-9.63l11.34-11.34c12.58,12.58,51.69,1.59,87.62-34.35,35.93-35.93,46.93-75.04,34.35-87.62l11.34-11.34c21.31,21.31,6.12,69.71-34.35,110.29-28.22,28.11-60.19,43.98-84.11,43.98Z"/>
      <path class="cls-4" d="M159.26,103.83c-6.91-19.84-20.97-41.03-39.56-59.62C79.12,3.62,30.72-11.45,9.41,9.75h0c-1.47,1.59-.11,5.33,2.95,8.39,3.06,3.06,6.91,4.42,8.39,2.95,12.58-12.58,51.69-1.59,87.62,34.35,17,17,29.7,36.05,35.82,53.62,5.33,15.42,4.87,27.88-1.36,34.12h0c-1.47,1.47-.23,5.21,2.95,8.39,3.17,3.17,6.91,4.42,8.39,2.95,10.88-11,12.7-29.02,5.1-50.67Z"/>
      <path class="cls-1" d="M189.87,9.75c-10.88-10.88-28.9-12.7-50.56-5.21-19.84,6.91-41.03,20.97-59.62,39.56-40.58,40.58-55.66,88.98-34.35,110.29h0c1.47,1.47,5.33.23,8.39-2.95,3.06-3.17,4.42-6.91,2.95-8.39-12.58-12.58-1.59-51.69,34.35-87.62,17-17,36.05-29.7,53.5-35.82,15.42-5.33,27.88-4.87,34.12,1.36h0c1.47,1.47,5.21.23,8.39-2.95s4.42-6.69,2.83-8.27Z"/>
    </g>
  </g>
</svg>