<?xml version="1.0" encoding="UTF-8"?>
<svg id="Layer_2" data-name="Layer 2" xmlns="http://www.w3.org/2000/svg" viewBox="0 0 190.58 160.74">
  <defs>
    <style>
      .cls-1 {
        fill: #007cff;
      }

      .cls-2 {
        fill: #51c1ff;
      }

      .cls-3 {
        fill: #002cb8;
      }
    </style>
  </defs>
  <g id="Layer_1-2" data-name="Layer 1">
    <g>
      <path class="cls-2" d="M172.14,80.37c.04,14.42-3.34,28.65-9.86,41.52-2.18,4.25-.76,9.47,3.28,12.02h0c4.28,2.71,9.95,1.45,12.67-2.82.15-.23.29-.47.41-.72,15.91-31.37,15.91-68.45,0-99.83-2.33-4.52-7.89-6.29-12.4-3.96l-.7.41h0c-4.03,2.55-5.45,7.76-3.28,12.01,6.5,12.82,9.89,26.98,9.88,41.35Z"/>
      <path class="cls-2" d="M142.34,80.37c.02,8.94-1.9,17.78-5.63,25.91-1.93,4.2-.45,9.19,3.46,11.66h0c4.31,2.73,10.02,1.45,12.75-2.86.23-.36.43-.73.6-1.11,9.73-21.32,9.73-45.81,0-67.13-2.13-4.64-7.61-6.67-12.25-4.54-.36.17-.72.36-1.06.57h0c-3.92,2.47-5.4,7.45-3.46,11.66,3.71,8.11,5.62,16.93,5.59,25.85Z"/>
      <path class="cls-1" d="M80.38,142.3c-34.22,0-61.95-27.75-61.94-61.97,0-34.22,27.75-61.95,61.97-61.94,13.68,0,26.97,4.53,37.81,12.88,3.66,2.85,8.87,2.53,12.15-.75h0c3.59-3.59,3.59-9.41,0-13-.28-.28-.58-.54-.89-.78C94.34-10.37,43.87-3.87,16.75,31.26-10.37,66.4-3.87,116.87,31.26,143.99c28.98,22.37,69.41,22.33,98.34-.1,3.95-3.07,4.67-8.77,1.59-12.72-.23-.29-.47-.57-.74-.84l-.2-.2c-3.25-3.2-8.36-3.49-11.95-.69-10.86,8.38-24.21,12.91-37.93,12.86Z"/>
      <path class="cls-3" d="M129.79,73.62c-1.77-1.79-4.18-2.8-6.7-2.82h-44.14c-5.26-.2-9.69,3.9-9.89,9.16s3.9,9.69,9.16,9.89c.24,0,.49,0,.73,0h33.21c-5.31,17.5-23.81,27.38-41.31,22.07-17.5-5.31-27.38-23.81-22.07-41.31,5.31-17.5,23.81-27.38,41.31-22.07,2.81.85,5.5,2.08,7.99,3.64,3.79,2.35,8.7,1.76,11.83-1.41h0c3.71-3.72,3.7-9.73-.02-13.44-.48-.48-1.01-.91-1.58-1.27-11.65-7.32-25.7-9.79-39.14-6.87-20.06,4.25-35.68,20.01-39.76,40.1-6.03,28.2,11.94,55.94,40.14,61.97,28.2,6.03,55.94-11.94,61.97-40.14.77-3.58,1.15-7.23,1.15-10.88-.05-2.5-1.08-4.88-2.87-6.63Z"/>
    </g>
  </g>
</svg>