<?xml version="1.0" encoding="UTF-8"?>
<svg id="Layer_2" data-name="Layer 2" xmlns="http://www.w3.org/2000/svg" viewBox="0 0 213.82 84.98">
  <defs>
    <style>
      .cls-1 {
        fill: #4285f4;
      }

      .cls-2 {
        fill: #34a853;
      }

      .cls-3 {
        fill: #fbbc04;
      }

      .cls-4 {
        fill: #ea4335;
      }

      .cls-5 {
        fill: #5f6368;
      }
    </style>
  </defs>
  <g id="Layer_1-2" data-name="Layer 1">
    <g>
      <path class="cls-5" d="M101.06,41.43v24.85h-8.02V4.82h20.84c5.08,0,9.89,1.87,13.63,5.34,3.74,3.21,5.61,8.02,5.61,13.09s-1.87,9.62-5.61,13.09c-3.74,3.47-8.28,5.34-13.63,5.34l-12.83-.27h0ZM101.06,12.31v21.38h13.36c2.94,0,5.88-1.07,7.75-3.21,4.28-4.01,4.28-10.69.27-14.7l-.27-.27c-2.14-2.14-4.81-3.47-7.75-3.21h-13.36Z"/>
      <path class="cls-5" d="M151.56,22.99c5.88,0,10.42,1.6,13.89,4.81s5.08,7.48,5.08,12.83v25.65h-7.48v-5.88h-.27c-3.21,4.81-7.75,7.21-13.09,7.21-4.54,0-8.55-1.34-11.76-4.01-2.94-2.67-4.81-6.41-4.81-10.42,0-4.28,1.6-7.75,4.81-10.42s7.75-3.74,13.09-3.74c4.81,0,8.55.8,11.49,2.67v-1.87c0-2.67-1.07-5.34-3.21-6.95-2.14-1.87-4.81-2.94-7.75-2.94-4.54,0-8.02,1.87-10.42,5.61l-6.95-4.28c4.28-5.61,9.89-8.28,17.37-8.28ZM141.41,53.45c0,2.14,1.07,4.01,2.67,5.08,1.87,1.34,4.01,2.14,6.15,2.14,3.21,0,6.41-1.34,8.82-3.74,2.67-2.4,4.01-5.34,4.01-8.55-2.4-1.87-5.88-2.94-10.42-2.94-3.21,0-5.88.8-8.02,2.4-2.14,1.34-3.21,3.21-3.21,5.61Z"/>
      <path class="cls-5" d="M213.82,24.33l-26.45,60.65h-8.02l9.89-21.11-17.37-39.28h8.55l12.56,30.19h.27l12.29-30.19h8.28v-.27Z"/>
      <path class="cls-1" d="M69.27,36.08c0-2.4-.27-4.81-.53-7.21h-33.4v13.63h18.97c-.8,4.28-3.21,8.28-6.95,10.69v8.82h11.49c6.68-6.15,10.42-15.23,10.42-25.92Z"/>
      <path class="cls-2" d="M35.34,70.55c9.62,0,17.63-3.21,23.51-8.55l-11.49-8.82c-3.21,2.14-7.21,3.47-12.02,3.47-9.08,0-17.1-6.15-19.77-14.7H3.81v9.08c6.15,12.02,18.17,19.5,31.53,19.5Z"/>
      <path class="cls-3" d="M15.56,41.96c-1.6-4.28-1.6-9.08,0-13.63v-9.08H3.81c-5.08,9.89-5.08,21.64,0,31.8l11.76-9.08Z"/>
      <path class="cls-4" d="M35.34,13.91c5.08,0,9.89,1.87,13.63,5.34h0l10.15-10.15C52.7,3.22,44.15-.25,35.6.01,22.24.01,9.95,7.5,4.07,19.52l11.76,9.08c2.4-8.55,10.42-14.7,19.5-14.7Z"/>
    </g>
  </g>
</svg>