<?xml version="1.0" encoding="UTF-8"?>
<svg id="Layer_2" data-name="Layer 2" xmlns="http://www.w3.org/2000/svg" xmlns:xlink="http://www.w3.org/1999/xlink" viewBox="0 0 237.07 237.07">
  <defs>
    <style>
      .cls-1 {
        fill: url(#linear-gradient);
      }

      .cls-2 {
        fill: #fff;
      }
    </style>
    <linearGradient id="linear-gradient" x1="117.15" y1="24.58" x2="120.65" y2="261.63" gradientUnits="userSpaceOnUse">
      <stop offset="0" stop-color="#00bffc"/>
      <stop offset="1" stop-color="#0073f6"/>
    </linearGradient>
  </defs>
  <g id="Layer_1-2" data-name="Layer 1">
    <g>
      <circle class="cls-1" cx="118.54" cy="118.54" r="118.54"/>
      <g>
        <path class="cls-2" d="M118.21,53.97l4.96-8.58c3.06-5.36,9.89-7.17,15.26-4.11,5.36,3.06,7.17,9.89,4.11,15.26l-47.82,82.78h34.59c11.21,0,17.49,13.17,12.62,22.3H40.52c-6.19,0-11.15-4.96-11.15-11.15s4.96-11.15,11.15-11.15h28.43l36.39-63.08-11.37-19.73c-3.06-5.36-1.26-12.13,4.11-15.26,5.36-3.06,12.13-1.26,15.26,4.11l4.87,8.61Z"/>
        <path class="cls-2" d="M75.2,173.11l-10.72,18.6c-3.06,5.36-9.89,7.17-15.26,4.11s-7.17-9.89-4.11-15.26l7.97-13.79c9.01-2.79,16.33-.64,22.12,6.34Z"/>
        <path class="cls-2" d="M167.54,139.38h29.01c6.19,0,11.15,4.96,11.15,11.15s-4.96,11.15-11.15,11.15h-16.11l10.88,18.87c3.06,5.36,1.26,12.13-4.11,15.26-5.36,3.06-12.13,1.26-15.26-4.11-18.32-31.77-32.07-55.54-41.2-71.38-9.34-16.11-2.67-32.29,3.92-37.77,7.32,12.56,18.26,31.52,32.87,56.83h0Z"/>
      </g>
    </g>
  </g>
</svg>