<svg xmlns="http://www.w3.org/2000/svg" xmlns:xlink="http://www.w3.org/1999/xlink" width="500" zoomAndPan="magnify" viewBox="0 0 375 374.999991" height="500" preserveAspectRatio="xMidYMid meet" version="1.2"><defs><clipPath id="9bedf891ed"><path d="M 187.5 0 C 83.945312 0 0 83.945312 0 187.5 C 0 291.054688 83.945312 375 187.5 375 C 291.054688 375 375 291.054688 375 187.5 C 375 83.945312 291.054688 0 187.5 0 Z M 187.5 0 "/></clipPath><clipPath id="b5e79b63b1"><path d="M 187.5 0 C 83.945312 0 0 83.945312 0 187.5 C 0 291.054688 83.945312 375 187.5 375 C 291.054688 375 375 291.054688 375 187.5 C 375 83.945312 291.054688 0 187.5 0 Z M 187.5 0 "/></clipPath><clipPath id="2159cd40b4"><rect x="0" width="375" y="0" height="375"/></clipPath><clipPath id="4ce09b021f"><path d="M 27.457031 120.945312 L 348.457031 120.945312 L 348.457031 258.945312 L 27.457031 258.945312 Z M 27.457031 120.945312 "/></clipPath><clipPath id="c1235dfef8"><path d="M 40.671875 140.808594 L 334.371094 140.808594 L 334.371094 235.113281 L 40.671875 235.113281 Z M 40.671875 140.808594 "/></clipPath></defs><g id="6c05746c9e"><g clip-rule="nonzero" clip-path="url(#9bedf891ed)"><g transform="matrix(1,0,0,1,0,0)"><g clip-path="url(#2159cd40b4)"><g clip-rule="nonzero" clip-path="url(#b5e79b63b1)"><rect x="0" width="375" height="375" y="0" style="fill:#000000;fill-opacity:1;stroke:none;"/></g></g></g></g><g clip-rule="nonzero" clip-path="url(#4ce09b021f)"><path style=" stroke:none;fill-rule:nonzero;fill:#000000;fill-opacity:1;" d="M 20.644531 20.65625 L 354.394531 20.65625 L 354.394531 354.40625 L 20.644531 354.40625 Z M 20.644531 20.65625 "/></g><g clip-rule="nonzero" clip-path="url(#c1235dfef8)"><path style=" stroke:none;fill-rule:evenodd;fill:#53fc18;fill-opacity:1;" d="M 40.671875 140.808594 L 72.136719 140.808594 L 72.136719 161.765625 L 82.628906 161.765625 L 82.628906 151.285156 L 93.117188 151.285156 L 93.117188 140.808594 L 124.585938 140.808594 L 124.585938 172.242188 L 114.09375 172.242188 L 114.09375 182.722656 L 103.605469 182.722656 L 103.605469 193.203125 L 114.09375 193.203125 L 114.09375 203.679688 L 124.585938 203.679688 L 124.585938 235.113281 L 93.117188 235.113281 L 93.117188 224.636719 L 82.628906 224.636719 L 82.628906 214.160156 L 72.136719 214.160156 L 72.136719 235.113281 L 40.671875 235.113281 Z M 250.457031 140.808594 L 281.921875 140.808594 L 281.921875 161.765625 L 292.414062 161.765625 L 292.414062 151.285156 L 302.902344 151.285156 L 302.902344 140.808594 L 334.371094 140.808594 L 334.371094 172.242188 L 323.882812 172.242188 L 323.882812 182.722656 L 313.390625 182.722656 L 313.390625 193.203125 L 323.882812 193.203125 L 323.882812 203.679688 L 334.371094 203.679688 L 334.371094 235.113281 L 302.902344 235.113281 L 302.902344 224.636719 L 292.414062 224.636719 L 292.414062 214.160156 L 281.921875 214.160156 L 281.921875 235.113281 L 250.457031 235.113281 Z M 135.074219 140.808594 L 166.542969 140.808594 L 166.542969 235.113281 L 135.074219 235.113281 Z M 187.519531 140.808594 L 187.519531 151.285156 L 177.03125 151.285156 L 177.03125 224.636719 L 187.519531 224.636719 L 187.519531 235.113281 L 239.96875 235.113281 L 239.96875 203.679688 L 208.5 203.679688 L 208.5 172.242188 L 239.96875 172.242188 L 239.96875 140.808594 Z M 187.519531 140.808594 "/></g></g></svg>