<?xml version="1.0" encoding="UTF-8"?>
<svg id="Layer_2" data-name="Layer 2" xmlns="http://www.w3.org/2000/svg" xmlns:xlink="http://www.w3.org/1999/xlink" viewBox="0 0 125.44 176.83">
  <defs>
    <style>
      .cls-1 {
        fill: url(#linear-gradient);
      }
    </style>
    <linearGradient id="linear-gradient" x1="-1094.05" y1="213.57" x2="-1094.59" y2="214.35" gradientTransform="translate(130496.53 36062.64) scale(119.17 -168)" gradientUnits="userSpaceOnUse">
      <stop offset="0" stop-color="#5c33f3"/>
      <stop offset="1" stop-color="#2cadff"/>
    </linearGradient>
  </defs>
  <g id="Layer_1-2" data-name="Layer 1">
    <path class="cls-1" d="M125.44.41L24.11,0h-.14c-6.37,0-12.33,2.46-16.93,7.1C2.44,11.61,0,17.75,0,24.17v128.49c0,6.42,2.44,12.56,7.04,17.07,4.47,4.51,10.57,7.1,16.93,7.1h.14l101.33-.27v-6.14c0-31.54-12.06-60.35-31.83-81.79,20.59-22.39,31.83-51.21,31.83-81.93V.41h0ZM51.07,58.72c-12.06-4.92-25.06-8.06-38.74-8.74v-.27c18.97-2.87,34-18.16,36.57-37.28l25.47.14c-1.49,17.89-9.75,34.27-23.3,46.15h0ZM15.71,15.84c2.17-2.19,5.15-3.41,8.26-3.41h12.33c-2.3,12.43-11.92,22.26-24.11,24.85v-13.11c.13-3.14,1.35-6.14,3.52-8.33h0ZM12.33,127.13v-25.67c32.92,3,59.2,29.63,62.04,62.81l-25.47.14c-2.71-19.25-17.61-34.41-36.58-37.28h0ZM24.11,164.41c-3.12,0-6.1-1.23-8.26-3.41-2.17-2.18-3.39-5.19-3.39-8.33v-12.97c12.19,2.59,21.81,12.29,24.11,24.71h-12.46ZM112.98,164.13l-26.42.14c-2.98-40.01-34.68-72.1-74.37-75.24v-26.63c54.32,3.14,97.8,47.11,100.78,101.73h0ZM84.8,79.88c-6.69-5.92-14-11.09-21.81-15.43,13.82-13.79,22.22-32.09,23.71-51.89l26.42.14c-1.49,25.12-11.38,48.61-28.31,67.18Z"/>
  </g>
</svg>