<?xml version="1.0" encoding="UTF-8"?>
<svg id="Layer_2" data-name="Layer 2" xmlns="http://www.w3.org/2000/svg" viewBox="0 0 242.9 145.43">
  <defs>
    <style>
      .cls-1 {
        fill: #f90;
      }

      .cls-2 {
        fill: #c00;
      }

      .cls-3 {
        fill: #fff;
      }

      .cls-4 {
        fill: #fcb340;
      }

      .cls-5 {
        fill: #006;
      }
    </style>
  </defs>
  <g id="Layer_1-2" data-name="Layer 1">
    <g id="layer1">
      <g id="g10305">
        <path id="path2268" class="cls-1" d="M242.9,72.71c.01,40.15-32.53,72.7-72.68,72.71-40.15,0-72.7-32.53-72.71-72.68v-.04C97.5,32.57,130.04.01,170.19,0c40.15-.01,72.7,32.53,72.71,72.68v.04Z"/>
        <path id="path1350" class="cls-2" d="M72.23.02C32.32.27,0,32.74,0,72.71s32.57,72.69,72.69,72.69c18.83,0,36-7.18,48.92-18.94,0,0,0,0,0,0h.02c2.65-2.41,5.11-5.01,7.38-7.78h-14.89c-1.99-2.4-3.8-4.91-5.42-7.49h25.69c1.56-2.5,2.98-5.1,4.23-7.78h-34.16c-1.16-2.5-2.17-5.05-3.04-7.64h40.24c2.43-7.25,3.74-15,3.74-23.06,0-5.34-.58-10.55-1.68-15.57h-44.44c.55-2.58,1.25-5.13,2.07-7.64h40.25c-.9-2.67-1.95-5.26-3.13-7.78h-34.02c1.23-2.62,2.62-5.17,4.17-7.64h25.67c-1.71-2.72-3.6-5.32-5.64-7.78h-14.31c2.21-2.6,4.65-5.06,7.29-7.34C108.7,7.2,91.53.02,72.69.02c-.16,0-.31,0-.47,0Z"/>
        <path id="use9412" class="cls-4" d="M235.61,110.72c.4,0,.78.1,1.16.3.38.2.67.49.88.87.21.37.32.77.32,1.18s-.1.79-.31,1.17c-.21.37-.5.66-.87.87-.37.2-.76.31-1.17.31s-.8-.1-1.17-.31c-.37-.21-.66-.5-.87-.87-.21-.37-.31-.76-.31-1.17s.1-.8.32-1.18c.21-.38.5-.67.88-.87.38-.2.76-.3,1.16-.3M235.61,111.11c-.33,0-.65.09-.96.26-.31.17-.56.41-.73.73-.18.31-.27.64-.27.98s.09.66.26.97c.18.31.42.55.73.73.31.17.64.26.97.26s.66-.09.98-.26c.31-.17.55-.42.73-.73.17-.31.26-.64.26-.97s-.09-.67-.26-.98c-.17-.32-.42-.56-.73-.73-.31-.17-.63-.26-.96-.26M234.58,114.37v-2.53h.87c.3,0,.51.02.64.07.13.05.24.13.32.24.08.12.12.24.12.37,0,.19-.07.35-.2.48-.13.14-.31.21-.52.23.09.04.16.08.22.13.1.1.23.26.37.5l.31.49h-.5l-.22-.4c-.18-.31-.32-.51-.43-.59-.07-.06-.18-.09-.33-.09h-.24v1.08h-.41M234.99,112.94h.5c.24,0,.4-.04.48-.11.09-.07.13-.16.13-.28,0-.08-.02-.14-.06-.2-.04-.06-.1-.1-.17-.13-.07-.03-.21-.05-.41-.05h-.46v.76"/>
      </g>
      <g id="g16480">
        <g id="g13802">
          <path id="path13804" class="cls-5" d="M96.82,93.57l.97-6.58c-.53,0-1.31.23-1.99.23-2.69,0-3.03-1.44-2.82-2.49l2.65-13.23h4.1l.84-7.47h-3.86l.79-4.53h-8.07c-.17.17-4.57,25.45-4.57,28.53,0,4.56,2.56,6.59,6.17,6.55,2.82-.02,5.03-.81,5.8-1.01Z"/>
          <path id="path13806" class="cls-5" d="M99.27,81.03c0,10.94,7.22,13.54,13.37,13.54,5.68,0,8.66-1.32,8.66-1.32l1.36-7.47s-4.8,1.95-8.7,1.95c-8.31,0-6.85-6.2-6.85-6.2l15.97.05s1.02-5.01,1.02-7.06c0-5.1-2.78-11.36-11.28-11.36-7.78,0-13.55,8.39-13.55,17.86ZM112.84,70.09c4.37,0,3.56,4.91,3.56,5.31h-8.59c0-.51.81-5.31,5.03-5.31Z"/>
          <path id="path13808" class="cls-5" d="M161.85,93.57l1.39-8.44s-3.8,1.9-6.41,1.9c-5.49,0-7.69-4.19-7.69-8.7,0-9.14,4.72-14.16,9.98-14.16,3.94,0,7.11,2.21,7.11,2.21l1.26-8.2s-3.74-2.7-7.76-2.71c-12.1-.05-19.02,8.37-19.02,22.94,0,9.65,5.13,16.22,14.36,16.22,2.61,0,6.77-1.06,6.77-1.06Z"/>
          <path id="path13810" class="cls-5" d="M54.25,63.28c-5.31,0-9.38,1.71-9.38,1.71l-1.12,6.67s3.36-1.36,8.43-1.36c2.88,0,4.99.32,4.99,2.67,0,1.42-.26,1.95-.26,1.95,0,0-2.27-.19-3.33-.19-7.56,0-13.72,2.86-13.72,11.47,0,6.79,4.61,8.34,7.47,8.34,5.46,0,7.62-3.45,7.75-3.46l-.06,2.86h6.82l3.04-21.31c0-9.05-7.89-9.34-10.63-9.34ZM55.43,80.59c.15,1.3-.34,7.45-5,7.45-2.4,0-3.03-1.84-3.03-2.92,0-2.12,1.15-4.66,6.82-4.66,1.32,0,.98.1,1.2.13Z"/>
          <path id="path13812" class="cls-5" d="M72.12,94.37c1.74,0,11.71.44,11.71-9.84,0-9.62-9.22-7.72-9.22-11.58,0-1.92,1.5-2.53,4.25-2.53,1.09,0,5.29.35,5.29.35l.98-6.83s-2.72-.61-7.14-.61c-5.73,0-11.54,2.29-11.54,10.11,0,8.86,9.69,7.97,9.69,11.71,0,2.49-2.71,2.7-4.79,2.7-3.61,0-6.86-1.24-6.87-1.18l-1.03,6.76c.19.06,2.19.95,8.69.95Z"/>
          <path id="path13814" class="cls-5" d="M225.7,57.08l-1.4,10.43s-2.91-4.02-7.48-4.02c-8.58,0-13,8.55-13,18.37,0,6.34,3.15,12.56,9.6,12.56,4.64,0,7.21-3.23,7.21-3.23l-.34,2.76h7.53l5.91-36.81-8.03-.06ZM222.37,77.35c0,4.09-2.02,9.55-6.22,9.55-2.79,0-4.09-2.34-4.09-6.01,0-6,2.7-9.96,6.1-9.96,2.78,0,4.21,1.91,4.21,6.42Z"/>
          <path id="path13816" class="cls-5" d="M12.34,93.98l4.71-27.79.69,27.79h5.33l9.95-27.79-4.41,27.79h7.92l6.1-36.86-12.59-.1-7.49,22.57-.21-22.47h-11.54l-6.19,36.86h7.7Z"/>
          <path id="path13818" class="cls-5" d="M131.59,94.03c2.25-12.81,3.06-22.93,9.63-20.83.94-4.96,3.19-9.27,4.22-11.37,0,0-.32-.48-2.36-.48-3.47,0-8.09,7.03-8.09,7.03l.69-4.35h-7.21l-4.83,30h7.95Z"/>
          <g id="use14699">
            <path id="path13810-2" data-name="path13810" class="cls-5" d="M178.07,63.28c-5.31,0-9.38,1.71-9.38,1.71l-1.12,6.67s3.36-1.36,8.43-1.36c2.88,0,4.99.32,4.99,2.67,0,1.42-.26,1.95-.26,1.95,0,0-2.27-.19-3.33-.19-7.56,0-13.72,2.86-13.72,11.47,0,6.79,4.61,8.34,7.47,8.34,5.46,0,7.62-3.45,7.75-3.46l-.06,2.86h6.82l3.04-21.31c0-9.05-7.89-9.34-10.63-9.34ZM179.24,80.59c.15,1.3-.34,7.45-5,7.45-2.41,0-3.03-1.84-3.03-2.92,0-2.12,1.15-4.66,6.82-4.66,1.32,0,.98.1,1.21.13Z"/>
          </g>
          <path id="use14701" class="cls-5" d="M196.54,94.03c1.24-9.43,3.53-22.66,9.62-20.83.94-4.96.03-4.95-2-4.95-3.47,0-4.24.13-4.24.13l.69-4.35h-7.21l-4.83,30h7.95Z"/>
        </g>
        <g id="g10289">
          <path id="path4157" class="cls-3" d="M98.83,91.22l.97-6.58c-.53,0-1.31.23-1.99.23-2.69,0-2.99-1.43-2.82-2.49l2.18-13.42h4.09l.99-7.28h-3.86l.79-4.53h-7.74c-.17.17-4.57,25.45-4.57,28.53,0,4.56,2.56,6.59,6.17,6.55,2.83-.02,5.03-.81,5.8-1.01Z"/>
          <path id="path4155" class="cls-3" d="M101.29,78.68c0,10.94,7.22,13.54,13.37,13.54,5.68,0,8.18-1.27,8.18-1.27l1.36-7.47s-4.32,1.9-8.22,1.9c-8.31,0-6.86-6.2-6.86-6.2h15.73s1.02-5.02,1.02-7.06c0-5.1-2.54-11.31-11.04-11.31-7.78,0-13.54,8.39-13.54,17.86ZM114.86,67.75c4.37,0,3.56,4.91,3.56,5.31h-8.59c0-.51.81-5.31,5.03-5.31Z"/>
          <path id="path4151" class="cls-3" d="M163.87,91.22l1.38-8.44s-3.8,1.9-6.4,1.9c-5.49,0-7.69-4.19-7.69-8.7,0-9.14,4.72-14.16,9.98-14.16,3.94,0,7.11,2.21,7.11,2.21l1.26-8.2s-4.69-1.9-8.72-1.9c-8.94,0-17.63,7.75-17.63,22.31,0,9.65,4.69,16.03,13.93,16.03,2.61,0,6.77-1.06,6.77-1.06Z"/>
          <path id="path4149" class="cls-3" d="M56.27,60.93c-5.31,0-9.38,1.71-9.38,1.71l-1.12,6.67s3.36-1.36,8.43-1.36c2.88,0,4.99.32,4.99,2.67,0,1.42-.26,1.95-.26,1.95,0,0-2.27-.19-3.33-.19-6.69,0-13.73,2.86-13.73,11.47,0,6.79,4.61,8.34,7.47,8.34,5.46,0,7.81-3.54,7.94-3.55l-.26,2.96h6.82l3.04-21.32c0-9.04-7.89-9.33-10.63-9.33ZM57.92,78.29c.15,1.3-.82,7.41-5.48,7.41-2.4,0-3.03-1.84-3.03-2.92,0-2.12,1.15-4.66,6.82-4.66,1.32,0,1.46.14,1.68.18Z"/>
          <path id="path4145" class="cls-3" d="M74.14,92.02c1.74,0,11.71.44,11.71-9.84,0-9.61-9.23-7.72-9.23-11.58,0-1.92,1.5-2.53,4.25-2.53,1.09,0,5.29.35,5.29.35l.98-6.83s-2.72-.61-7.14-.61c-5.73,0-11.54,2.29-11.54,10.11,0,8.86,9.69,7.97,9.69,11.71,0,2.49-2.71,2.69-4.79,2.69-3.61,0-6.86-1.24-6.87-1.18l-1.03,6.77c.19.06,2.19.95,8.69.95Z"/>
          <path id="path4139" class="cls-3" d="M227.99,54.8l-1.67,10.36s-2.91-4.02-7.47-4.02c-7.09,0-13,8.55-13,18.38,0,6.34,3.15,12.56,9.6,12.56,4.64,0,7.21-3.23,7.21-3.23l-.34,2.76h7.53l5.91-36.81h-7.76ZM224.39,75c0,4.09-2.02,9.55-6.22,9.55-2.79,0-4.09-2.34-4.09-6.01,0-6,2.7-9.96,6.1-9.96,2.79,0,4.22,1.91,4.22,6.42Z"/>
          <path id="path4133" class="cls-3" d="M14.36,91.63l4.71-27.79.69,27.79h5.33l9.95-27.79-4.41,27.79h7.92l6.1-36.86h-12.25l-7.63,22.61-.4-22.61h-11.29l-6.19,36.86s7.46,0,7.46,0Z"/>
          <path id="path4131" class="cls-3" d="M133.61,91.68c2.25-12.81,2.67-23.21,8.05-21.31.94-4.96,1.85-6.88,2.88-8.98,0,0-.48-.1-1.49-.1-3.47,0-6.03,4.74-6.03,4.74l.69-4.35h-7.21l-4.83,30h7.95Z"/>
          <g id="use8523">
            <path id="path4149-2" data-name="path4149" class="cls-3" d="M181.73,60.93c-5.31,0-9.38,1.71-9.38,1.71l-1.12,6.67s3.36-1.36,8.43-1.36c2.88,0,4.99.32,4.99,2.67,0,1.42-.26,1.95-.26,1.95,0,0-2.27-.19-3.33-.19-6.69,0-13.72,2.86-13.72,11.47,0,6.79,4.61,8.34,7.47,8.34,5.46,0,7.81-3.54,7.94-3.55l-.25,2.96h6.82l3.04-21.32c0-9.04-7.89-9.33-10.63-9.33ZM183.39,78.29c.15,1.3-.82,7.41-5.48,7.41-2.4,0-3.03-1.84-3.03-2.92,0-2.12,1.15-4.66,6.82-4.66,1.32,0,1.46.14,1.68.18Z"/>
          </g>
          <g id="use8525">
            <path id="path4131-2" data-name="path4131" class="cls-3" d="M198.59,91.68c2.25-12.81,2.67-23.21,8.05-21.31.94-4.96,1.85-6.88,2.88-8.98,0,0-.48-.1-1.49-.1-3.47,0-6.03,4.74-6.03,4.74l.69-4.35h-7.21l-4.83,30h7.95Z"/>
          </g>
          <path id="text9407" class="cls-3" d="M235.58,87.05c.39,0,.78.1,1.15.31.38.2.67.49.88.87.21.38.31.77.31,1.18s-.1.79-.31,1.17c-.21.37-.5.67-.87.87-.37.21-.76.31-1.17.31s-.8-.1-1.17-.31c-.37-.21-.66-.5-.87-.87-.21-.37-.31-.76-.31-1.17s.1-.8.32-1.18c.21-.38.51-.67.88-.87.38-.21.77-.31,1.16-.31M235.58,87.44c-.33,0-.65.09-.96.26-.31.17-.56.41-.73.73-.18.31-.26.64-.26.98s.09.66.26.97c.17.31.42.55.73.73.31.17.63.26.97.26s.66-.09.97-.26c.31-.17.55-.42.73-.73.17-.31.26-.64.26-.97s-.09-.67-.26-.98c-.17-.32-.42-.56-.73-.73-.31-.17-.63-.26-.96-.26M234.55,90.7v-2.53h.87c.3,0,.51.02.64.07.13.05.24.13.32.24.08.12.12.24.12.37,0,.18-.07.35-.2.48-.13.14-.3.21-.52.23.09.04.16.08.21.13.1.1.23.27.37.5l.31.5h-.5l-.22-.4c-.18-.31-.32-.51-.43-.59-.07-.06-.18-.09-.33-.09h-.24v1.08h-.41M234.96,89.28h.5c.24,0,.4-.04.48-.11.09-.07.13-.16.13-.28,0-.07-.02-.14-.06-.2-.04-.06-.1-.1-.17-.13-.07-.03-.21-.04-.41-.04h-.46v.76"/>
        </g>
      </g>
    </g>
  </g>
</svg>