<svg height="512" viewBox="0 0 152 152" width="512" xmlns="http://www.w3.org/2000/svg"><g id="Layer_2" data-name="Layer 2"><g id="Color"><g id="_38.Messenger" data-name="38.Messenger"><circle id="Background" cx="76" cy="76" fill="#0082ff" r="76"/><path id="Icon" d="m76 36c-22.09 0-40 16.6-40 37.08a36.05 36.05 0 0 0 14.9 28.92l.16 13.07a.93.93 0 0 0 1.39.79l12.49-7.09a42.72 42.72 0 0 0 11.06 1.42c22.09 0 40-16.6 40-37.08s-17.91-37.11-40-37.11zm3 49-8.55-8.9a1.62 1.62 0 0 0 -1.93-.3l-15 8.08a.58.58 0 0 1 -.69-.9l17.77-18.73a1.28 1.28 0 0 1 1.87 0l8.53 9.07a1.61 1.61 0 0 0 1.94.31l14.75-8a.57.57 0 0 1 .69.9l-17.48 18.52a1.28 1.28 0 0 1 -1.9.01z" fill="#fff"/></g></g></g></svg>