<?xml version="1.0" encoding="UTF-8"?>
<svg id="Layer_2" data-name="Layer 2" xmlns="http://www.w3.org/2000/svg" xmlns:xlink="http://www.w3.org/1999/xlink" viewBox="0 0 220.22 215.53">
  <defs>
    <style>
      .cls-1 {
        fill: url(#linear-gradient-4);
      }

      .cls-2 {
        fill: url(#linear-gradient-3);
      }

      .cls-3 {
        fill: url(#linear-gradient-2);
      }

      .cls-4 {
        fill: url(#linear-gradient);
      }
    </style>
    <linearGradient id="linear-gradient" x1="28.93" y1="633.53" x2="155.46" y2="633.53" gradientTransform="translate(0 -578)" gradientUnits="userSpaceOnUse">
      <stop offset="0" stop-color="#f28920"/>
      <stop offset=".86" stop-color="#ed463c"/>
    </linearGradient>
    <linearGradient id="linear-gradient-2" x1="150.96" y1="608.78" x2="164.85" y2="718.81" xlink:href="#linear-gradient"/>
    <linearGradient id="linear-gradient-3" x1="48.88" y1="751.68" x2="64.73" y2="673.53" xlink:href="#linear-gradient"/>
    <linearGradient id="linear-gradient-4" x1="138.2" y1="723.75" x2="145.24" y2="779.51" xlink:href="#linear-gradient"/>
  </defs>
  <g id="Layer_1-2" data-name="Layer 1">
    <g>
      <path class="cls-4" d="M155.34,28.57C148.01,16.04,132.44.02,110.66.02,43.75.81-3.42,55.08.19,108.57v-1.92c0-21.33,17.94-37.57,29.11-43.89,8.35-4.63,20.99-8.35,39.72-9.82,13.31-1.02,44.34,2.82,44.34,2.82,6.66-.11,50.21,7.56,49.65,55.29,7.45-44.12-.23-69.96-7.67-82.48Z"/>
      <path class="cls-3" d="M110.66.13c21.78,0,37.24,16.02,44.68,28.55,7.33,12.52,15.01,38.25,7.67,82.14,0,.11-.11.79-.11.9-1.47,18.73-13.2,32.83-22.68,38.82-1.92,1.02-12.98,9.48-33.17,8.91,44.91,7.22,71.31.34,84.06-6.88s29.11-22.45,29.11-43.89C219.32,43.46,164.82-2.8,110.66.13Z"/>
      <path class="cls-2" d="M60.9,186.99c-2.26-3.27-3.05-8.12-3.27-11.06-.23-1.02-.34-1.92-.34-2.82v-65.67c0-.79.11-2.93.11-3.16,0-.45.23-2.82.23-2.93,1.13-9.59,4.96-18.39,10.72-25.73.23-.23.45-.56.68-.79l.34-.34c3.5-4.17,7.33-7.56,10.83-9.7h.11c1.13-.79,2.26-1.47,3.5-2.14,4.96-2.93,14.89-7.33,29.56-6.88-44.91-7.22-71.31-.11-84.06,7.11C16.44,70.09.19,85.32.19,106.76c.79,62.74,51.34,107.76,103.36,108.55-19.52-2.37-35.88-16.81-42.65-28.32Z"/>
      <path class="cls-1" d="M191.11,152.46c-12.75,7.22-39.15,14.22-84.06,6.88h.23c-1.47-.11-2.82-.23-4.29-.34-13.99-.9-30.58-2.71-45.7,14.22,0,.34.11,8.8,3.5,13.77,7.33,12.52,26.18,28.55,47.95,28.55,62.51-.79,107.87-48.18,110.46-98.05-3.61,16.7-17.15,28.77-28.1,34.98Z"/>
    </g>
  </g>
</svg>