<svg xmlns="http://www.w3.org/2000/svg" xmlns:xlink="http://www.w3.org/1999/xlink" width="500" zoomAndPan="magnify" viewBox="0 0 375 374.999991" height="500" preserveAspectRatio="xMidYMid meet" version="1.2"><defs><clipPath id="fdd4a35c5a"><path d="M 187.5 0 C 83.945312 0 0 83.945312 0 187.5 C 0 291.054688 83.945312 375 187.5 375 C 291.054688 375 375 291.054688 375 187.5 C 375 83.945312 291.054688 0 187.5 0 Z M 187.5 0 "/></clipPath><clipPath id="633b24b392"><path d="M 187.5 0 C 83.945312 0 0 83.945312 0 187.5 C 0 291.054688 83.945312 375 187.5 375 C 291.054688 375 375 291.054688 375 187.5 C 375 83.945312 291.054688 0 187.5 0 Z M 187.5 0 "/></clipPath><clipPath id="89d52f9989"><rect x="0" width="375" y="0" height="375"/></clipPath></defs><g id="9bee752ebf"><g clip-rule="nonzero" clip-path="url(#fdd4a35c5a)"><g transform="matrix(1,0,0,1,0,0)"><g clip-path="url(#89d52f9989)"><g clip-rule="nonzero" clip-path="url(#633b24b392)"><rect x="0" width="375" height="375" y="0" style="fill:#ffffff;fill-opacity:1;stroke:none;"/></g></g></g></g><path style=" stroke:none;fill-rule:evenodd;fill:#fcdb35;fill-opacity:1;" d="M 115.363281 48.625 C 151.929688 48.625 181.570312 74.828125 181.570312 107.144531 C 181.570312 139.464844 151.929688 165.664062 115.363281 165.664062 C 108.089844 165.664062 101.09375 164.625 94.546875 162.710938 L 64.800781 187 L 72.136719 151.46875 C 58.0625 140.738281 49.15625 124.863281 49.15625 107.144531 C 49.15625 74.824219 78.796875 48.625 115.363281 48.625 Z M 115.363281 48.625 "/><path style=" stroke:none;fill-rule:evenodd;fill:#ffeb87;fill-opacity:1;" d="M 115.363281 48.625 C 151.929688 48.625 181.570312 74.824219 181.570312 107.144531 C 181.570312 129.21875 167.742188 148.433594 147.328125 158.402344 C 140.464844 160.527344 133.089844 161.691406 125.402344 161.691406 C 118.496094 161.691406 106.863281 159.972656 101.089844 157.445312 L 75.816406 178.046875 L 82.132812 147.460938 C 68.085938 136.730469 59.195312 120.867188 59.195312 103.171875 C 59.195312 81.097656 73.023438 61.882812 93.4375 51.914062 C 100.300781 49.785156 107.679688 48.625 115.363281 48.625 Z M 115.363281 48.625 "/><path style=" stroke:none;fill-rule:evenodd;fill:#f23353;fill-opacity:1;" d="M 85.835938 87.527344 C 78.796875 94.5625 78.796875 106.082031 85.835938 113.117188 L 115.363281 142.644531 L 144.890625 113.117188 C 151.925781 106.082031 151.925781 94.5625 144.890625 87.527344 C 137.851562 80.488281 126.335938 80.488281 119.296875 87.527344 L 115.363281 91.460938 L 111.425781 87.527344 C 104.390625 80.488281 92.875 80.488281 85.835938 87.527344 Z M 85.835938 87.527344 "/><path style=" stroke:none;fill-rule:evenodd;fill:#ff5471;fill-opacity:1;" d="M 119.226562 138.78125 L 144.890625 113.117188 C 151.925781 106.082031 151.925781 94.5625 144.890625 87.527344 C 137.851562 80.488281 126.335938 80.488281 119.296875 87.527344 L 115.363281 91.460938 L 111.429688 87.527344 C 107.105469 83.203125 101.089844 81.535156 95.464844 82.527344 C 94.054688 83.316406 92.734375 84.304688 91.539062 85.5 C 84.5 92.535156 84.5 104.050781 91.539062 111.089844 Z M 119.226562 138.78125 "/><path style=" stroke:none;fill-rule:nonzero;fill:#85caff;fill-opacity:1;" d="M 261.644531 165.625 L 292.164062 165.625 L 292.164062 300.050781 L 261.644531 300.050781 Z M 261.644531 165.625 "/><path style=" stroke:none;fill-rule:nonzero;fill:#ff5471;fill-opacity:1;" d="M 110.707031 241.902344 L 141.226562 241.902344 L 141.226562 300.050781 L 110.707031 300.050781 Z M 110.707031 241.902344 "/><path style=" stroke:none;fill-rule:nonzero;fill:#fcdb35;fill-opacity:1;" d="M 161.019531 222.570312 L 191.539062 222.570312 L 191.539062 300.050781 L 161.019531 300.050781 Z M 161.019531 222.570312 "/><path style=" stroke:none;fill-rule:nonzero;fill:#f23353;fill-opacity:1;" d="M 134.179688 241.902344 L 141.226562 241.902344 L 141.226562 300.050781 L 134.179688 300.050781 Z M 134.179688 241.902344 "/><path style=" stroke:none;fill-rule:nonzero;fill:#fdc72e;fill-opacity:1;" d="M 184.492188 222.570312 L 191.539062 222.570312 L 191.539062 300.050781 L 184.492188 300.050781 Z M 184.492188 222.570312 "/><path style=" stroke:none;fill-rule:nonzero;fill:#43f043;fill-opacity:1;" d="M 211.332031 196.917969 L 241.851562 196.917969 L 241.851562 300.050781 L 211.332031 300.050781 Z M 211.332031 196.917969 "/><path style=" stroke:none;fill-rule:nonzero;fill:#2dd62d;fill-opacity:1;" d="M 234.804688 196.917969 L 241.851562 196.917969 L 241.851562 300.050781 L 234.804688 300.050781 Z M 234.804688 196.917969 "/><path style=" stroke:none;fill-rule:nonzero;fill:#4eb1fc;fill-opacity:1;" d="M 285.117188 165.625 L 292.164062 165.625 L 292.164062 300.050781 L 285.117188 300.050781 Z M 285.117188 165.625 "/><path style=" stroke:none;fill-rule:nonzero;fill:#c2a9a1;fill-opacity:1;" d="M 86.5625 300.105469 L 316.175781 300.105469 L 316.175781 311.839844 L 86.5625 311.839844 Z M 86.5625 300.105469 "/><path style=" stroke:none;fill-rule:evenodd;fill:#fdc72e;fill-opacity:1;" d="M 277.25 127.011719 C 248.464844 167.675781 185.761719 210.394531 110.160156 192.941406 C 182.042969 186.53125 230.789062 147.3125 254.730469 112.523438 L 244.539062 105.964844 C 243.816406 105.496094 243.433594 104.726562 243.507812 103.867188 C 243.578125 103.007812 244.082031 102.3125 244.875 101.972656 L 287.925781 83.578125 C 288.632812 83.273438 289.382812 83.335938 290.03125 83.75 C 290.683594 84.164062 291.054688 84.8125 291.082031 85.582031 L 292.707031 132.730469 C 292.738281 133.59375 292.316406 134.351562 291.5625 134.777344 C 290.808594 135.207031 289.945312 135.183594 289.214844 134.714844 Z M 277.25 127.011719 "/><path style=" stroke:none;fill-rule:evenodd;fill:#fcdb35;fill-opacity:1;" d="M 110.160156 192.941406 C 182.042969 186.53125 230.789062 147.3125 254.730469 112.523438 L 246.238281 107.054688 C 246.238281 107.054688 244.523438 105.953125 244.523438 105.953125 C 243.808594 105.488281 243.433594 104.71875 243.507812 103.867188 C 243.578125 103.011719 244.082031 102.3125 244.875 101.972656 L 285.199219 84.742188 L 286.722656 128.878906 C 286.753906 129.742188 286.328125 130.5 285.578125 130.929688 C 284.824219 131.355469 283.957031 131.332031 283.230469 130.863281 L 277.246094 127.011719 L 271.265625 123.164062 C 242.480469 163.824219 185.761719 210.394531 110.160156 192.941406 Z M 110.160156 192.941406 "/></g></svg>