<?xml version="1.0" encoding="UTF-8"?>
<svg id="Layer_2" data-name="Layer 2" xmlns="http://www.w3.org/2000/svg" viewBox="0 0 213 213">
  <defs>
    <style>
      .cls-1 {
        fill: #fff;
      }

      .cls-2 {
        fill: #4598d8;
      }
    </style>
  </defs>
  <g id="Layer_1-2" data-name="Layer 1">
    <g id="Payeer">
      <g id="Payeer_2" data-name="Payeer 2">
        <path id="Rectangle" class="cls-2" d="M106.5,0h0c58.82,0,106.5,47.68,106.5,106.5h0c0,58.82-47.68,106.5-106.5,106.5h0C47.68,213,0,165.32,0,106.5h0C0,47.68,47.68,0,106.5,0Z"/>
        <g id="Group">
          <path id="Vector_3" data-name="Vector 3" class="cls-1" d="M161.16,81.47c0,14.32-4.49,25.28-13.44,32.87-8.95,7.59-21.69,11.39-38.2,11.39h-12.14v47.33h-28.22V39.94h42.55c16.14,0,28.42,3.47,36.83,10.43,8.41,6.96,12.62,17.33,12.62,31.11ZM97.39,102.58h9.29c8.67,0,15.18-1.7,19.5-5.14,4.32-3.44,6.45-8.41,6.45-14.97s-1.82-11.51-5.43-14.66c-3.61-3.15-9.27-4.74-17-4.74h-12.82v39.52Z"/>
        </g>
      </g>
    </g>
  </g>
</svg>