<?xml version="1.0" encoding="UTF-8"?>
<svg id="Layer_2" data-name="Layer 2" xmlns="http://www.w3.org/2000/svg" xmlns:xlink="http://www.w3.org/1999/xlink" viewBox="0 0 181.96 175.56">
  <defs>
    <style>
      .cls-1 {
        fill: #010101;
      }

      .cls-2 {
        fill: url(#linear-gradient-3);
      }

      .cls-3 {
        fill: url(#linear-gradient-2);
      }

      .cls-4 {
        fill: url(#linear-gradient);
      }
    </style>
    <linearGradient id="linear-gradient" x1="80.11" y1="158.92" x2="62.01" y2="331.81" gradientUnits="userSpaceOnUse">
      <stop offset=".02" stop-color="#ec1c24"/>
      <stop offset="1" stop-color="#be1e2d"/>
    </linearGradient>
    <linearGradient id="linear-gradient-2" x1="57.14" y1="139.54" x2="57.14" y2="164.06" xlink:href="#linear-gradient"/>
    <linearGradient id="linear-gradient-3" x1="17.51" y1="135.17" x2="17.51" y2="167.33" xlink:href="#linear-gradient"/>
  </defs>
  <g id="Layer_1-2" data-name="Layer 1">
    <g>
      <path class="cls-4" d="M130.39,81.66c-4.19,2.54-8.83,4.71-13.87,6.48-4.56,1.87-10.18,3.33-16.38,4.1-2.39.4-4.82.73-7.3.98h-.04s-.04,0-.04,0c-22.97,1.96-42.58-2.98-53.79-13.53-.1-.07-.18-.2-.28-.27-.02.41-.05.83-.07,1.26-.05,4.8,1.95,9.25,4.93,12.76,9.1,10.45,26.62,16.14,46.97,16.46,13.56.09,25.93-2.46,35.4-7.02,4.72-2.31,8.77-5.12,11.85-8.63,3.05-3.48,5.11-7.88,5.15-12.69.03-3.01-.75-5.89-2.06-8.48-2.78,3.13-6.24,5.95-10.46,8.59ZM90.35,67.22c-21.47,1.64-39.96-2.37-51.45-11.53.27,4.34,2.15,8.34,4.88,11.57,9.1,10.46,26.62,16.13,46.97,16.46,13.56.09,25.92-2.46,35.39-7.03,4.72-2.29,8.79-5.1,11.85-8.63,3.02-3.48,5.11-7.87,5.13-12.68.05-3.75-1.16-7.25-3.1-10.29-3.02,3.92-15.67,19.54-49.67,22.14ZM90.97,57.55c13.57.08,25.93-2.47,35.38-7.03,4.72-2.31,8.79-5.11,11.87-8.64,3.05-3.47,5.11-7.87,5.13-12.67.05-4.82-1.92-9.23-4.91-12.76C129.32,5.99,111.82.33,91.46,0c-13.57-.1-25.93,2.44-35.38,7-4.74,2.33-8.79,5.13-11.87,8.64-3.05,3.48-5.1,7.87-5.16,12.68-.04,4.8,1.96,9.24,4.95,12.77,9.08,10.46,26.63,16.13,46.97,16.47ZM51.34,18.05c4.94-6.03,20.32-11.92,38.29-11.61,12.02.07,22.8,2.63,30.08,6.36,3.67,1.83,6.39,3.92,8.02,5.9,1.66,1.99,2.19,3.61,2.19,5.12-.01,1.52-.6,3.13-2.26,5.09-4.93,6.04-20.31,11.92-38.3,11.62-12.01-.09-22.79-2.65-30.06-6.35-3.65-1.84-6.39-3.96-8.03-5.9-1.64-2.01-2.18-3.62-2.18-5.15.02-1.52.59-3.12,2.27-5.08Z"/>
      <g>
        <path class="cls-3" d="M54.46,139.1c-1.41-1.62-3.39-2.43-5.97-2.43h-11.74l-.88,4.44h11.74c1.25,0,2.21.43,2.89,1.29.68.85.9,1.91.67,3.16l-.17.76-.06.52h-10.87c-2.57,0-4.9.84-6.99,2.52-2.08,1.67-3.38,3.8-3.89,6.37l-.12.47c-.54,2.57-.13,4.69,1.26,6.37,1.38,1.68,3.36,2.51,5.94,2.51h15.38l4.15-19.76c.51-2.53.06-4.61-1.34-6.23ZM48.08,160.65h-10.88c-1.25,0-2.23-.43-2.95-1.29-.72-.86-.94-1.91-.67-3.16l.12-.47c.24-1.25.89-2.3,1.96-3.16,1.07-.86,2.23-1.29,3.48-1.29h10.82l-1.87,9.36ZM80.87,136.68l-4.97,23.92h-11.23c-1.25,0-2.24-.43-2.96-1.29-.72-.85-.94-1.91-.67-3.16l4.03-19.48h-4.5l-4.03,19.48c-.55,2.57-.11,4.69,1.29,6.37,1.4,1.67,3.39,2.52,5.96,2.52h11.29l-.35,1.63c-.27,1.21-.95,2.26-2.02,3.13-1.07.88-2.21,1.32-3.43,1.32h-15.38l-.93,4.44h15.38c2.5,0,4.8-.85,6.9-2.57,2.11-1.71,3.43-3.82,3.98-6.32l6.2-30h-4.56Z"/>
        <path class="cls-1" d="M128.12,165.09h-15.38c-2.57,0-4.55-.83-5.94-2.51-1.38-1.68-1.8-3.8-1.25-6.37l.11-.47c.51-2.58,1.8-4.7,3.89-6.37,2.08-1.67,4.41-2.52,6.99-2.52h10.88l.06-.52.18-.76c.23-1.24,0-2.3-.67-3.16-.68-.85-1.65-1.29-2.89-1.29h-12.65l.88-4.44h12.66c2.57,0,4.56.81,5.96,2.43,1.4,1.62,1.85,3.69,1.34,6.23l-4.15,19.76ZM124.55,160.65l1.87-9.36h-10.82c-1.25,0-2.4.43-3.48,1.29s-1.72,1.91-1.96,3.16l-.12.47c-.28,1.24-.05,2.3.67,3.16.72.85,1.71,1.29,2.95,1.29h10.88Z"/>
        <path class="cls-1" d="M157.61,157.49c-.51,2.45-1.81,4.39-3.91,5.79-1.91,1.29-4.13,1.93-6.67,1.93h-15.2l.94-4.44h15.2c3,0,4.72-1.09,5.15-3.27l.24-1.05c.47-2.18-.8-3.28-3.8-3.28h-6.84c-2.54,0-4.48-.64-5.85-1.93-1.56-1.4-2.08-3.33-1.58-5.79l.24-1.05c.5-2.46,1.81-4.39,3.92-5.79,1.91-1.29,4.13-1.93,6.67-1.93h15.26l-.88,4.44h-15.26c-3,0-4.74,1.09-5.21,3.28l-.23,1.05c-.43,2.18.86,3.27,3.86,3.27h6.84c2.54,0,4.48.65,5.85,1.93,1.52,1.4,2.03,3.33,1.52,5.79l-.23,1.05Z"/>
        <path class="cls-1" d="M178.16,165.04h-7.13c-2.57,0-4.56-.84-5.97-2.52-1.4-1.68-1.83-3.8-1.28-6.37l3.16-15.27h-2.81l.99-4.56h2.81l2.11-10.18h4.56l-2.1,10.18h9.47l-.99,4.56h-9.48l-3.16,15.27c-.27,1.25-.06,2.3.65,3.16.7.86,1.68,1.29,2.93,1.29h7.14l-.88,4.45Z"/>
        <path class="cls-2" d="M34.02,139.26c-.5,2.46-1.8,4.54-3.89,6.23-2.1,1.69-4.37,2.53-6.83,2.53H7.96l-3.52,17.07H0l8.02-38.52h19.78c2.46,0,4.37.85,5.74,2.54,1.36,1.7,1.79,3.77,1.3,6.23l-.81,3.92ZM29.58,139.26l.81-3.92c.27-1.23.06-2.27-.63-3.11-.69-.84-1.65-1.26-2.88-1.26h-15.34l-2.65,12.68h15.34c1.23,0,2.36-.42,3.4-1.27,1.04-.85,1.69-1.88,1.96-3.12Z"/>
        <path d="M120.31,130.61h-18.63c-1.25,0-2.41.43-3.49,1.29-1.08.86-1.75,1.92-2.03,3.17l-1.74,8.51h11.62l-.94,4.52h-11.57l-3.59,17.06h-4.52l6.22-30.09c.54-2.58,1.87-4.71,3.96-6.39,2.09-1.68,4.43-2.52,7.01-2.52h18.63l-.94,4.46Z"/>
      </g>
    </g>
  </g>
</svg>