<?xml version="1.0" encoding="UTF-8"?>
<svg id="Layer_2" data-name="Layer 2" xmlns="http://www.w3.org/2000/svg" viewBox="0 0 221.32 57.54">
  <defs>
    <style>
      .cls-1 {
        fill: #1c51fb;
        fill-rule: evenodd;
      }
    </style>
  </defs>
  <g id="Layer_1-2" data-name="Layer 1">
    <g>
      <path class="cls-1" d="M120.1,1.04v18.99c0,2.06-.44,4.1-1.29,5.97-.74,1.72-1.94,3.19-3.46,4.26-1.58,1.02-3.42,1.54-5.29,1.49-3.21,0-5.57-1.04-7.16-3.04-1.59-2-2.49-4.76-2.49-8.15V1.04h-8.49v19.9c-.07,3.39.54,6.77,1.82,9.91,1.23,2.76,3.22,5.1,5.74,6.71,2.92,1.72,6.26,2.57,9.64,2.45,2.52.08,5.02-.53,7.24-1.75,1.47-.88,2.74-2.05,3.76-3.45v1.19c.05,2.37-.39,4.73-1.3,6.92-.76,1.93-2.06,3.59-3.75,4.76-1.83,1.21-3.99,1.81-6.17,1.72-2.21.05-4.39-.49-6.33-1.57-1.83-1.04-3.33-2.59-4.33-4.48l-.27-.54-7.15,3.95.25.51c1.57,3.28,4.11,5.97,7.26,7.7,3.32,1.74,7.02,2.62,10.75,2.56,3.67.1,7.3-.86,10.46-2.77,2.96-1.81,5.33-4.49,6.79-7.68,1.65-3.49,2.46-7.32,2.37-11.19V1.04h-8.59Z"/>
      <path class="cls-1" d="M83.09,9.93c-1.71-3-4.18-5.47-7.15-7.17C71.3.05,65.8-.7,60.62.68c-5.18,1.38-9.61,4.77-12.36,9.45-1.75,3.03-2.65,6.49-2.61,10-.04,3.55.81,7.05,2.46,10.18.8,1.49,1.78,2.87,2.93,4.1,1.13,1.21,2.4,2.28,3.78,3.19,2.93,1.85,6.32,2.82,9.77,2.78,3.04.08,6.04-.69,8.68-2.24,1.67-1.02,3.15-2.34,4.36-3.9v6.14h8.16v-20.14c.05-3.61-.88-7.16-2.69-10.26v-.05ZM75.73,26.21c-1.57,2.71-4.12,4.68-7.1,5.48-2.98.8-6.16.37-8.83-1.2-1.7-1.07-3.12-2.54-4.14-4.28-.99-1.81-1.49-3.86-1.46-5.93-.03-2.09.47-4.14,1.46-5.97,1-1.75,2.42-3.23,4.12-4.28,1.77-1.07,3.8-1.64,5.86-1.65,2.06.01,4.08.58,5.86,1.65,1.72,1.03,3.14,2.49,4.13,4.25,1,1.82,1.5,3.88,1.46,5.97.02,2.08-.48,4.14-1.46,5.97h.1Z"/>
      <path class="cls-1" d="M37.48,10.15c-1.71-3.04-4.18-5.56-7.16-7.3C27.22,1,23.68.05,20.09.1c-3.58-.05-7.11.88-10.22,2.69-2.99,1.69-5.48,4.16-7.24,7.15C.86,13.04-.05,16.58,0,20.18v28.11h8.55v-12.61c1.04.96,2.17,1.8,3.38,2.51,1.27.74,2.63,1.29,4.05,1.65,1.44.38,2.91.56,4.39.56,3.56.06,7.06-.84,10.16-2.61,2.93-1.72,5.36-4.22,7.02-7.22,1.72-3.2,2.59-6.8,2.53-10.44.05-3.52-.85-6.98-2.61-10v.04ZM30.03,26.21c-1,1.78-2.42,3.27-4.12,4.35-1.77,1.08-3.8,1.63-5.86,1.6-2.06.02-4.08-.53-5.86-1.6-1.69-1.1-3.1-2.59-4.12-4.35-.99-1.81-1.5-3.85-1.46-5.92-.03-2.06.47-4.1,1.46-5.9,1-1.76,2.42-3.24,4.13-4.28,1.78-1.06,3.8-1.61,5.86-1.6,2.06-.06,4.1.5,5.86,1.6,1.71,1.02,3.13,2.48,4.11,4.23.99,1.82,1.5,3.88,1.46,5.97.03,2.07-.48,4.1-1.46,5.91Z"/>
      <path class="cls-1" d="M218.65,10.15c-1.71-3.04-4.18-5.56-7.16-7.3-3.09-1.85-6.63-2.81-10.22-2.76-3.58-.05-7.11.88-10.22,2.69-2.99,1.69-5.49,4.15-7.24,7.15-1.77,3.11-2.68,6.66-2.61,10.26v28.11h8.55v-12.59c1.04.96,2.18,1.8,3.41,2.51,1.27.73,2.63,1.29,4.05,1.64,1.44.38,2.91.56,4.39.56,3.55.07,7.05-.82,10.14-2.58,2.93-1.72,5.36-4.22,7.02-7.22,1.72-3.2,2.6-6.8,2.56-10.44.01-3.53-.91-6.99-2.66-10.03v.02ZM211.21,26.21c-1,1.78-2.42,3.27-4.13,4.35-1.78,1.05-3.79,1.6-5.84,1.6s-4.07-.55-5.84-1.6c-1.69-1.1-3.11-2.59-4.13-4.35-.99-1.81-1.49-3.85-1.46-5.92-.03-2.06.47-4.1,1.46-5.9,1-1.76,2.42-3.23,4.13-4.28,1.78-1.06,3.8-1.61,5.86-1.6,2.05-.05,4.07.5,5.82,1.6,1.71,1.03,3.14,2.49,4.12,4.25.99,1.82,1.51,3.86,1.51,5.94s-.52,4.12-1.51,5.94v-.03Z"/>
      <path class="cls-1" d="M170.76,34.41c-2.24,2.77-5.16,4.9-8.45,6.18-3.34,1.26-6.97,1.55-10.46.81-3.56-.63-6.88-2.24-9.6-4.66-2.56-2.45-4.52-5.48-5.72-8.84-.75-2.24-1.12-4.6-1.09-6.97l-2.2-.58c-.1-.04-.19-.1-.27-.18-.04-.05-.07-.11-.09-.18-.01-.07,0-.14.01-.2.01-.06.04-.11.07-.16.03-.05.08-.09.13-.12l7.95-4.76c.11-.06.23-.08.35-.05.06.01.11.04.16.07.05.03.09.08.11.13l4.7,8.1v.05c0,.07,0,.15,0,.22-.01.06-.04.11-.07.16-.03.05-.08.09-.13.12-.05.03-.11.05-.17.06-.06,0-.12,0-.18-.01l-1.74-.46s.27,1.19.45,1.78c.68,1.92,1.8,3.66,3.26,5.07,1.55,1.39,3.46,2.3,5.49,2.66,2,.43,4.08.26,5.99-.48,1.9-.72,3.57-1.95,4.86-3.55,1.28-1.62,2.14-3.53,2.51-5.58.37-2.04.23-4.15-.4-6.12-.65-1.92-1.78-3.63-3.28-4.96-1.56-1.35-3.43-2.27-5.45-2.65-2.01-.38-4.09-.22-6.02.48-1.85.72-3.5,1.89-4.8,3.42-.4.49-.77,1-1.1,1.54l-2.46-4.28c-.11-.15-.27-.27-.45-.33-.19-.05-.4-.02-.57.07l-5.24,3.12c.78-2.11,1.9-4.06,3.33-5.78,2.27-2.66,5.14-4.71,8.38-5.97,3.37-1.21,7-1.5,10.51-.82,3.51.67,6.79,2.27,9.5,4.64,1.3,1.17,2.45,2.49,3.43,3.95.98,1.46,1.76,3.06,2.31,4.74,1.16,3.44,1.42,7.12.73,10.69-.57,3.54-2.06,6.86-4.31,9.62Z"/>
    </g>
  </g>
</svg>