<?xml version="1.0" encoding="UTF-8"?>
<svg id="Layer_2" data-name="Layer 2" xmlns="http://www.w3.org/2000/svg" viewBox="0 0 188.85 175.93">
  <defs>
    <style>
      .cls-1 {
        fill: #001c64;
      }

      .cls-2 {
        fill: #003087;
      }

      .cls-3 {
        fill: #0070e0;
      }
    </style>
  </defs>
  <g id="Layer_1-2" data-name="Layer 1">
    <g>
      <path class="cls-2" d="M7.47,125.07c-.55,0-1.02.4-1.1.94L.01,166.29c-.09.56.3,1.09.86,1.18.05,0,.11.01.16.01h7.53c.55,0,1.01-.4,1.1-.94l1.86-11.83c.09-.54.55-.94,1.1-.94h6.85c8,0,14.8-5.84,16.04-13.75,1.25-7.98-4.98-14.94-13.82-14.95H7.47ZM14.79,134.06h5.48c4.51,0,5.98,2.66,5.51,5.61-.46,2.95-2.74,5.12-7.11,5.12h-5.58l1.69-10.73ZM50.84,136.8c-1.9,0-4.09.4-6.55,1.42-5.64,2.35-8.34,7.2-9.49,10.74,0,0-3.66,10.8,4.61,16.73,0,0,7.67,5.71,16.3-.35l-.15.95c-.09.56.3,1.09.86,1.18.05,0,.11.01.16.01h7.15c.55,0,1.01-.4,1.1-.94l4.35-27.59c.09-.56-.3-1.09-.86-1.18-.05,0-.11-.01-.16-.01h-7.15c-.55,0-1.02.4-1.1.94l-.23,1.48h0s-3.12-3.41-8.83-3.39h0ZM51.07,145.51c.82,0,1.57.11,2.25.33,3.08.99,4.84,3.95,4.33,7.17-.62,3.96-3.87,6.87-8.03,6.87-.82,0-1.57-.11-2.25-.33-3.08-.99-4.85-3.95-4.34-7.17.62-3.96,3.88-6.87,8.04-6.87h0Z"/>
      <path class="cls-3" d="M110.45,125.07c-.55,0-1.01.4-1.1.94l-6.35,40.28c-.09.56.3,1.09.86,1.18.05,0,.11.01.16.01h7.53c.55,0,1.01-.4,1.1-.94l1.87-11.83c.09-.54.55-.94,1.1-.94h6.85c8,0,14.8-5.84,16.04-13.75,1.25-7.98-4.98-14.94-13.82-14.95h-14.23ZM117.77,134.06h5.48c4.51,0,5.98,2.66,5.52,5.61-.46,2.95-2.74,5.12-7.11,5.12h-5.58l1.69-10.73ZM153.82,136.8c-1.9,0-4.09.4-6.55,1.42-5.64,2.35-8.34,7.2-9.49,10.74,0,0-3.66,10.8,4.61,16.73,0,0,7.67,5.71,16.3-.35l-.15.95c-.09.56.3,1.09.86,1.18.05,0,.11.01.16.01h7.15c.55,0,1.02-.4,1.1-.94l4.35-27.59c.09-.56-.3-1.09-.86-1.18-.05,0-.11-.01-.16-.01h-7.15c-.55,0-1.02.4-1.1.94l-.23,1.48s-3.12-3.41-8.83-3.39h0ZM154.05,145.51c.82,0,1.57.11,2.25.33,3.08.99,4.83,3.95,4.33,7.17-.62,3.96-3.87,6.87-8.03,6.87-.82,0-1.57-.11-2.25-.33-3.08-.99-4.85-3.95-4.34-7.17.62-3.96,3.88-6.87,8.04-6.87h0Z"/>
      <path class="cls-2" d="M72.56,137.76c-.46,0-.84.37-.84.83,0,.09.01.18.04.26l7.84,24.33-7.09,11.47c-.34.56.06,1.27.71,1.27h8.38c.49,0,.94-.25,1.19-.67l21.89-36.22c.34-.56-.06-1.27-.71-1.27h-8.38c-.49,0-.95.26-1.2.68l-8.62,14.55-4.38-14.44c-.14-.47-.58-.79-1.07-.79h-7.78Z"/>
      <path class="cls-3" d="M180.28,125.07c-.55,0-1.01.4-1.1.94l-6.35,40.28c-.09.56.3,1.09.86,1.18.05,0,.11.01.16.01h7.53c.55,0,1.01-.4,1.1-.94l6.35-40.28c.09-.56-.3-1.09-.86-1.18-.05,0-.11-.01-.16-.01h-7.53Z"/>
      <path class="cls-1" d="M87.23,21.19c-1.5,0-2.78,1.09-3.01,2.58l-5.01,31.78-4.6,29.2v.02s0-.02,0-.02l4.6-29.2c.23-1.48,1.51-2.58,3.01-2.58h14.68c14.77,0,27.32-10.78,29.6-25.39.17-1.09.27-2.19.29-3.29h0s0,0,0,0c-3.75-1.97-8.16-3.1-12.99-3.1h-26.57Z"/>
      <path class="cls-3" d="M126.79,24.28c-.02,1.08-.11,2.18-.29,3.29-2.29,14.61-14.83,25.39-29.6,25.39h-14.68c-1.5,0-2.78,1.09-3.01,2.58l-4.6,29.2-2.89,18.32c-.21,1.35.71,2.62,2.07,2.84.13.02.26.03.38.03h15.93c1.5,0,2.78-1.09,3.02-2.58l4.2-26.62c.23-1.48,1.51-2.58,3.01-2.58h9.38c14.77,0,27.31-10.78,29.6-25.38,1.63-10.37-3.59-19.8-12.52-24.48h0Z"/>
      <path class="cls-2" d="M69.13,0c-1.5,0-2.78,1.09-3.01,2.58l-12.5,79.29c-.21,1.35.71,2.62,2.06,2.84.13.02.26.03.39.03h18.54l4.6-29.2,5.01-31.78c.23-1.48,1.51-2.58,3.01-2.58h26.57c4.83,0,9.24,1.13,13,3.09C127.05,10.98,116.08,0,100.99,0h-31.86Z"/>
    </g>
  </g>
</svg>