<?xml version="1.0" encoding="UTF-8"?>
<svg id="Layer_2" data-name="Layer 2" xmlns="http://www.w3.org/2000/svg" viewBox="0 0 220.93 69.25">
  <defs>
    <style>
      .cls-1 {
        fill: #00baf2;
      }

      .cls-2 {
        fill: #1f336b;
      }
    </style>
  </defs>
  <g id="Layer_1-2" data-name="Layer 1">
    <g>
      <path class="cls-1" d="M220.19,20.42c-2.01-5.73-7.47-9.85-13.89-9.85h-.13c-4.17,0-7.93,1.74-10.61,4.52-2.68-2.79-6.44-4.52-10.61-4.52h-.13c-3.67,0-7.02,1.34-9.6,3.57v-1.13c-.09-1.13-1.01-2.01-2.16-2.01h-9.85c-1.2,0-2.18.97-2.18,2.18v53.47c0,1.21.97,2.18,2.18,2.18h9.85c1.1,0,2-.82,2.14-1.88V28.57c0-.13,0-.26.01-.38.16-1.71,1.41-3.12,3.4-3.3h1.82c.83.07,1.53.37,2.08.81.86.68,1.33,1.73,1.33,2.88l.04,38.2c0,1.21.98,2.19,2.18,2.19h9.85c1.16,0,2.11-.93,2.16-2.08V28.52c0-1.26.57-2.4,1.6-3.08.5-.32,1.11-.54,1.81-.61h1.82c2.13.19,3.42,1.8,3.41,3.68l.04,38.15c0,1.21.98,2.18,2.18,2.18h9.85c1.2,0,2.18-.97,2.18-2.18V25.64c0-2.8-.31-3.99-.75-5.21M153.53,11.14h-5.63V1.99c0-1.1-.89-1.99-1.99-1.99-.13,0-.25.02-.38.04-6.24,1.71-4.99,10.36-16.39,11.1h-1.11c-.17,0-.32.02-.48.06h0,0c-.97.22-1.7,1.08-1.7,2.12v9.85c0,1.2.98,2.18,2.18,2.18h5.94v41.75c0,1.19.95,2.15,2.14,2.15h9.74c1.19,0,2.15-.96,2.15-2.15V25.34h5.52c1.2,0,2.18-.98,2.18-2.18v-9.85c0-1.2-.98-2.18-2.18-2.18"/>
      <path class="cls-2" d="M118.1,11.14h-9.85c-1.2,0-2.17.98-2.17,2.18v20.36c-.02,1.26-1.04,2.27-2.31,2.27h-4.12c-1.28,0-2.31-1.03-2.31-2.31l-.04-20.32c0-1.2-.98-2.18-2.18-2.18h-9.85c-1.2,0-2.18.98-2.18,2.18v22.31c0,8.48,6.04,14.52,14.52,14.52,0,0,6.36,0,6.56.04,1.15.13,2.04,1.09,2.04,2.28s-.88,2.13-2.01,2.27c-.06,0-.11.02-.17.03l-14.4.05c-1.2,0-2.18.98-2.18,2.18v9.84c0,1.2.97,2.18,2.18,2.18h16.1c8.48,0,14.52-6.04,14.52-14.52V13.32c0-1.2-.97-2.18-2.18-2.18M22.79,29.18v6.08c0,1.27-1.03,2.31-2.31,2.31h-6.25s0-12.17,0-12.17h6.25c1.27,0,2.31,1.03,2.31,2.31v1.48ZM23.66,11.14H2.14c-1.18,0-2.14.96-2.14,2.14v9.65s0,.04,0,.06c0,.05,0,.09,0,.13v43.67c0,1.19.89,2.15,1.99,2.18h10.03c1.2,0,2.18-.97,2.18-2.18l.04-14.96h9.42c7.88,0,13.38-5.47,13.38-13.39v-13.89c0-7.92-5.49-13.4-13.38-13.4h0ZM63.65,52.3v1.54c0,.13-.02.25-.04.36-.02.11-.05.22-.09.32-.31.86-1.17,1.49-2.19,1.49h-4.1c-1.28,0-2.32-.97-2.32-2.17v-1.86s0-.05,0-.07v-4.94s0-1.55,0-1.55h0c0-1.2,1.04-2.17,2.32-2.17h4.1c1.28,0,2.32.97,2.32,2.17v6.88ZM62.08,11.19h-13.66c-1.21,0-2.19.92-2.19,2.04v3.83s0,.05,0,.07c0,.03,0,.06,0,.08v5.25c0,1.19,1.04,2.16,2.32,2.16h13.01c1.03.16,1.84.91,1.96,2.08v1.27c-.12,1.12-.92,1.93-1.9,2.02h-6.44c-8.57,0-14.67,5.69-14.67,13.69v11.45c0,7.95,5.25,13.6,13.76,13.6h17.85c3.21,0,5.8-2.43,5.8-5.41V25.97c0-9.06-4.67-14.78-15.83-14.78h0Z"/>
    </g>
  </g>
</svg>