<?xml version="1.0" encoding="UTF-8"?>
<svg id="Layer_2" data-name="Layer 2" xmlns="http://www.w3.org/2000/svg" viewBox="0 0 233.72 233.72">
  <defs>
    <style>
      .cls-1 {
        fill: #fff;
      }

      .cls-2 {
        fill: #5f259f;
      }
    </style>
  </defs>
  <g id="Layer_1-2" data-name="Layer 1">
    <g>
      <circle class="cls-2" cx="116.86" cy="116.86" r="116.84"/>
      <path class="cls-1" d="M169.89,86.37c0-4.57-3.91-8.49-8.48-8.49h-15.67l-35.9-41.12c-3.27-3.92-8.49-5.22-13.71-3.92l-12.4,3.92c-1.96.65-2.61,3.27-1.31,4.57l39.17,37.21h-59.4c-1.96,0-3.27,1.31-3.27,3.27v6.52c0,4.57,3.92,8.49,8.49,8.49h9.14v31.33c0,23.5,12.4,37.2,33.29,37.2,6.52,0,11.75-.65,18.27-3.26v20.88c0,5.87,4.57,10.45,10.45,10.45h9.14c1.96,0,3.92-1.96,3.92-3.92v-93.34h15.01c1.96,0,3.26-1.31,3.26-3.26v-6.53h0ZM128.11,142.5c-3.91,1.96-9.14,2.61-13.05,2.61-10.45,0-15.67-5.22-15.67-16.97v-31.33h28.72v45.69Z"/>
    </g>
  </g>
</svg>