<?xml version="1.0" encoding="UTF-8"?>
<svg id="Layer_2" data-name="Layer 2" xmlns="http://www.w3.org/2000/svg" viewBox="0 0 237.07 237.07">
  <defs>
    <style>
      .cls-1 {
        fill: #ff1818;
      }

      .cls-2 {
        fill: #fff;
      }
    </style>
  </defs>
  <g id="Layer_1-2" data-name="Layer 1">
    <g>
      <circle class="cls-2" cx="118.54" cy="118.54" r="118.54"/>
      <path class="cls-1" d="M118.54,0C53.07,0,0,53.07,0,118.54s53.07,118.54,118.54,118.54,118.54-53.07,118.54-118.54S184,0,118.54,0ZM164.43,136.27c-15.77,19.56-41.34,20.86-53.14,8.85-.91-.92-1.64-2-2.53-3.1-.13.44-.25.82-.35,1.19-5.66,22.19-6.29,27.11-12.11,37.42-2.78,4.9-5.9,9.54-9.36,13.98-.39.5-.76,1.15-1.54.99-.85-.18-.92-.95-1.01-1.63-.93-6.74-1.45-13.5-1.22-20.31.29-8.87,1.39-11.91,12.82-59.97.17-.73-.02-1.34-.27-2-2.73-7.38-3.27-14.87-.89-22.46,5.17-16.39,23.76-17.65,27.01-4.12,2,8.37-3.29,19.31-7.36,35.5-3.37,13.35,12.35,22.84,25.78,13.1,12.39-8.99,17.2-30.53,16.28-45.8-1.8-30.44-35.18-37.02-56.36-27.22-24.28,11.22-29.8,41.32-18.84,55.07,1.39,1.75,2.46,2.82,2,4.59-.71,2.75-1.33,5.53-2.09,8.27-.57,2.04-2.27,2.78-4.33,1.94-4.04-1.63-7.41-4.21-10.14-7.6-9.31-11.53-11.97-34.33.33-53.63,13.64-21.39,39-30.04,62.16-27.41,27.66,3.15,45.14,22.04,48.42,43.48,1.49,9.77.42,33.85-13.29,50.87Z"/>
    </g>
  </g>
</svg>