<svg xmlns="http://www.w3.org/2000/svg" xmlns:xlink="http://www.w3.org/1999/xlink" width="500" zoomAndPan="magnify" viewBox="0 0 375 374.999991" height="500" preserveAspectRatio="xMidYMid meet" version="1.2"><defs><clipPath id="49ae4bdb3f"><path d="M 187.5 0 C 83.945312 0 0 83.945312 0 187.5 C 0 291.054688 83.945312 375 187.5 375 C 291.054688 375 375 291.054688 375 187.5 C 375 83.945312 291.054688 0 187.5 0 Z M 187.5 0 "/></clipPath><clipPath id="7f28bd3799"><path d="M 187.5 0 C 83.945312 0 0 83.945312 0 187.5 C 0 291.054688 83.945312 375 187.5 375 C 291.054688 375 375 291.054688 375 187.5 C 375 83.945312 291.054688 0 187.5 0 Z M 187.5 0 "/></clipPath><clipPath id="d564376f81"><rect x="0" width="375" y="0" height="375"/></clipPath></defs><g id="a0dbe055b9"><g clip-rule="nonzero" clip-path="url(#49ae4bdb3f)"><g transform="matrix(1,0,0,1,0,0)"><g clip-path="url(#d564376f81)"><g clip-rule="nonzero" clip-path="url(#7f28bd3799)"><rect x="0" width="375" height="375" y="0" style="fill:#ffffff;fill-opacity:1;stroke:none;"/></g></g></g></g><path style=" stroke:none;fill-rule:nonzero;fill:#81a0d3;fill-opacity:1;" d="M 274.734375 129.578125 C 274.734375 130.929688 274.691406 132.277344 274.605469 133.625 C 273.722656 149.648438 267.523438 164.191406 257.785156 175.574219 C 256.898438 176.628906 255.972656 177.640625 255.042969 178.609375 C 254.117188 179.578125 253.191406 180.507812 252.21875 181.394531 C 244.757812 188.308594 235.820312 193.703125 225.914062 196.90625 C 220.894531 198.550781 215.710938 199.648438 210.355469 200.109375 C 209.554688 200.238281 208.753906 200.28125 207.953125 200.320312 C 206.605469 200.40625 205.253906 200.449219 203.90625 200.449219 C 202.554688 200.449219 201.207031 200.40625 199.859375 200.320312 C 199.058594 200.28125 198.257812 200.238281 197.457031 200.109375 C 192.058594 199.648438 186.875 198.59375 181.898438 196.90625 C 171.992188 193.703125 163.09375 188.347656 155.675781 181.433594 C 154.707031 180.550781 153.734375 179.578125 152.808594 178.609375 C 151.882812 177.640625 150.953125 176.628906 150.070312 175.574219 C 140.328125 164.191406 134.132812 149.648438 133.246094 133.667969 C 133.164062 132.320312 133.121094 131.011719 133.121094 129.621094 C 133.121094 128.273438 133.164062 126.921875 133.246094 125.574219 C 134.175781 108.792969 141.003906 93.617188 151.542969 81.9375 C 152.429688 81.011719 153.273438 80.125 154.15625 79.242188 C 155.167969 78.230469 156.265625 77.21875 157.363281 76.289062 C 164.445312 70.050781 172.835938 65.203125 182.023438 62.207031 C 186.957031 60.605469 192.144531 59.511719 197.496094 59.046875 C 197.539062 59.046875 197.539062 59.003906 197.539062 59.003906 C 198.339844 58.921875 199.097656 58.878906 199.902344 58.835938 C 201.25 58.75 202.554688 58.710938 203.949219 58.710938 C 205.296875 58.710938 206.644531 58.75 207.996094 58.835938 C 208.796875 58.878906 209.597656 58.921875 210.355469 59.003906 C 210.355469 59.003906 210.355469 59.046875 210.398438 59.046875 C 215.753906 59.511719 220.894531 60.566406 225.871094 62.207031 C 235.0625 65.203125 243.449219 70.007812 250.535156 76.289062 C 251.628906 77.21875 252.726562 78.230469 253.738281 79.242188 C 254.621094 80.125 255.507812 81.011719 256.351562 81.9375 C 266.933594 93.574219 273.761719 108.792969 274.691406 125.574219 C 274.691406 126.882812 274.734375 128.1875 274.734375 129.578125 Z M 274.734375 129.578125 "/><path style=" stroke:none;fill-rule:nonzero;fill:#fac372;fill-opacity:1;" d="M 312.84375 211.285156 C 286.496094 243.238281 255.464844 269.292969 219.039062 288.5625 C 212.085938 292.269531 204.117188 293.746094 196.316406 292.777344 L 139.148438 285.945312 L 124.898438 294.210938 L 95.808594 236.15625 C 120.769531 214.910156 149.730469 211.875 181.855469 223.003906 L 227.21875 223.003906 C 232.828125 223.003906 237.71875 225.828125 240.582031 230.128906 C 241.34375 231.226562 241.933594 232.40625 242.398438 233.710938 L 245.472656 231.140625 L 292.691406 191.425781 C 296.699219 188.097656 302.179688 186.621094 307.109375 188.308594 C 311.496094 189.824219 314.488281 192.859375 315.839844 197.582031 C 317.269531 202.34375 315.964844 207.488281 312.84375 211.285156 Z M 312.84375 211.285156 "/><path style=" stroke:none;fill-rule:nonzero;fill:#ed7370;fill-opacity:1;" d="M 102.554688 315.332031 L 120.558594 306.308594 C 125.109375 304.035156 126.964844 298.46875 124.6875 293.914062 L 94.25 233.121094 C 91.972656 228.570312 86.40625 226.714844 81.855469 228.992188 L 63.851562 238.011719 C 59.300781 240.289062 57.445312 245.855469 59.722656 250.40625 L 90.160156 311.160156 C 92.4375 315.753906 98 317.609375 102.554688 315.332031 Z M 102.554688 315.332031 "/><path style=" stroke:none;fill-rule:nonzero;fill:#e6b469;fill-opacity:1;" d="M 247.371094 239.152344 C 247.371094 250.28125 238.347656 259.300781 227.21875 259.300781 L 198.550781 259.300781 C 196.273438 259.300781 194.503906 257.488281 194.503906 255.253906 C 194.503906 253.019531 196.273438 251.207031 198.550781 251.207031 L 227.21875 251.207031 C 233.921875 251.207031 239.320312 245.8125 239.320312 239.109375 C 239.320312 237.886719 239.109375 236.707031 238.769531 235.523438 C 238.730469 235.355469 238.6875 235.230469 238.644531 235.0625 C 237.929688 233.121094 238.855469 231.015625 240.625 230.128906 C 241.386719 231.226562 241.976562 232.40625 242.4375 233.710938 L 245.515625 231.140625 C 245.855469 231.519531 246.066406 231.898438 246.234375 232.40625 C 246.949219 234.597656 247.371094 236.832031 247.371094 239.152344 Z M 247.371094 239.152344 "/><path style=" stroke:none;fill-rule:nonzero;fill:#ffffff;fill-opacity:1;" d="M 251.460938 133.625 L 274.605469 133.625 C 274.691406 132.277344 274.734375 130.96875 274.734375 129.578125 C 274.734375 128.230469 274.691406 126.882812 274.605469 125.53125 L 251.585938 125.53125 C 250.28125 121.652344 247.160156 118.703125 243.199219 117.605469 C 242.609375 108.964844 241.34375 100.699219 239.445312 93.027344 C 245.433594 90.074219 251.125 86.324219 256.265625 81.855469 C 255.425781 80.925781 254.539062 80.042969 253.652344 79.15625 C 252.640625 78.144531 251.546875 77.132812 250.449219 76.207031 C 246.359375 79.746094 241.847656 82.742188 237.167969 85.1875 C 235.90625 81.222656 234.472656 77.511719 232.867188 74.097656 C 230.71875 69.503906 228.398438 65.496094 225.828125 62.125 C 220.855469 60.523438 215.710938 59.425781 210.355469 58.960938 C 215.921875 61.789062 221.273438 68.152344 225.574219 77.46875 C 227.136719 80.84375 228.609375 84.554688 229.792969 88.433594 C 225.152344 90.246094 220.347656 91.46875 215.414062 92.226562 C 214.191406 88.726562 211.453125 85.945312 207.910156 84.722656 L 207.910156 58.878906 C 206.5625 58.792969 205.253906 58.75 203.863281 58.75 C 202.515625 58.75 201.164062 58.792969 199.816406 58.878906 L 199.816406 84.847656 C 196.316406 86.070312 193.578125 88.8125 192.355469 92.308594 C 187.378906 91.507812 182.574219 90.285156 177.9375 88.515625 C 179.199219 84.59375 180.589844 80.925781 182.152344 77.511719 C 186.453125 68.238281 191.804688 61.871094 197.371094 59.046875 C 192.015625 59.511719 186.832031 60.566406 181.898438 62.207031 C 179.410156 65.582031 177.050781 69.585938 174.941406 74.140625 C 173.339844 77.597656 171.863281 81.308594 170.640625 85.226562 C 165.921875 82.78125 161.453125 79.789062 157.363281 76.289062 C 156.265625 77.21875 155.167969 78.230469 154.15625 79.242188 C 153.273438 80.125 152.429688 81.011719 151.542969 81.9375 C 156.6875 86.40625 162.378906 90.117188 168.40625 93.113281 C 165.921875 103.0625 164.527344 114.105469 164.277344 125.574219 L 133.203125 125.574219 C 133.121094 126.921875 133.078125 128.230469 133.078125 129.621094 C 133.078125 130.96875 133.121094 132.320312 133.203125 133.667969 L 164.191406 133.667969 C 164.359375 141.214844 165.078125 148.507812 166.214844 155.507812 C 162.757812 157.65625 160.441406 161.492188 160.441406 165.835938 C 160.441406 166.425781 160.523438 166.972656 160.609375 167.523438 C 156.898438 169.925781 153.355469 172.582031 150.027344 175.574219 C 150.910156 176.628906 151.839844 177.640625 152.765625 178.609375 C 153.695312 179.578125 154.664062 180.550781 155.632812 181.433594 C 158.332031 178.949219 161.242188 176.714844 164.277344 174.6875 C 166.300781 176.628906 168.996094 177.851562 171.992188 178.019531 C 172.875 180.507812 173.847656 182.867188 174.898438 185.144531 C 177.007812 189.65625 179.285156 193.617188 181.855469 196.90625 C 186.832031 198.59375 192.015625 199.691406 197.414062 200.109375 C 191.847656 197.328125 186.535156 190.960938 182.195312 181.6875 C 181.308594 179.832031 180.507812 177.808594 179.75 175.785156 C 182.867188 173.550781 184.890625 169.96875 184.890625 165.835938 C 184.890625 165.710938 184.851562 165.582031 184.851562 165.457031 C 189.699219 164.148438 194.714844 163.304688 199.816406 163.011719 L 199.816406 200.238281 C 201.164062 200.320312 202.472656 200.363281 203.863281 200.363281 C 205.210938 200.363281 206.5625 200.320312 207.910156 200.238281 L 207.910156 162.925781 C 215.792969 163.390625 223.425781 165.035156 230.59375 167.902344 C 229.199219 172.835938 227.472656 177.472656 225.574219 181.644531 C 221.273438 190.921875 215.921875 197.285156 210.355469 200.070312 C 215.710938 199.605469 220.894531 198.550781 225.914062 196.863281 C 228.441406 193.535156 230.804688 189.613281 232.867188 185.058594 C 234.851562 180.84375 236.535156 176.207031 237.96875 171.273438 C 243.070312 174.015625 247.835938 177.386719 252.175781 181.351562 C 253.148438 180.464844 254.074219 179.539062 255.003906 178.566406 C 255.929688 177.597656 256.855469 176.585938 257.742188 175.53125 C 252.347656 170.601562 246.359375 166.550781 239.992188 163.304688 C 241.597656 156.308594 242.648438 148.847656 243.199219 141.128906 C 247.035156 140.117188 250.113281 137.292969 251.460938 133.625 Z M 231.898438 96.316406 C 233.5 103.144531 234.640625 110.480469 235.1875 118.152344 C 232.027344 119.546875 229.582031 122.203125 228.484375 125.53125 L 207.953125 125.53125 L 207.953125 107.824219 C 211.410156 106.601562 214.148438 103.902344 215.414062 100.445312 C 221.0625 99.644531 226.585938 98.296875 231.898438 96.316406 Z M 199.859375 154.875 C 193.703125 155.210938 187.714844 156.222656 181.941406 157.824219 C 180 155.550781 177.21875 154.03125 174.097656 153.652344 C 173.085938 147.242188 172.453125 140.5 172.285156 133.585938 L 199.902344 133.585938 L 199.902344 154.875 Z M 172.242188 125.53125 C 172.496094 115.203125 173.71875 105.296875 175.871094 96.273438 C 181.183594 98.253906 186.746094 99.644531 192.4375 100.445312 C 193.660156 103.902344 196.402344 106.601562 199.859375 107.824219 L 199.859375 125.53125 Z M 232.53125 160.058594 C 224.773438 157.066406 216.46875 155.339844 207.910156 154.917969 L 207.910156 133.625 L 228.570312 133.625 C 229.75 136.789062 232.109375 139.316406 235.1875 140.667969 C 234.722656 147.371094 233.839844 153.90625 232.53125 160.058594 Z M 232.53125 160.058594 "/></g></svg>