<svg height="512" viewBox="0 0 152 152" width="512" xmlns="http://www.w3.org/2000/svg"><g id="Layer_2" data-name="Layer 2"><g id="Color"><g id="_32.Quora" data-name="32.Quora"><circle id="Background" cx="76" cy="76" fill="#b0271e" r="76"/><path id="Icon" d="m108.3 98.78s-.39 5.74-5.61 5.74c-4 0-6.78-3.08-9.36-7.07a35.22 35.22 0 0 0 12-26.6c-.03-19.25-15.16-34.85-33.83-34.85s-33.8 15.6-33.8 34.85 15.13 34.84 33.8 34.84a32.67 32.67 0 0 0 9.74-1.47c3.91 6.2 8.86 11.78 16.62 11.78 15.79 0 16.44-17.22 16.44-17.22zm-36.8 1.22c-10.89 0-19.71-13-19.71-29.1s8.82-29.16 19.71-29.16 19.7 13 19.7 29.11a38.89 38.89 0 0 1 -3.76 17.15c-2.67-3.82-5.88-7.06-10.46-8.1a21.85 21.85 0 0 0 -17.36 3.66l2.09 4.3s2.11-1.21 7.34 0c3.3.77 5.87 5.34 8.8 10.59a13.94 13.94 0 0 1 -6.35 1.55z" fill="#fff"/></g></g></g></svg>