<svg xmlns="http://www.w3.org/2000/svg" xmlns:xlink="http://www.w3.org/1999/xlink" width="500" zoomAndPan="magnify" viewBox="0 0 375 374.999991" height="500" preserveAspectRatio="xMidYMid meet" version="1.2"><defs><clipPath id="549c33e51b"><path d="M 187.5 0 C 83.945312 0 0 83.945312 0 187.5 C 0 291.054688 83.945312 375 187.5 375 C 291.054688 375 375 291.054688 375 187.5 C 375 83.945312 291.054688 0 187.5 0 Z M 187.5 0 "/></clipPath><clipPath id="11c7005e72"><path d="M 187.5 0 C 83.945312 0 0 83.945312 0 187.5 C 0 291.054688 83.945312 375 187.5 375 C 291.054688 375 375 291.054688 375 187.5 C 375 83.945312 291.054688 0 187.5 0 Z M 187.5 0 "/></clipPath><clipPath id="38bc507007"><rect x="0" width="375" y="0" height="375"/></clipPath></defs><g id="ddb70e3102"><g clip-rule="nonzero" clip-path="url(#549c33e51b)"><g transform="matrix(1,0,0,1,0,0)"><g clip-path="url(#38bc507007)"><g clip-rule="nonzero" clip-path="url(#11c7005e72)"><rect x="0" width="375" height="375" y="0" style="fill:#ffffff;fill-opacity:1;stroke:none;"/></g></g></g></g><path style=" stroke:none;fill-rule:evenodd;fill:#8ac9fe;fill-opacity:1;" d="M 322.367188 237.203125 L 322.367188 92.269531 C 322.367188 76.347656 309.375 63.351562 293.449219 63.351562 L 81.636719 63.351562 C 65.714844 63.351562 52.722656 76.347656 52.722656 92.269531 L 52.722656 237.203125 C 52.722656 253.128906 65.714844 266.121094 81.636719 266.121094 L 106.113281 266.121094 L 106.113281 302.746094 C 106.113281 310.835938 115.953125 314.785156 121.542969 308.957031 L 162.703125 266.121094 L 293.453125 266.121094 C 309.375 266.121094 322.367188 253.128906 322.367188 237.203125 Z M 322.367188 237.203125 "/><path style=" stroke:none;fill-rule:evenodd;fill:#60b7ff;fill-opacity:1;" d="M 322.367188 237.203125 L 322.367188 92.269531 C 322.367188 76.347656 309.375 63.351562 293.449219 63.351562 L 275.519531 63.351562 C 291.445312 63.351562 304.4375 76.347656 304.4375 92.269531 L 304.4375 237.203125 C 304.4375 253.128906 291.445312 266.121094 275.519531 266.121094 L 293.449219 266.121094 C 309.375 266.121094 322.367188 253.128906 322.367188 237.203125 Z M 106.636719 305.820312 C 108.722656 311.726562 116.71875 313.988281 121.542969 308.972656 L 162.703125 266.121094 L 144.773438 266.121094 Z M 106.636719 305.820312 "/><path style=" stroke:none;fill-rule:evenodd;fill:#f6dccd;fill-opacity:1;" d="M 216.144531 233.589844 C 221.015625 233.589844 224.996094 237.566406 224.996094 242.4375 C 224.996094 247.300781 221.015625 251.289062 216.144531 251.289062 L 177.25 251.289062 C 155.097656 251.289062 162.425781 239.984375 142.136719 241.976562 L 142.136719 189.585938 L 148.097656 189.523438 C 152.605469 189.488281 155.574219 187.621094 157.664062 184.601562 C 163.203125 176.585938 162.683594 176.710938 169.933594 171.972656 C 181.496094 164.410156 181.386719 161.488281 185.789062 142.351562 C 203.445312 146.6875 195.695312 174.035156 190.117188 180.480469 L 223.613281 180.480469 C 228.484375 180.480469 232.46875 184.460938 232.46875 189.332031 C 232.46875 194.195312 228.484375 198.179688 223.613281 198.179688 L 228.453125 198.179688 C 233.324219 198.179688 237.304688 202.160156 237.304688 207.03125 C 237.304688 211.902344 233.324219 215.882812 228.453125 215.882812 L 225.414062 215.882812 C 230.285156 215.882812 234.261719 219.867188 234.261719 224.730469 C 234.261719 229.601562 230.285156 233.589844 225.414062 233.589844 Z M 216.144531 233.589844 "/><path style=" stroke:none;fill-rule:evenodd;fill:#f1cbbc;fill-opacity:1;" d="M 232.464844 189.066406 C 230.871094 190.964844 228.992188 190.882812 226.351562 190.9375 L 219.449219 190.9375 C 217.359375 190.9375 215.652344 192.617188 215.652344 194.707031 C 215.652344 196.796875 217.359375 198.476562 219.449219 198.476562 L 221.042969 198.476562 C 226.769531 198.921875 232.246094 195.605469 232.464844 189.660156 C 232.464844 189.621094 232.464844 189.101562 232.464844 189.066406 Z M 232.464844 189.066406 "/><path style=" stroke:none;fill-rule:evenodd;fill:#f1cbbc;fill-opacity:1;" d="M 237.304688 206.8125 C 237.304688 206.847656 237.304688 207.367188 237.300781 207.402344 C 237.085938 213.351562 231.609375 216.667969 225.882812 216.21875 L 222.671875 216.21875 C 220.582031 216.21875 218.875 214.542969 218.875 212.453125 C 218.875 210.359375 220.582031 208.683594 222.671875 208.683594 L 231.191406 208.683594 C 233.832031 208.628906 235.707031 208.707031 237.304688 206.8125 Z M 237.304688 206.8125 "/><path style=" stroke:none;fill-rule:evenodd;fill:#f1cbbc;fill-opacity:1;" d="M 234.246094 224.53125 C 234.246094 224.570312 234.246094 225.089844 234.242188 225.125 C 234.027344 231.070312 228.550781 234.390625 222.824219 233.941406 L 217.984375 233.941406 C 215.894531 233.941406 214.1875 232.265625 214.1875 230.171875 C 214.1875 228.082031 215.894531 226.40625 217.984375 226.40625 L 228.132812 226.40625 C 230.773438 226.347656 232.652344 226.429688 234.246094 224.53125 Z M 234.246094 224.53125 "/><path style=" stroke:none;fill-rule:evenodd;fill:#f1cbbc;fill-opacity:1;" d="M 222.496094 236.289062 C 224.042969 237.882812 224.996094 240.054688 224.996094 242.4375 C 224.996094 247.300781 221.015625 251.289062 216.144531 251.289062 L 177.25 251.289062 C 155.097656 251.289062 162.425781 239.984375 142.136719 241.976562 L 142.136719 237.378906 C 160.625 236.429688 153.636719 246.863281 174.921875 246.863281 L 213.816406 246.863281 C 218.6875 246.863281 222.667969 242.878906 222.667969 238.011719 C 222.667969 237.421875 222.609375 236.847656 222.496094 236.289062 Z M 222.496094 236.289062 "/><path style=" stroke:none;fill-rule:evenodd;fill:#d1d1d6;fill-opacity:1;" d="M 126.277344 182.207031 L 141.226562 182.207031 C 143.257812 182.207031 144.917969 183.867188 144.917969 185.894531 L 144.917969 250.457031 C 144.917969 252.484375 143.257812 254.144531 141.226562 254.144531 L 126.277344 254.144531 C 124.257812 254.144531 122.589844 252.484375 122.589844 250.457031 L 122.589844 185.894531 C 122.589844 183.867188 124.257812 182.207031 126.277344 182.207031 Z M 126.277344 182.207031 "/><path style=" stroke:none;fill-rule:evenodd;fill:#b1b1b5;fill-opacity:1;" d="M 141.417969 182.210938 C 143.359375 182.3125 144.917969 183.929688 144.917969 185.894531 L 144.917969 250.457031 C 144.917969 252.484375 143.257812 254.144531 141.226562 254.144531 L 126.277344 254.144531 C 124.320312 254.144531 122.695312 252.589844 122.59375 250.644531 C 122.660156 250.648438 122.722656 250.652344 122.785156 250.652344 L 137.734375 250.652344 C 139.765625 250.652344 141.421875 248.992188 141.421875 246.960938 L 141.421875 182.402344 C 141.421875 182.339844 141.421875 182.273438 141.417969 182.210938 Z M 141.417969 182.210938 "/><path style=" stroke:none;fill-rule:evenodd;fill:#ffe177;fill-opacity:1;" d="M 188.890625 76.980469 L 195.804688 95.171875 C 196 95.722656 196.492188 96.066406 197.074219 96.097656 L 216.523438 97.054688 C 217.835938 97.113281 218.390625 98.785156 217.359375 99.609375 L 202.183594 111.808594 C 201.71875 112.167969 201.542969 112.734375 201.691406 113.304688 L 206.796875 132.09375 C 207.140625 133.363281 205.722656 134.390625 204.617188 133.675781 L 188.335938 123.011719 C 187.84375 122.683594 187.246094 122.683594 186.753906 123.011719 L 170.460938 133.675781 C 169.355469 134.390625 167.933594 133.363281 168.292969 132.09375 L 173.402344 113.304688 C 173.550781 112.734375 173.355469 112.167969 172.910156 111.808594 L 157.734375 99.609375 C 156.703125 98.785156 157.242188 97.113281 158.570312 97.054688 L 178.015625 96.097656 C 178.601562 96.066406 179.078125 95.722656 179.289062 95.171875 L 186.203125 76.980469 C 186.664062 75.738281 188.425781 75.738281 188.890625 76.980469 Z M 188.890625 76.980469 "/><path style=" stroke:none;fill-rule:evenodd;fill:#ffd064;fill-opacity:1;" d="M 210.367188 96.753906 L 216.523438 97.054688 C 217.835938 97.113281 218.390625 98.785156 217.359375 99.609375 L 202.183594 111.808594 C 201.71875 112.167969 201.542969 112.734375 201.691406 113.304688 L 206.796875 132.09375 C 207.140625 133.363281 205.722656 134.390625 204.617188 133.675781 L 200.40625 130.914062 L 195.539062 113.003906 C 195.386719 112.4375 195.566406 111.871094 196.03125 111.511719 L 211.203125 99.308594 C 212.234375 98.488281 211.699219 96.8125 210.367188 96.753906 Z M 188.890625 76.980469 L 195.804688 95.171875 C 196 95.722656 196.476562 96.066406 197.058594 96.097656 L 190.921875 95.796875 C 190.339844 95.769531 189.847656 95.425781 189.652344 94.871094 L 184.53125 81.386719 L 186.203125 76.980469 C 186.664062 75.738281 188.425781 75.738281 188.890625 76.980469 Z M 188.335938 123.011719 C 187.84375 122.683594 187.246094 122.683594 186.753906 123.011719 L 170.460938 133.675781 C 169.355469 134.390625 167.933594 133.363281 168.292969 132.09375 L 168.726562 130.480469 L 183.453125 120.847656 C 183.933594 120.53125 184.53125 120.53125 185.023438 120.847656 Z M 188.335938 123.011719 "/><path style=" stroke:none;fill-rule:evenodd;fill:#ffe177;fill-opacity:1;" d="M 274.3125 76.980469 L 281.226562 95.171875 C 281.421875 95.722656 281.914062 96.066406 282.496094 96.097656 L 301.945312 97.054688 C 303.257812 97.113281 303.8125 98.785156 302.78125 99.609375 L 287.605469 111.808594 C 287.144531 112.167969 286.964844 112.734375 287.113281 113.304688 L 292.222656 132.09375 C 292.566406 133.363281 291.144531 134.390625 290.039062 133.675781 L 273.761719 123.011719 C 273.265625 122.683594 272.671875 122.683594 272.175781 123.011719 L 255.882812 133.675781 C 254.777344 134.390625 253.359375 133.363281 253.71875 132.09375 L 258.824219 113.304688 C 258.972656 112.734375 258.78125 112.167969 258.332031 111.808594 L 243.15625 99.609375 C 242.125 98.785156 242.664062 97.113281 243.992188 97.054688 L 263.441406 96.097656 C 264.023438 96.066406 264.5 95.722656 264.710938 95.171875 L 271.625 76.980469 C 272.085938 75.738281 273.851562 75.738281 274.3125 76.980469 Z M 274.3125 76.980469 "/><path style=" stroke:none;fill-rule:evenodd;fill:#ffd064;fill-opacity:1;" d="M 295.789062 96.753906 L 301.945312 97.054688 C 303.257812 97.113281 303.8125 98.785156 302.78125 99.609375 L 287.605469 111.808594 C 287.144531 112.167969 286.964844 112.734375 287.113281 113.304688 L 292.222656 132.09375 C 292.566406 133.363281 291.144531 134.390625 290.039062 133.675781 L 285.828125 130.914062 L 280.960938 113.003906 C 280.808594 112.4375 280.988281 111.871094 281.453125 111.511719 L 296.628906 99.308594 C 297.65625 98.488281 297.121094 96.8125 295.789062 96.753906 Z M 274.3125 76.980469 L 281.226562 95.171875 C 281.421875 95.722656 281.902344 96.066406 282.484375 96.097656 L 276.34375 95.796875 C 275.761719 95.769531 275.269531 95.425781 275.074219 94.871094 L 269.953125 81.386719 L 271.625 76.980469 C 272.085938 75.738281 273.851562 75.738281 274.3125 76.980469 Z M 273.761719 123.011719 C 273.265625 122.683594 272.671875 122.683594 272.175781 123.011719 L 255.882812 133.675781 C 254.777344 134.390625 253.359375 133.363281 253.71875 132.09375 L 254.148438 130.480469 L 268.875 120.847656 C 269.355469 120.53125 269.953125 120.53125 270.445312 120.847656 Z M 273.761719 123.011719 "/><path style=" stroke:none;fill-rule:evenodd;fill:#ffe177;fill-opacity:1;" d="M 103.46875 76.980469 L 110.382812 95.171875 C 110.578125 95.722656 111.070312 96.066406 111.652344 96.097656 L 131.097656 97.054688 C 132.414062 97.113281 132.964844 98.785156 131.933594 99.609375 L 116.761719 111.808594 C 116.296875 112.167969 116.117188 112.734375 116.269531 113.304688 L 121.375 132.09375 C 121.71875 133.363281 120.300781 134.390625 119.195312 133.675781 L 102.914062 123.011719 C 102.421875 122.683594 101.824219 122.683594 101.332031 123.011719 L 85.035156 133.675781 C 83.933594 134.390625 82.511719 133.363281 82.871094 132.09375 L 87.980469 113.304688 C 88.128906 112.734375 87.933594 112.167969 87.488281 111.808594 L 72.3125 99.609375 C 71.28125 98.785156 71.820312 97.113281 73.148438 97.054688 L 92.59375 96.097656 C 93.175781 96.066406 93.65625 95.722656 93.863281 95.171875 L 100.78125 76.980469 C 101.242188 75.738281 103.003906 75.738281 103.46875 76.980469 Z M 103.46875 76.980469 "/><path style=" stroke:none;fill-rule:evenodd;fill:#ffd064;fill-opacity:1;" d="M 124.945312 96.753906 L 131.097656 97.054688 C 132.414062 97.113281 132.964844 98.785156 131.933594 99.609375 L 116.761719 111.808594 C 116.296875 112.167969 116.117188 112.734375 116.269531 113.304688 L 121.375 132.09375 C 121.71875 133.363281 120.300781 134.390625 119.195312 133.675781 L 114.984375 130.914062 L 110.113281 113.003906 C 109.964844 112.4375 110.144531 111.871094 110.609375 111.511719 L 125.78125 99.308594 C 126.8125 98.488281 126.273438 96.8125 124.945312 96.753906 Z M 103.46875 76.980469 L 110.382812 95.171875 C 110.578125 95.722656 111.054688 96.066406 111.636719 96.097656 L 105.5 95.796875 C 104.917969 95.769531 104.421875 95.425781 104.230469 94.871094 L 99.105469 81.386719 L 100.78125 76.980469 C 101.242188 75.738281 103.003906 75.738281 103.46875 76.980469 Z M 102.914062 123.011719 C 102.421875 122.683594 101.824219 122.683594 101.332031 123.011719 L 85.035156 133.675781 C 83.933594 134.390625 82.511719 133.363281 82.871094 132.09375 L 83.304688 130.480469 L 98.03125 120.847656 C 98.507812 120.53125 99.105469 120.53125 99.601562 120.847656 Z M 102.914062 123.011719 "/></g></svg>