<?xml version="1.0" encoding="UTF-8"?>
<svg id="Layer_2" data-name="Layer 2" xmlns="http://www.w3.org/2000/svg" viewBox="0 0 237.07 237.07">
  <defs>
    <style>
      .cls-1 {
        fill: #ffe07d;
      }

      .cls-2 {
        fill: #e7a561;
      }

      .cls-3 {
        fill: #e5ecf7;
      }

      .cls-4 {
        fill: #fff;
      }

      .cls-5 {
        fill: #e49542;
      }

      .cls-6 {
        fill: #ffd064;
      }

      .cls-7 {
        fill: #384656;
      }

      .cls-8 {
        fill: #b9cbea;
      }

      .cls-9 {
        fill: #2f3b48;
      }
    </style>
  </defs>
  <g id="Layer_1-2" data-name="Layer 1">
    <g>
      <circle class="cls-4" cx="118.54" cy="118.54" r="118.54"/>
      <g>
        <g>
          <path class="cls-3" d="M86.84,154.58l-.4-3.95-7.39-4.52-9.46,9.45,2.24,5.89,5.89,2.24,6.56-2.9,2.55-6.21Z"/>
          <path class="cls-8" d="M86.84,154.58l-9.11,9.11.06,3.72,3.72.06,9.46-9.45-.27-3.51-3.85.07Z"/>
          <path class="cls-7" d="M61.18,187.05l17.34-17.34.78-4.44-10.22-10.22c-.58-.58-1.53-.58-2.11,0l-18.9,18.9c-3.5,3.5-4.05,8.84-1.65,12.92,4.48,4.48,11.25,3.68,14.75.18Z"/>
          <path class="cls-1" d="M66.23,105.26c0,17.38,6.77,32.83,18.39,44.44,24.59,24.59,64.47,24.59,89.06,0,11.62-11.62,18.39-28.55,18.39-44.44-.7-16.54-7.88-32.86-21.56-44.82-23.62-20.65-59.1-20.65-82.72,0-13.68,11.96-20.86,28.28-21.56,44.82h0Z"/>
          <path class="cls-2" d="M78.84,105.26c0,13.28,5.53,26.38,14.68,35.54,19.67,19.67,51.57,19.67,71.25,0,9.16-9.16,14.68-21.65,14.68-35.54-.8-15.19-8.45-30.09-22.94-39.68-14.98-9.9-39.76-9.9-54.73,0-14.5,9.59-22.14,24.49-22.94,39.68h0Z"/>
          <path class="cls-6" d="M173.68,147.12c-24.59,24.59-64.47,24.59-89.06,0-11.62-11.62-17.74-26.64-18.39-41.86-.72,16.99,5.41,34.22,18.39,47.2,24.59,24.59,64.47,24.59,89.06,0,12.98-12.98,19.1-30.2,18.39-47.2-.64,15.21-6.77,30.24-18.39,41.86Z"/>
          <path class="cls-5" d="M164.77,138.22c-19.67,19.67-51.57,19.67-71.25,0-9.16-9.16-14.05-20.96-14.68-32.95-.73,13.77,4.17,27.78,14.68,38.29,19.67,19.67,51.57,19.67,71.25,0,10.52-10.52,15.41-24.52,14.68-38.29-.63,11.99-5.53,23.79-14.68,32.95h0Z"/>
          <path class="cls-9" d="M79.31,165.27l-19.96,19.96c-3.5,3.5-8.84,4.05-12.93,1.65.45.76,1,1.48,1.65,2.13,4.16,4.16,10.9,4.16,15.05,0l18.9-18.9c.58-.58.58-1.53,0-2.11l-2.72-2.72Z"/>
        </g>
        <g>
          <path class="cls-4" d="M131.85,97.76c1.23,0,2.23-1,2.23-2.23s-1-2.23-2.23-2.23h-10.44c-1.23,0-2.23,1-2.23,2.23v24.78c0,1.23,1,2.23,2.23,2.23h10.44c1.23,0,2.23-1,2.23-2.23s-1-2.23-2.23-2.23h-8.21v-7.93h7.44c1.23,0,2.23-1,2.23-2.23s-1-2.23-2.23-2.23h-7.44v-7.93h8.21Z"/>
          <path class="cls-4" d="M105.42,118.19c-2.73,0-5.37-1.11-7.06-2.97-.83-.91-2.24-.98-3.15-.15-.91.83-.98,2.24-.15,3.15,2.52,2.78,6.4,4.44,10.37,4.44,4.76,0,8.9-3.12,9.64-7.26.85-4.77-2.9-7.97-6.7-9.37-3.22-1.19-6.2-2.48-6.96-2.81-.8-.59-1.19-1.52-1.04-2.53.18-1.27,1.16-2.3,2.62-2.73,4.02-1.21,7.64,1.7,7.71,1.76.94.78,2.34.66,3.13-.28.79-.94.67-2.35-.27-3.14-.22-.19-5.48-4.52-11.86-2.61-3.11.94-5.32,3.38-5.75,6.37-.4,2.78.81,5.46,3.15,6.99.1.06.2.12.31.17.14.06,3.56,1.59,7.41,3.01,2.77,1.02,4.17,2.62,3.85,4.4-.31,1.74-2.26,3.58-5.25,3.58h0Z"/>
          <path class="cls-4" d="M165.74,107.92c0-8.12-6.61-14.73-14.73-14.73s-14.73,6.61-14.73,14.73,6.61,14.73,14.73,14.73,14.73-6.61,14.73-14.73ZM140.73,107.92c0-5.66,4.61-10.27,10.27-10.27s10.27,4.61,10.27,10.27-4.61,10.27-10.27,10.27-10.27-4.61-10.27-10.27Z"/>
        </g>
      </g>
    </g>
  </g>
</svg>