<?xml version="1.0" encoding="UTF-8"?>
<svg id="Layer_2" data-name="Layer 2" xmlns="http://www.w3.org/2000/svg" viewBox="0 0 240.33 240.33">
  <defs>
    <style>
      .cls-1 {
        fill: #7f2163;
      }

      .cls-2 {
        fill: #f9f9f9;
      }
    </style>
  </defs>
  <g id="Layer_1-2" data-name="Layer 1">
    <g>
      <circle class="cls-1" cx="120.16" cy="120.16" r="120.16"/>
      <polygon class="cls-2" points="185.83 98.53 185.83 146.49 198.94 146.49 198.94 96.18 185.83 98.53"/>
      <polygon class="cls-2" points="166.68 98.53 179.79 96.18 179.79 146.52 166.68 146.52 166.68 98.53"/>
      <rect class="cls-2" x="148.01" y="109.7" width="13.11" height="36.8"/>
      <path class="cls-2" d="M154.55,106.17c3.56,0,6.48-2.89,6.48-6.45s-2.89-6.48-6.48-6.48-6.45,2.89-6.45,6.48c0,3.56,2.89,6.45,6.45,6.45Z"/>
      <path class="cls-2" d="M140.63,109.17c-12.12.39-18.26,5.84-18.26,16.65v20.71h13.23v-16.9c0-6.48.83-9.26,8.53-9.5v-10.78c-1.33-.25-3.5-.17-3.5-.17h0Z"/>
      <path class="cls-2" d="M105.06,109.67c-.28.72-2.39,6.67-7.48,12.81v-26.29l-13.53,2.67v47.63h13.53v-14.73c3.92,5.89,5.86,14.73,5.86,14.73h16.2c-1.61-6.67-8.61-18.95-8.61-18.95,6.28-7.98,9.06-16.48,9.5-17.9h-15.48v.03Z"/>
      <path class="cls-2" d="M61.34,114.9c-1.67-.11-5.5-.36-5.5-3.81,0-4.17,5.53-4.17,7.59-4.17,3.64,0,8.37,1.08,11.73,2.09,0,0,1.89.67,3.47,1.34l.14.03v-11.39l-.19-.06c-3.97-1.39-8.59-2.72-17.18-2.72-14.79,0-20.01,8.61-20.01,15.98,0,4.25,1.83,14.26,18.76,15.42,1.44.08,5.25.3,5.25,3.89,0,2.95-3.11,4.7-8.37,4.7-5.75,0-11.31-1.47-14.7-2.86v11.75c5.06,1.34,10.78,2,17.48,2,14.45,0,20.93-8.14,20.93-16.23,0-9.17-7.22-15.12-19.39-15.95Z"/>
    </g>
  </g>
</svg>