<?xml version="1.0" encoding="UTF-8"?>
<svg id="Layer_2" data-name="Layer 2" xmlns="http://www.w3.org/2000/svg" viewBox="0 0 237.07 237.08">
  <defs>
    <style>
      .cls-1 {
        fill: #fff;
      }

      .cls-2 {
        fill: #fffc00;
      }
    </style>
  </defs>
  <g id="Layer_1-2" data-name="Layer 1">
    <g>
      <circle class="cls-1" cx="118.54" cy="118.54" r="118.54"/>
      <g>
        <path class="cls-2" d="M118.54,0C53.07,0,0,53.07,0,118.54s53.07,118.54,118.54,118.54,118.54-53.07,118.54-118.54S184,0,118.54,0ZM201.45,163.19c-1.45,3.4-8.79,6.22-21.22,8.14-1.17.18-1.66,2.06-2.33,5.15-.28,1.28-.56,2.52-.95,3.84-.36,1.23-1.17,1.84-2.46,1.84h-.2c-.84,0-2.03-.15-3.54-.45-2.63-.51-5.57-.99-9.32-.99-2.18,0-4.45.19-6.72.57-4.62.77-8.57,3.56-12.76,6.52-5.86,4.14-12.48,8.82-22.39,8.82-.47,0-.92-.02-1.26-.03-.27.02-.55.03-.83.03-9.9,0-16.53-4.68-22.37-8.82-4.19-2.96-8.14-5.75-12.77-6.52-2.27-.38-4.54-.57-6.72-.57-3.94,0-7.05.61-9.32,1.06-1.4.27-2.6.51-3.53.51s-2.16-.22-2.65-1.9c-.39-1.33-.67-2.62-.94-3.86-.68-3.1-1.17-5-2.33-5.18-12.42-1.92-19.76-4.74-21.23-8.16-.15-.36-.24-.72-.26-1.08-.06-1.02.66-1.91,1.67-2.08,9.87-1.62,18.64-6.84,26.07-15.5,5.76-6.71,8.59-13.12,8.89-13.82.01-.03.03-.06.04-.1,1.43-2.91,1.72-5.42.85-7.47-1.6-3.78-6.9-5.46-10.41-6.57-.87-.28-1.7-.54-2.35-.8-3.11-1.23-8.22-3.82-7.54-7.41.5-2.61,3.95-4.43,6.74-4.43.77,0,1.46.14,2.04.41,3.15,1.48,5.99,2.23,8.43,2.23,3.04,0,4.5-1.16,4.86-1.48-.09-1.62-.19-3.33-.3-4.95,0,0,0-.02,0-.02-.71-11.33-1.6-25.44,2.01-33.53,10.8-24.21,33.7-26.1,40.46-26.1.18,0,2.95-.03,2.95-.03.12,0,.26,0,.4,0,6.78,0,29.73,1.89,40.53,26.11,3.61,8.09,2.72,22.21,2,33.56l-.03.54c-.1,1.54-.19,3-.27,4.41.33.31,1.67,1.37,4.4,1.47,2.33-.09,5-.83,7.95-2.21.91-.43,1.92-.52,2.6-.52,1.03,0,2.09.2,2.96.57l.05.02c2.5.89,4.14,2.66,4.17,4.52.03,1.74-1.26,4.33-7.6,6.84-.65.26-1.48.52-2.36.8-3.51,1.11-8.81,2.8-10.41,6.57-.87,2.05-.58,4.56.85,7.47.02.03.03.06.05.1.44,1.04,11.13,25.4,34.97,29.33,1,.17,1.73,1.06,1.67,2.08-.02.37-.11.73-.27,1.09Z"/>
        <path d="M119.58,198.21c-.5,0-.98-.02-1.35-.04-.09.03-.42.04-.74.04-10.4,0-17.24-4.84-23.27-9.1-4.07-2.88-7.87-5.56-12.13-6.27-2.19-.36-4.37-.55-6.46-.55-3.77,0-6.79.59-8.99,1.02-1.67.33-2.82.55-3.86.55-2.71,0-3.76-1.65-4.17-3.04-.39-1.33-.68-2.62-.95-3.87-.3-1.37-.82-3.73-1.25-4.14-13.16-1.98-20.5-4.96-22.24-9.01-.23-.54-.35-1.08-.38-1.62-.1-1.82,1.18-3.42,2.98-3.72,9.49-1.56,17.95-6.59,25.14-14.97,5.58-6.49,8.34-12.73,8.64-13.42,1.3-2.64,1.57-4.72.89-6.33-1.32-3.12-6.21-4.66-9.43-5.68-1.02-.32-1.82-.58-2.47-.84-6.23-2.46-9.17-5.63-8.5-9.17.84-4.41,7.52-6.79,11-5.16,2.95,1.38,5.56,2.08,7.76,2.08,1.62,0,2.66-.38,3.23-.7-.07-1.31-.16-2.66-.24-3.95-.73-11.66-1.63-25.96,2.13-34.4,11.19-25.09,34.9-27.04,41.9-27.04l3.35-.03c7.02,0,30.78,1.95,41.98,27.05,3.76,8.45,2.86,22.77,2.13,34.29l-.03.54c-.08,1.23-.15,2.4-.22,3.54.53.28,1.45.63,2.85.68,1.99-.08,4.46-.78,7.21-2.07,1.17-.54,2.42-.66,3.27-.66,1.25,0,2.52.25,3.58.69,3.08,1.1,5.13,3.44,5.18,5.96.06,3.25-2.84,6.06-8.6,8.33-.67.27-1.54.55-2.45.84-3.23,1.03-8.12,2.57-9.44,5.68-.68,1.6-.41,3.68.81,6.15.51,1.18,10.8,24.76,33.86,28.56,1.8.3,3.09,1.9,2.99,3.73-.03.55-.16,1.09-.39,1.61h0c-1.73,4.05-9.06,7.02-22.43,9.09-.24.32-.77,2.76-1.03,3.92-.29,1.32-.58,2.59-.98,3.95-.56,1.92-1.97,2.97-3.97,2.97-1.12,0-2.38-.15-4.03-.47-2.57-.5-5.44-.96-9.02-.96-2.11,0-4.28.19-6.46.55-4.27.71-8.08,3.4-12.11,6.25-6.05,4.28-12.9,9.12-23.3,9.12ZM118.18,195.02c.55.01.96.03,1.4.03,9.4,0,15.81-4.53,21.46-8.53,4.34-3.07,8.44-5.96,13.42-6.79,2.35-.39,4.69-.59,6.98-.59,3.85,0,6.9.49,9.62,1.02,2.98.56,4.05.78,4.37-.29.37-1.28.65-2.49.92-3.73.7-3.23,1.31-6.01,3.63-6.37,16.82-2.6,19.57-6.17,20.01-7.2h0c.08-.2.13-.38.14-.56.01-.21-.14-.4-.35-.43-24.75-4.08-35.71-29.2-36.16-30.27-1.65-3.36-1.95-6.31-.9-8.8,1.89-4.44,7.6-6.25,11.38-7.45.84-.27,1.63-.52,2.25-.76,6.01-2.36,6.62-4.52,6.61-5.33-.02-1.18-1.28-2.41-3.12-3.07-1.32-.54-2.74-.92-4.42-.13-3.13,1.47-6.01,2.26-8.55,2.37-3.3-.13-4.97-1.37-5.54-1.9l-.54-.51.04-.73c.07-1.42.17-2.88.27-4.43l.03-.54c.7-11.19,1.58-25.09-1.87-32.83-10.42-23.36-32.56-25.18-39.09-25.18l-3.35.03c-6.52,0-28.61,1.82-39.02,25.16-3.45,7.72-2.58,21.6-1.88,32.75.11,1.76.22,3.44.3,5.02l.04.74-.54.5c-.62.57-2.44,1.9-5.92,1.9-2.67,0-5.74-.8-9.1-2.38-1.75-.82-6.15.69-6.56,2.89-.4,2.09,3.13,4.29,6.57,5.64.6.24,1.32.47,2.1.71,3.94,1.24,9.65,3.05,11.54,7.5,1.06,2.49.76,5.45-.89,8.78-.33.76-3.27,7.41-9.16,14.25-7.68,8.96-16.78,14.35-27.02,16.04-.21.03-.36.22-.35.43,0,.19.05.37.13.55.56,1.32,3.65,4.69,20.01,7.22,2.31.36,2.89,3.02,3.63,6.39.28,1.28.54,2.5.91,3.76.19.64.39.77,1.14.77.8,0,2.04-.25,3.23-.48,2.36-.46,5.55-1.08,9.63-1.08,2.27,0,4.61.2,6.98.58,4.97.83,9.06,3.71,13.38,6.77,5.7,4.03,12.11,8.56,21.5,8.56.23,0,.46-.02.69-.03Z"/>
      </g>
    </g>
  </g>
</svg>