<?xml version="1.0" encoding="UTF-8"?>
<svg id="Layer_2" data-name="Layer 2" xmlns="http://www.w3.org/2000/svg" viewBox="0 0 235.24 69.16">
  <defs>
    <style>
      .cls-1 {
        fill: #512d82;
      }

      .cls-2 {
        fill: #00a97c;
      }
    </style>
  </defs>
  <g id="Layer_1-2" data-name="Layer 1">
    <g>
      <path class="cls-2" d="M152.57,51.08V14.55h6.2v2.93c1.89-2.36,4.68-3.64,8.15-3.64,7.14,0,12.26,5.69,12.26,13.84s-5.15,13.94-12.26,13.94c-3.5,0-6.26-1.35-8.15-3.7v13.17h-6.2ZM158.77,24.31v6.73c1.31,2.73,3.67,4.71,7.07,4.71,4.11,0,6.87-3.06,6.87-8.12s-2.76-8.01-6.87-8.01c-3.4.03-5.76,1.89-7.07,4.68"/>
      <path class="cls-2" d="M183.18,33.34c0-4.44,2.76-7.54,7.34-8.12l10.54-1.35v-1.31c0-1.58-.81-2.42-2.29-2.42h-13.23v-5.62h13.47c5.35,0,8.28,2.63,8.28,7.27v19.02h-6.26v-3.2c-1.82,2.56-4.82,4.01-8.69,4.01-5.45,0-9.16-3.33-9.16-8.28M193.85,36.57c3.17,0,6.09-1.78,7.17-4.41v-3.3l-8.05,1.11c-2.22.3-3.47,1.48-3.47,3.4,0,2.05,1.58,3.2,4.34,3.2"/>
      <path class="cls-2" d="M211.8,45.46h4.51c1.72,0,2.49-.71,3.06-2.32l.81-2.32-9.56-26.3h6.47l5.96,18.32h.13l5.69-18.32h6.36l-10.47,30.2c-1.41,4.14-3.3,6.36-7.91,6.36h-5.05v-5.62h0Z"/>
      <path class="cls-1" d="M22.73,69.16c7.21,0,13.13-2.26,17.04-6.03,2.93-2.9,4.65-6.8,4.65-11.31,0-4.07-1.52-7.74-4.31-10.54s-6.8-4.85-11.85-5.83l-8.28-1.62c-3.43-.64-5.39-2.36-5.39-4.75,0-3.13,3.03-5.29,7.88-5.29,3.03,0,5.62.98,7.34,2.69,1.08,1.18,1.82,2.69,2.05,4.41l11.95-2.69c-.34-3.43-1.95-6.47-4.41-8.96-3.94-3.87-9.97-6.33-17.07-6.33-6.57,0-12.05,2.16-15.86,5.59-3.23,3.03-5.05,7.1-5.05,11.65,0,3.97,1.28,7.34,3.87,9.9,2.59,2.59,6.36,4.51,11.31,5.72l8.18,1.95c4.11.98,5.93,2.49,5.93,5.19,0,3.33-3.03,5.29-7.98,5.29-3.57,0-6.47-1.18-8.28-3.13-1.28-1.28-2.05-3.03-2.16-4.95l-12.29,2.69c.34,3.67,2.05,6.9,4.65,9.5,4.07,4.28,10.67,6.84,18.08,6.84M113.71,69.16c7.98,0,14.11-2.9,18.32-7,3.33-3.23,5.39-7,6.47-10.88l-12.59-4.21c-.54,1.95-1.62,4.01-3.33,5.59-2.05,1.95-4.85,3.33-8.86,3.33-3.67,0-7.1-1.41-9.6-3.87-2.49-2.59-4.01-6.36-4.01-11.11s1.52-8.52,4.01-11.11c2.46-2.49,5.83-3.77,9.5-3.77,3.87,0,6.57,1.28,8.52,3.23,1.62,1.62,2.59,3.67,3.23,5.72l12.83-4.31c-.98-3.77-3.03-7.54-6.03-10.67-4.31-4.21-10.57-7.21-18.86-7.21-7.64,0-14.55,2.9-19.5,7.88-4.95,5.05-7.98,12.09-7.98,20.27s3.13,15.19,8.18,20.27c4.92,4.95,11.92,7.85,19.7,7.85M70.17,69.16c5.59,0,9.6-1.72,11.31-3.23v-11.65c-1.31.98-3.87,2.16-7.24,2.16-2.39,0-4.11-.54-5.39-1.72-1.08-1.08-1.62-2.93-1.62-5.39V0h-14.24v14.55h28.45v13.81h-28.45v24.48c0,4.95,1.52,8.96,4.21,11.75,3.03,2.96,7.47,4.58,12.96,4.58"/>
    </g>
  </g>
</svg>