<?xml version="1.0" encoding="UTF-8"?>
<svg id="Layer_2" data-name="Layer 2" xmlns="http://www.w3.org/2000/svg" viewBox="0 0 227.53 94.68">
  <defs>
    <style>
      .cls-1 {
        fill-rule: evenodd;
      }

      .cls-1, .cls-2 {
        fill: #635bff;
      }
    </style>
  </defs>
  <g id="Layer_1-2" data-name="Layer 1">
    <g>
      <path class="cls-1" d="M227.53,48.92c0-16.18-7.84-28.95-22.82-28.95s-24.14,12.77-24.14,28.82c0,19.02,10.74,28.63,26.17,28.63,7.52,0,13.21-1.71,17.51-4.11v-12.64c-4.3,2.15-9.23,3.48-15.48,3.48s-11.57-2.15-12.26-9.61h30.91c0-.82.13-4.11.13-5.63ZM196.31,42.91c0-7.14,4.36-10.11,8.34-10.11s7.96,2.97,7.96,10.11h-16.31Z"/>
      <path class="cls-1" d="M156.17,19.97c-6.19,0-10.18,2.91-12.39,4.93l-.82-3.92h-13.9v73.69l15.8-3.35.06-17.89c2.28,1.64,5.63,3.98,11.19,3.98,11.31,0,21.62-9.1,21.62-29.14-.06-18.33-10.49-28.31-21.55-28.31ZM152.38,63.52c-3.73,0-5.94-1.33-7.46-2.97l-.06-23.45c1.64-1.83,3.92-3.1,7.52-3.1,5.75,0,9.73,6.45,9.73,14.73s-3.92,14.79-9.73,14.79Z"/>
      <polygon class="cls-1" points="107.32 16.24 123.18 12.83 123.18 0 107.32 3.35 107.32 16.24"/>
      <rect class="cls-2" x="107.32" y="21.05" width="15.86" height="55.3"/>
      <path class="cls-1" d="M90.32,25.72l-1.01-4.68h-13.65v55.3h15.8v-37.48c3.73-4.87,10.05-3.98,12.01-3.29v-14.54c-2.02-.76-9.42-2.15-13.15,4.68Z"/>
      <path class="cls-1" d="M58.72,7.33l-15.42,3.29-.06,50.63c0,9.35,7.02,16.24,16.37,16.24,5.18,0,8.97-.95,11.06-2.09v-12.83c-2.02.82-12.01,3.73-12.01-5.63v-22.44h12.01v-13.46h-12.01l.06-13.72Z"/>
      <path class="cls-1" d="M15.99,37.1c0-2.46,2.02-3.41,5.37-3.41,4.8,0,10.87,1.45,15.67,4.04v-14.85c-5.25-2.09-10.43-2.91-15.67-2.91C8.53,19.97,0,26.67,0,37.86c0,17.44,24.02,14.66,24.02,22.18,0,2.91-2.53,3.86-6.07,3.86-5.25,0-11.95-2.15-17.25-5.06v15.04c5.88,2.53,11.82,3.6,17.25,3.6,13.15,0,22.18-6.51,22.18-17.82-.06-18.83-24.14-15.48-24.14-22.56Z"/>
    </g>
  </g>
</svg>