<?xml version="1.0" encoding="UTF-8"?>
<svg id="Layer_2" data-name="Layer 2" xmlns="http://www.w3.org/2000/svg" viewBox="0 0 33.08 33.08">
  <defs>
    <style>
      .cls-1 {
        fill: #fff;
      }
    </style>
  </defs>
  <g id="ELEMENTS">
    <g>
      <path d="M16.54,0C7.4,0,0,7.41,0,16.54H0c0,9.14,7.41,16.54,16.54,16.54h0c9.14,0,16.54-7.41,16.54-16.54C33.08,7.4,25.68,0,16.54,0Z"/>
      <path class="cls-1" d="M20.84,15.74c.09.04.17.08.25.11,1.16.56,2,1.39,2.45,2.43.62,1.45.68,3.8-1.2,5.67-1.43,1.43-3.18,2.08-5.65,2.1h-.01c-2.78-.02-4.92-.95-6.36-2.78-1.28-1.62-1.94-3.89-1.96-6.72h0v-.02c.02-2.83.68-5.1,1.96-6.72,1.44-1.83,3.58-2.76,6.36-2.78h.01c2.79.02,4.95.95,6.43,2.77.73.9,1.27,1.98,1.61,3.24l-1.6.43c-.28-1.02-.71-1.89-1.28-2.59-1.16-1.42-2.89-2.15-5.17-2.16-2.26.02-3.97.75-5.08,2.16-1.04,1.32-1.58,3.23-1.6,5.67.02,2.44.56,4.35,1.6,5.68,1.11,1.41,2.82,2.14,5.08,2.16,2.04-.02,3.38-.5,4.51-1.62,1.28-1.28,1.26-2.85.85-3.8-.24-.56-.68-1.03-1.26-1.38-.15,1.07-.47,1.91-.98,2.57-.68.86-1.64,1.33-2.88,1.4-.94.05-1.83-.17-2.53-.63-.82-.55-1.31-1.38-1.36-2.35-.1-1.91,1.41-3.29,3.77-3.42.84-.05,1.62-.01,2.35.11-.1-.59-.29-1.05-.58-1.39-.4-.46-1.01-.7-1.83-.71h-.03c-.66,0-1.55.18-2.11,1.04l-1.36-.94c.76-1.15,1.99-1.79,3.48-1.79h.03c2.48.02,3.96,1.57,4.11,4.27h0s0,0,0,0ZM14.66,18.46c.05.99,1.13,1.46,2.16,1.4,1.01-.06,2.16-.45,2.36-2.9-.52-.11-1.1-.17-1.72-.17-.19,0-.38,0-.57.02-1.7.1-2.27.92-2.23,1.66h0Z"/>
    </g>
  </g>
</svg>