<?xml version="1.0" encoding="UTF-8"?>
<svg id="Layer_2" data-name="Layer 2" xmlns="http://www.w3.org/2000/svg" viewBox="0 0 237.07 237.07">
  <defs>
    <style>
      .cls-1 {
        fill-rule: evenodd;
      }

      .cls-2 {
        fill: #fff;
      }
    </style>
  </defs>
  <g id="Layer_1-2" data-name="Layer 1">
    <g>
      <circle class="cls-2" cx="118.54" cy="118.54" r="118.54"/>
      <path class="cls-1" d="M118.54,0c65.47,0,118.54,53.07,118.54,118.54s-53.07,118.54-118.54,118.54S0,184,0,118.54,53.07,0,118.54,0ZM141.87,101.62l-23.32,23.33,23.33,23.33-23.33,23.33-23.33-23.33,23.33-23.33-23.33-23.33,23.33-23.32,23.33,23.32,23.33-23.33,23.33,23.33-23.33,23.33-23.33-23.33h0ZM95.21,101.62l-23.33,23.33-23.33-23.33,23.33-23.33,23.33,23.33h0Z"/>
    </g>
  </g>
</svg>