<?xml version="1.0" encoding="UTF-8"?>
<svg id="Layer_2" data-name="Layer 2" xmlns="http://www.w3.org/2000/svg" viewBox="0 0 237.07 237.07">
  <defs>
    <style>
      .cls-1 {
        fill: #00d5d8;
      }

      .cls-1, .cls-2, .cls-3 {
        fill-rule: evenodd;
      }

      .cls-2, .cls-4 {
        fill: #fff;
      }

      .cls-3 {
        fill: #ff2360;
      }
    </style>
  </defs>
  <g id="Layer_1-2" data-name="Layer 1">
    <g>
      <circle class="cls-4" cx="118.54" cy="118.54" r="118.54"/>
      <g>
        <path d="M118.54,0c65.47,0,118.54,53.07,118.54,118.54s-53.07,118.54-118.54,118.54S0,184,0,118.54,53.07,0,118.54,0"/>
        <g>
          <path class="cls-3" d="M152.84,96.18c10.38,7.42,23.1,11.78,36.83,11.78v-26.42c-2.6,0-5.19-.27-7.74-.81v20.8c-13.73,0-26.45-4.36-36.83-11.78v53.91c0,26.97-21.87,48.83-48.85,48.83-10.07,0-19.42-3.04-27.2-8.26,8.87,9.07,21.24,14.69,34.93,14.69,26.98,0,48.86-21.86,48.86-48.83v-53.91h0ZM162.38,69.53c-5.3-5.79-8.79-13.28-9.54-21.56v-3.4h-7.33c1.84,10.52,8.14,19.51,16.87,24.95h0ZM86.12,163.54c-2.96-3.89-4.56-8.64-4.56-13.52,0-12.33,10-22.33,22.35-22.33,2.3,0,4.59.35,6.78,1.05v-27.01c-2.56-.35-5.15-.5-7.73-.44v21.02c-2.19-.69-4.48-1.05-6.78-1.05-12.34,0-22.35,10-22.35,22.34,0,8.72,5,16.27,12.29,19.95Z"/>
          <path class="cls-2" d="M145.11,89.75c10.38,7.42,23.1,11.78,36.83,11.78v-20.8c-7.67-1.63-14.45-5.64-19.56-11.21-8.73-5.45-15.03-14.44-16.87-24.95h-19.25v105.51c-.04,12.3-10.03,22.26-22.35,22.26-7.26,0-13.71-3.46-17.79-8.81-7.29-3.68-12.29-11.23-12.29-19.95,0-12.33,10-22.34,22.35-22.34,2.36,0,4.64.37,6.78,1.05v-21.02c-26.51.55-47.82,22.19-47.82,48.82,0,13.29,5.31,25.34,13.92,34.14,7.77,5.22,17.13,8.26,27.2,8.26,26.98,0,48.85-21.86,48.85-48.83v-53.91h0Z"/>
          <path class="cls-1" d="M181.94,80.74v-5.62c-6.91.01-13.69-1.93-19.56-5.58,5.19,5.68,12.03,9.6,19.56,11.21ZM145.51,44.58c-.18-1.01-.31-2.02-.41-3.03v-3.4h-26.58v105.52c-.04,12.3-10.03,22.26-22.35,22.26-3.62,0-7.03-.86-10.05-2.38,4.08,5.36,10.53,8.81,17.79,8.81,12.31,0,22.3-9.96,22.35-22.26V44.58h19.25ZM102.96,101.28v-5.99c-2.22-.3-4.46-.45-6.7-.45-26.98,0-48.86,21.86-48.86,48.83,0,16.91,8.6,31.81,21.66,40.57-8.62-8.8-13.93-20.85-13.93-34.14,0-26.62,21.32-48.27,47.83-48.82h0Z"/>
        </g>
      </g>
    </g>
  </g>
</svg>