<?xml version="1.0" encoding="UTF-8"?>
<svg id="Layer_2" data-name="Layer 2" xmlns="http://www.w3.org/2000/svg" viewBox="0 0 230.97 54.22">
  <defs>
    <style>
      .cls-1 {
        fill: #01a4f1;
      }
    </style>
  </defs>
  <g id="Layer_1-2" data-name="Layer 1">
    <g>
      <path d="M148.85,26.64c-1.53,0-3.06,0-4.59,0-.72,0-.72,0-.86.7-.9,4.52-1.79,9.04-2.69,13.57-.2,1.01-.05.97-1.19.97-2.32,0-4.63,0-6.95,0-.82,0-.85-.03-.69-.8,1.63-8.17,3.25-16.35,4.88-24.52.89-4.46,1.77-8.92,2.65-13.39.17-.85.32-1.7.5-2.55.12-.59.14-.61.76-.61,3.06,0,6.12,0,9.18,0,2.62,0,5.24,0,7.85,0,2.02,0,4.02.14,5.99.61,1.67.4,3.21,1.05,4.43,2.33,1.07,1.12,1.61,2.49,1.84,3.99.29,1.96.12,3.89-.24,5.82-.4,2.15-1,4.23-1.97,6.19-1.95,3.92-5.15,6.19-9.38,7.08-2.1.44-4.22.59-6.36.59-1.05,0-2.09,0-3.14,0ZM151.82,7.32c-1.43,0-2.6,0-3.76,0-.68,0-.69.01-.82.68-.69,3.51-1.39,7.02-2.08,10.53-.15.78-.14.8.63.79,2.43,0,4.87.04,7.3-.09.87-.04,1.73-.12,2.58-.29,1.99-.38,3.49-1.4,4.29-3.32.65-1.58,1.05-3.22,1.09-4.92.04-1.46-.41-2.38-2.1-2.9-.73-.22-1.49-.31-2.26-.38-1.71-.16-3.42-.1-4.86-.11Z"/>
      <path d="M184.18,39.91c-.09.05-.17.07-.23.12-1.92,1.41-4.11,2.12-6.43,2.42-2.12.28-4.26.3-6.38-.08-.86-.15-1.68-.41-2.46-.81-1.62-.85-2.53-2.19-2.77-4-.27-2.09.17-4.09.91-6.03,1.28-3.31,3.66-5.53,6.96-6.79,1.48-.56,3.03-.81,4.58-1.04,2.79-.41,5.57-.83,8.36-1.25.7-.11.7-.12.85-.85.09-.45.18-.91.26-1.36.04-.24.07-.48.07-.72.02-1.22-.51-1.91-1.69-2.24-.55-.15-1.11-.22-1.67-.25-1.27-.08-2.53-.05-3.79.19-1.36.25-2.29,1.02-2.85,2.27-.08.18-.18.36-.24.55-.12.42-.39.55-.81.55-1.45-.01-2.9,0-4.35,0-.75,0-1.49,0-2.24,0-.5-.01-.58-.11-.45-.59.53-1.94,1.3-3.76,2.57-5.35,1.33-1.66,3.06-2.71,5.05-3.37,1.79-.6,3.65-.85,5.52-.93,2.36-.11,4.71-.08,7.05.32,1.46.25,2.87.64,4.12,1.48,1.54,1.03,2.28,2.49,2.41,4.31.11,1.53-.24,3-.53,4.48-1.31,6.61-2.62,13.23-3.94,19.84-.25,1.24-.08,1.12-1.38,1.12-1.93,0-3.87,0-5.8,0-.12,0-.24,0-.36,0-.54-.02-.58-.06-.49-.62.05-.32.13-.63.19-.95.02-.12.07-.24-.05-.4ZM178.53,36.5c.45.02.88-.06,1.32-.11,2.57-.25,4.39-1.52,5.38-3.94.51-1.24.73-2.55,1-3.85.17-.85.16-.85-.7-.71-1.73.28-3.45.55-5.18.83-.99.16-1.98.34-2.92.71-1.29.51-2.18,1.4-2.62,2.73-.21.62-.3,1.25-.29,1.9.02,1.04.43,1.63,1.41,2.02.84.34,1.73.33,2.61.41Z"/>
      <path d="M211.36,33.01c.22-.19.28-.41.38-.61,3.44-6.88,6.88-13.76,10.32-20.64.05-.11.11-.21.16-.33.12-.3.35-.42.67-.41.4.01.81,0,1.21,0,1.99,0,3.99,0,5.98,0,.16,0,.32,0,.48,0,.45.03.51.13.29.52-.81,1.46-1.62,2.92-2.43,4.38-1.73,3.12-3.46,6.23-5.19,9.35-1.68,3.03-3.36,6.05-5.04,9.08-1.53,2.76-3.07,5.53-4.6,8.29-1.35,2.43-2.67,4.88-4.34,7.11-.9,1.2-1.92,2.28-3.22,3.06-1.2.71-2.51,1.09-3.88,1.25-2.05.23-4.1.16-6.15-.01-.62-.05-.67-.12-.54-.76.34-1.72.68-3.44,1.02-5.15.12-.62.17-.68.79-.61,1.11.13,2.21.05,3.3-.15,1.22-.22,2.19-.88,2.97-1.83.56-.69.98-1.47,1.37-2.27.21-.44.26-.85.13-1.33-.96-3.64-1.75-7.32-2.45-11.02-.71-3.76-1.3-7.54-1.78-11.33-.32-2.52-.56-5.04-.8-7.56-.09-.96-.06-1,.89-1,2.4,0,4.79,0,7.19,0,.14,0,.28,0,.42,0,.38.04.44.09.46.48.04.66.08,1.33.09,1.99.03,2.64.23,5.27.48,7.89.35,3.67.9,7.31,1.61,10.93.04.21.06.43.2.68Z"/>
      <path class="cls-1" d="M107.05,19.88c-1.15,0-2.3,0-3.44,0-.58,0-.6-.04-.66-.61-.03-.34-.07-.68-.14-1.02-.15-.75-.58-1.26-1.33-1.5-.43-.13-.86-.25-1.3-.26-1.41-.03-2.82-.11-4.22.11-.64.1-1.25.29-1.82.61-1.1.61-1.42,1.94-1.29,2.79.07.46.34.81.72,1.07.61.41,1.3.62,2.01.8,2.44.61,4.88,1.22,7.32,1.83,1.29.33,2.56.72,3.74,1.36,1.04.57,1.94,1.3,2.51,2.37.54,1,.7,2.08.64,3.21-.07,1.36-.36,2.67-.84,3.94-.6,1.61-1.5,3.03-2.77,4.19-1.59,1.46-3.48,2.38-5.55,2.95-2.09.58-4.22.84-6.38.85-1.82.01-3.62-.05-5.41-.38-1.9-.35-3.7-.95-5.26-2.15-.97-.74-1.66-1.69-2.11-2.82-.56-1.38-.6-2.83-.47-4.28.05-.6.15-.67.77-.67,2.28,0,4.55,0,6.83,0,.64,0,.68.06.64.7-.03.49.04.97.17,1.43.22.78.77,1.26,1.49,1.55.51.21,1.04.32,1.58.39,1.83.23,3.66.21,5.47-.11.88-.16,1.72-.41,2.36-1.11.72-.79.94-1.72.8-2.74-.07-.54-.49-.87-.93-1.12-.67-.38-1.4-.62-2.14-.8-2.67-.67-5.35-1.33-8.03-2.02-1.11-.29-2.2-.65-3.2-1.25-1.7-1.02-2.56-2.53-2.59-4.49-.05-2.88.7-5.54,2.47-7.85,1.09-1.43,2.54-2.4,4.18-3.09,1.99-.83,4.08-1.2,6.22-1.38,1.37-.11,2.74-.14,4.1-.08,2.04.08,4.06.3,5.97,1.09,2.42,1,3.74,2.81,4.04,5.41.1.83.04,1.65-.03,2.47-.04.5-.13.59-.64.59-1.17.01-2.34,0-3.5,0h0Z"/>
      <path class="cls-1" d="M67.39,39.1c-.22.02-.3.15-.39.25-1.68,1.66-3.72,2.57-6.01,3-1.09.21-2.2.3-3.3.3-1.79,0-3.58-.08-5.3-.68-2.23-.77-3.43-2.36-3.79-4.65-.26-1.71-.15-3.42.18-5.11.94-4.9,1.92-9.8,2.88-14.7.37-1.9.75-3.79,1.12-5.69.14-.69.16-.7.88-.7,2.26,0,4.51,0,6.77,0,.04,0,.08,0,.12,0,.54.02.58.07.48.62-.07.4-.16.79-.24,1.18-1.02,5.13-2.04,10.27-3.06,15.4-.2.99-.36,1.98-.56,2.97-.12.62-.13,1.24-.1,1.87.04,1.28.69,2.12,1.94,2.44,1.1.28,2.22.37,3.36.27.78-.07,1.56-.16,2.31-.41,1.37-.44,2.31-1.34,3.01-2.56.7-1.22,1.06-2.57,1.33-3.93,1.13-5.67,2.25-11.33,3.38-17,.02-.1.04-.2.06-.3.13-.5.17-.55.7-.55,2.32,0,4.63,0,6.95,0,.02,0,.04,0,.06,0,.54.02.6.08.49.62-.22,1.13-.44,2.25-.66,3.38-1.46,7.35-2.92,14.69-4.38,22.04-.27,1.34-.52,2.69-.79,4.03-.12.62-.18.67-.79.67-2.13,0-4.27,0-6.4,0-.08,0-.16,0-.24,0-.34-.04-.41-.12-.35-.47.1-.58.22-1.15.33-1.72.03-.18.1-.35.03-.56Z"/>
      <path class="cls-1" d="M18.31.02c5.32,0,10.63,0,15.95,0q.99,0,.8.98c-.38,1.92-.76,3.83-1.15,5.75-.13.66-.16.68-.83.68-3.56,0-7.13,0-10.69,0-1.36,0-1.15.12-1.35,1.12-1.18,5.92-2.35,11.85-3.53,17.77-.85,4.29-1.7,8.57-2.55,12.86-.14.69-.26,1.39-.41,2.07-.12.54-.18.59-.73.59-2.5,0-4.99,0-7.49,0-.58,0-.62-.06-.49-.71.61-3.06,1.22-6.12,1.83-9.18.9-4.52,1.8-9.04,2.69-13.57.67-3.36,1.33-6.72,1.99-10.07.15-.75.08-.85-.68-.87-.62-.02-1.25,0-1.87,0-2.74,0-5.48,0-8.22,0-.36,0-.72.02-1.09.04-.46.02-.53-.04-.46-.51,0-.06.02-.12.03-.18C.46,4.77.86,2.76,1.26.74c.02-.12.06-.24.08-.35.05-.23.18-.35.42-.36.2,0,.4,0,.6,0,5.32,0,10.63,0,15.95,0Z"/>
      <path class="cls-1" d="M128.79,17.79c-.64,0-1.29,0-1.93,0-.59,0-.64.05-.76.63-.31,1.58-.62,3.16-.93,4.74-.61,3.08-1.22,6.16-1.82,9.24-.13.67-.23,1.35-.19,2.04.04.76.39,1.18,1.15,1.33.88.18,1.76.17,2.65.1.08,0,.16-.03.24-.04.61-.07.69,0,.58.6-.25,1.3-.52,2.61-.78,3.91-.07.36-.14.71-.2,1.07-.06.35-.26.52-.61.55-.66.07-1.32.17-1.98.22-1.93.15-3.85.27-5.78.03-.83-.1-1.62-.31-2.36-.71-.67-.36-1.13-.9-1.39-1.61-.31-.87-.39-1.77-.31-2.68.16-1.85.51-3.67.87-5.48.86-4.36,1.73-8.73,2.59-13.09.17-.85.15-.86-.69-.87-.79,0-1.57,0-2.36,0-.74,0-.78-.05-.65-.75.35-1.78.7-3.56,1.05-5.33.1-.49.17-.56.68-.57.87-.01,1.73,0,2.6,0q.87,0,1.04-.87c.37-1.9.74-3.79,1.11-5.69.04-.2.09-.39.12-.59.05-.31.24-.45.55-.44.1,0,.2,0,.3,0,2.19,0,4.39,0,6.58,0,.82,0,.86.05.7.87-.38,1.94-.77,3.87-1.15,5.81-.02.1-.05.2-.06.3-.06.5.02.61.54.62,1.17.01,2.34,0,3.5,0,.18,0,.36,0,.54,0,.4.03.48.13.43.54,0,.08-.03.16-.05.24-.34,1.72-.68,3.44-1.02,5.15-.13.65-.2.71-.89.71-.64,0-1.29,0-1.93,0h0Z"/>
      <path class="cls-1" d="M38.5,14.5c.73-.81,1.38-1.5,2.12-2.1,1.31-1.05,2.81-1.64,4.46-1.85,1.18-.16,2.36-.22,3.55-.02.5.08.54.13.45.63-.44,2.23-.88,4.46-1.34,6.69-.11.53-.22.61-.81.53-1.1-.14-2.21-.14-3.31.02-2.19.31-3.86,1.41-5.04,3.27-.91,1.45-1.48,3.03-1.93,4.67-.71,2.61-1.16,5.27-1.69,7.91-.46,2.27-.9,4.54-1.36,6.81-.02.1-.04.2-.07.29-.11.44-.15.48-.62.49-2.36,0-4.71,0-7.07,0-.55,0-.61-.1-.5-.67.39-2.02.79-4.03,1.19-6.04.86-4.34,1.72-8.69,2.58-13.03.69-3.46,1.38-6.91,2.07-10.37.13-.65.17-.69.83-.69,2.09,0,4.19,0,6.28,0,.12,0,.24,0,.36.02.24.03.36.16.32.41-.09.49-.19.99-.28,1.48-.08.47-.24.93-.2,1.56Z"/>
    </g>
  </g>
</svg>