<?xml version="1.0" encoding="UTF-8"?>
<svg id="Layer_2" data-name="Layer 2" xmlns="http://www.w3.org/2000/svg" viewBox="0 0 237.07 237.07">
  <defs>
    <style>
      .cls-1 {
        fill: #fff;
      }

      .cls-2 {
        fill: #2f4f6e;
      }
    </style>
  </defs>
  <g id="Layer_1-2" data-name="Layer 1">
    <g>
      <circle class="cls-2" cx="118.54" cy="118.54" r="118.54"/>
      <path class="cls-1" d="M166.1,163.29v24.44s-.09.04-.14.06c-2.9,1.36-5.86,2.61-8.86,3.74-7.14,2.7-14.53,4.2-22.15,4.53-.67.03-1.34.07-2.02.11-1.48,0-4.62-.04-4.73-.04-2.36-.06-4.7-.25-7.04-.56-3.84-.51-7.58-1.39-11.21-2.75-5.77-2.15-10.85-5.34-15.06-9.87-3.27-3.51-5.46-7.55-6.32-12.3-.66-3.63-.92-7.28-.92-10.95-.01-18.22,0-36.86,0-55.09h-16.67v-22.22c1.84-.73,3.7-1.37,5.5-2.2,9.52-4.42,16.48-11.43,20.89-20.94,2.16-4.66,3.37-9.6,4.21-14.65.2-1.22.36-2.46.54-3.69h22.01v39.33h36.84v24.37h-36.85s.02,43.36.06,44.81c.08,3.29.24,6.58.74,9.85.54,3.51,2.3,6.23,5.26,8.17,2.9,1.9,6.09,2.99,9.53,3.36,3.42.37,6.82.11,10.19-.57,5.88-1.18,11.22-3.66,16.2-6.94Z"/>
    </g>
  </g>
</svg>