<?xml version="1.0" encoding="UTF-8"?>
<svg id="Layer_2" data-name="Layer 2" xmlns="http://www.w3.org/2000/svg" viewBox="0 0 237.07 237.07">
  <defs>
    <style>
      .cls-1 {
        fill: #6441a4;
      }

      .cls-2 {
        fill: #fff;
      }
    </style>
  </defs>
  <g id="Layer_1-2" data-name="Layer 1">
    <g>
      <circle class="cls-2" cx="118.54" cy="118.54" r="118.54"/>
      <g>
        <path class="cls-1" d="M99.32,170.4l19.45-19.45h36.12l22.22-22.22V56.49h-107.89v94.46h30.1v19.45ZM140.99,82.42h13.89v39.36h-13.89v-39.36ZM105.34,82.42h13.43v39.36h-13.43v-39.36Z"/>
        <path class="cls-1" d="M118.54,0h0C53.07,0,0,53.07,0,118.54H0C0,184,53.07,237.07,118.54,237.07h0c65.47,0,118.54-53.07,118.54-118.54h0C237.07,53.07,184,0,118.54,0ZM190.54,135.21l-39.36,39.36h-29.17l-18.98,19.45h-20.37v-19.45h-36.12v-105.57l10.19-25.93h133.82v92.14Z"/>
      </g>
    </g>
  </g>
</svg>