<?xml version="1.0" encoding="UTF-8"?>
<svg id="Layer_2" data-name="Layer 2" xmlns="http://www.w3.org/2000/svg" viewBox="0 0 226.61 66.54">
  <defs>
    <style>
      .cls-1 {
        fill: #231f20;
      }

      .cls-2 {
        fill: #f58020;
      }
    </style>
  </defs>
  <g id="Layer_1-2" data-name="Layer 1">
    <g>
      <path class="cls-2" d="M0,16.69c.05-.75.12-1.49.15-2.24.05-1.06.23-1.26,1.3-1.26,4.84-.01,9.68-.01,14.52,0,.98,0,1.22.24,1.2,1.23-.05,2.71-.14,5.42-.21,8.13-.02.65-.03,1.3-.05,1.96-.09,4.36-.17,8.71-.26,13.07-.05,2.64-.18,5.28-.14,7.92.02,1.47.22,2.94.5,4.39.7,3.62,2.89,5.87,6.47,6.81,3.11.82,6.11.78,8.92-1,2.39-1.52,4.01-3.67,4.67-6.4.38-1.55.61-3.18.6-4.77,0-6.59-.11-13.18-.22-19.76-.05-3.22-.2-6.45-.31-9.67,0-.27-.03-.55,0-.82.06-.77.32-1.03,1.09-1.07.38-.02.75-.01,1.13-.01,4.53,0,9.06,0,13.59,0,.21,0,.41,0,.62,0,.8.05,1.02.26,1.05,1.08.02.75.01,1.51-.03,2.26-.16,2.84-.35,5.68-.52,8.52-.04.68-.04,1.37-.04,2.06-.01,6.25-.08,12.49-.01,18.74.06,5.42.27,10.84.43,16.25.02.75.12,1.51.1,2.26-.02.98-.35,1.31-1.32,1.31-3.09,0-6.18-.01-9.27-.03-1.54-.01-3.09-.06-4.63-.08-1.5-.02-1.64-.14-1.61-1.67.01-.75.09-1.51.12-2.26.03-.55.12-1.11.03-1.64-.06-.36-.3-.8-.59-.96-.24-.13-.75,0-1.01.2-.87.67-1.66,1.43-2.52,2.12-2.19,1.77-4.42,3.51-7.2,4.28-1.15.32-2.35.48-3.52.72-.26.05-.52.13-.78.19h-4.94c-.19-.06-.39-.16-.58-.17-2.13-.16-4.2-.63-6.21-1.34-2.19-.77-4.22-1.85-5.86-3.51-2.49-2.5-3.8-5.57-4.24-9.05-.11-.88-.27-1.75-.41-2.62,0-11.06,0-22.11,0-33.17Z"/>
      <path class="cls-1" d="M226.61,52.12c-.4.14-.8.41-1.21.41-2.64.04-5.28,0-7.93.03-.7,0-1.11-.27-1.31-.9-.2-.62-.36-1.25-.59-1.86-.12-.33-.26-.76-.53-.91-.44-.26-.73.18-1.01.48-1.68,1.8-3.72,3.01-6.08,3.67-2.76.77-5.56.9-8.34.28-3.75-.84-6.25-3.16-7.4-6.83-.85-2.7-.91-5.47-.37-8.24.65-3.3,2.63-5.58,5.66-6.98,2.45-1.13,5.07-1.65,7.71-2.05,2.1-.32,4.19-.64,6.27-1.04.66-.13,1.31-.43,1.9-.76,2.2-1.24,2.21-4.51-.03-5.72-.79-.43-1.74-.72-2.63-.77-1.49-.08-3.03-.08-4.5.19-2.43.44-3.56,1.93-3.71,4.46,0,.13-.04.26-.08.49-.34.02-.67.06-1,.06-2.37,0-4.74,0-7.1,0-1.32,0-1.5-.26-1.42-1.61.14-2.27.72-4.39,2.08-6.25,1.96-2.68,4.69-4.16,7.85-4.9,2.86-.67,5.76-.75,8.69-.49,2.61.22,5.17.66,7.56,1.76,2.7,1.24,4.77,3.11,5.54,6.1.23.89.35,1.82.35,2.74.03,7.17.01,14.35.02,21.52,0,2.3.52,4.48,1.61,6.51v.62ZM215.14,36.54c0-.28,0-.83,0-1.38-.02-1.18-.25-1.31-1.37-.98-1.57.48-3.16.89-4.73,1.33-1.67.47-3.39.85-5.01,1.47-1.87.71-2.68,2.25-2.7,4.21-.03,2.18,1.19,3.87,3.33,4.34,1.02.22,2.12.24,3.16.15,2.27-.2,4.21-1.12,5.65-2.97,1.35-1.75,1.7-3.77,1.67-6.17Z"/>
      <path class="cls-2" d="M145.86,0c.21.11.41.24.63.33,3.79,1.61,4.44,6.34,1.19,8.83-1.58,1.21-3.39,1.31-5.15.52-1.79-.8-2.81-2.24-2.87-4.26-.08-2.55,1.02-4.21,3.39-5.16.19-.08.37-.17.55-.26.76,0,1.51,0,2.27,0Z"/>
      <path class="cls-1" d="M59.79,39.42c0-8.17,0-16.34,0-24.5,0-1.79.01-1.8,1.76-1.8,2.27,0,4.53,0,6.8,0,1.1,0,1.27.17,1.28,1.24.01.82,0,1.65,0,2.47,0,.38-.02.77.43.95.47.19.69-.18.92-.46,1.76-2.08,3.9-3.58,6.59-4.13,6.3-1.28,12,.85,15.65,6.48,1.87,2.87,2.87,6.04,3.24,9.43.42,3.85.34,7.67-.64,11.44-1.05,4.05-3.01,7.56-6.3,10.23-5.01,4.06-13.62,3.9-18.2-1.14-.14-.15-.27-.32-.44-.43-.48-.34-.95-.13-1.03.47-.04.27-.01.55-.01.82,0,4.56,0,9.13,0,13.69,0,1.36-.16,1.52-1.55,1.52-2.3,0-4.6,0-6.9,0-1.45,0-1.6-.14-1.6-1.58,0-8.24,0-16.47,0-24.71ZM69.85,33.52c-.06,2.02.21,4.18,1.04,6.25,2.35,5.84,8.98,5.85,11.96,3.45,1.53-1.23,2.44-2.86,2.98-4.7.85-2.95.84-5.95.35-8.96-.22-1.39-.62-2.73-1.3-3.98-1.58-2.87-4.1-4.03-7.26-3.89-3.09.13-5.29,1.67-6.54,4.52-1,2.27-1.27,4.67-1.24,7.32Z"/>
      <path class="cls-1" d="M110.9,26.06c-.36.03-.62.07-.89.07-2.44,0-4.87,0-7.31,0-1.18,0-1.4-.23-1.35-1.39.24-5.2,3.05-8.91,7.99-10.76,3.31-1.24,6.76-1.38,10.25-1.14,2.36.17,4.7.52,6.93,1.36,1.59.6,3.06,1.4,4.28,2.59,1.9,1.85,2.7,4.17,2.71,6.78.01,7,.03,14.01-.01,21.01-.01,2.31.41,4.49,1.38,6.57.43.94.17,1.38-.84,1.39-2.75.02-5.49,0-8.24.01-.57,0-.92-.25-1.09-.75-.25-.74-.49-1.49-.7-2.25-.23-.82-.73-1.01-1.3-.38-2.24,2.48-5.04,3.86-8.31,4.32-2.39.34-4.79.34-7.13-.38-3.08-.95-5.23-2.94-6.34-5.97-1.11-3.01-1.21-6.11-.51-9.21.63-2.84,2.29-4.93,4.88-6.28,2.24-1.18,4.65-1.81,7.13-2.2,2.26-.36,4.55-.64,6.8-1.06.93-.17,1.86-.52,2.68-.98,2.12-1.17,2.1-4.5-.03-5.68-.73-.4-1.6-.61-2.43-.75-1.6-.26-3.22-.26-4.8.15-2.32.59-3.66,2.11-3.64,4.24,0,.2-.05.4-.09.71ZM123.76,36.68c-.05,0-.11-.02-.16-.03,0-.55,0-1.1,0-1.65-.02-1.01-.28-1.15-1.28-.86-1.87.54-3.75,1.06-5.63,1.54-1.59.41-3.21.7-4.67,1.52-1.89,1.06-2.33,2.77-2.15,4.74.15,1.71,1.34,3.14,3.11,3.54,1.05.24,2.18.26,3.26.2,3.19-.17,5.93-2.21,6.86-5.19.38-1.22.46-2.54.67-3.82Z"/>
      <path class="cls-1" d="M153.66,39.87c.31-.02.65-.06.98-.06,2.57,0,5.15,0,7.72,0,1.23,0,1.28.03,1.55,1.27.42,1.9,1.54,3.2,3.37,3.82,2.6.88,5.26.94,7.89.15.72-.21,1.43-.7,1.96-1.25.98-1.01,1.25-2.88-.38-3.93-1.02-.66-2.18-1.17-3.35-1.5-2.73-.78-5.52-1.36-8.25-2.11-2.08-.57-4.09-1.38-5.95-2.5-2.86-1.72-4.38-4.23-4.54-7.59-.36-7.32,4.33-11.36,9.83-12.72,4.62-1.15,9.27-1.03,13.78.54,4.63,1.61,7.59,4.77,8.52,9.68.37,1.94.24,2.12-1.75,2.12-2.33,0-4.67,0-7,0-.57,0-.99-.11-1.12-.78-.46-2.52-2.21-3.71-4.54-4.11-1.66-.29-3.36-.27-5.01.17-1.25.33-2.26.96-2.58,2.36-.22.92,0,1.67.76,2.17.8.52,1.63,1.06,2.53,1.32,2.56.76,5.17,1.34,7.72,2.09,2.16.63,4.33,1.3,6.42,2.14,3.7,1.5,5.81,4.25,5.98,8.32.16,3.67-.64,7.01-3.36,9.69-1.55,1.52-3.41,2.52-5.45,3.18-4.02,1.29-8.14,1.47-12.31,1.08-2.66-.25-5.19-.92-7.51-2.28-3.99-2.33-5.89-5.88-6.09-10.42,0-.17,0-.34.02-.51.01-.1.07-.18.14-.35Z"/>
      <path class="cls-1" d="M149.23,31.41c.13,5.69.25,11.39.39,17.08.02.99.14,1.98.16,2.98.02.8-.24,1.07-1.03,1.08-2.74.02-5.49.02-8.23,0-.81,0-1.04-.33-1-1.2.42-8.12.61-16.25.51-24.38-.05-4.05-.22-8.09-.33-12.14,0-.24-.02-.48-.03-.72-.03-1.28.19-1.46,1.42-1.16,2.41.59,4.82.51,7.23-.02,1.1-.24,1.28-.12,1.26.99-.09,4.94-.2,9.88-.29,14.82-.02.89,0,1.78,0,2.68-.02,0-.05,0-.07,0Z"/>
    </g>
  </g>
</svg>