<?xml version="1.0" encoding="UTF-8"?>
<svg id="Layer_2" data-name="Layer 2" xmlns="http://www.w3.org/2000/svg" viewBox="0 0 150 207.35">
  <defs>
    <style>
      .cls-1 {
        fill: #0d56a3;
      }

      .cls-2 {
        fill: #0b0b0b;
      }

      .cls-3 {
        fill: #fbd501;
      }
    </style>
  </defs>
  <g id="Layer_1-2" data-name="Layer 1">
    <g id="surface1">
      <path class="cls-2" d="M106.23,156.79c0-2.24-.89-3.36-3.14-3.28h-21.88c-2.17,0-3.14.96-3.06,3.12.08,1.45,0,2.96,0,4.97-6.84-6.41-14.64-7.69-22.93-7.05-10.05.72-13.03,6.89-7.64,15.14.64.96,1.04,2.08,1.45,3.12,1.21,3.68.4,7.21-1.04,10.73-1.45,3.69-.64,6.33,2.57,8.41,2.49,1.6,5.15,1.76,7.88.4,7.08-3.52,13.52-8.01,19.63-13.54.08.56.08.72.08.96,0,4.17.08,8.25,0,12.42-.08,6.73-.24,6.49,6.52,6.41,3.7,0,4.1-.4,4.1-4.25,0-9.21.08-18.51-.08-27.72-.08-2.64,1.12-2.96,3.3-2.8,1.93.16,3.94-.56,3.86,2.73-.24,8.33-.08,16.66-.08,25.08q0,7.37,7.48,7.05c2.18-.08,3.06-.96,3.06-3.12-.16-13.06-.16-25.96-.08-38.78ZM72.76,170.18c-4.02,4.57-8.85,8.17-14.64,10.82-.16-2.41.96-4.09,1.12-6.09.32-2.88-.24-5.45-2.01-7.77-1.53-2-1.21-2.88,1.29-2.88,4.66-.08,9.01,1.04,13.11,3.29,1.05.48,2.33,1.28,1.12,2.64Z"/>
      <path class="cls-2" d="M38.08,170.02c-1.69.24-3.3.8-4.99,1.12-6.68,1.52-7.32.96-7-5.93.08-1.36.48-1.6,1.69-1.6,3.06.08,6.11,0,9.17,0,5.79,0,5.95-.16,5.88-6.09v-.8c-.08-2.16-1.05-3.36-3.38-3.29h-4.26c1.85-7.69-.48-12.42-6.84-13.86-2.09-.48-4.26-.24-6.44.08-5.31.88-10.62,2.25-15.53-1.44-1.61-1.2-3.05-.24-3.86,1.52-2.34,5.12-.08,8.97,5.55,9.93,4.91.8,9.65.08,14.48-.8,2.09-.4,4.11.8,4.02,2.48-.08,2.16-1.77,2.16-3.3,2.16H7.35c-6.92,0-6.84,0-6.76,6.97,0,2.32.89,3.29,3.22,3.2,3.54-.08,7,.08,10.54-.08,1.61-.08,2.18.32,2.09,2-.16,3.36-.08,6.81,0,10.25,0,3.77,1.37,5.13,4.99,5.69,3.14.48,6.04-.4,9.09-.72.73-.08,1.53-.8,2.25.08.72.88,0,1.76-.4,2.48-2.09,3.77-5.79,4.49-9.57,4.89-6.68.72-10.46-2.08-11.83-8.41-.56-2.57-.72-5.13-.72-7.77q0-5.53-5.55-5.53h-.56c-2.09-.24-3.14.8-3.46,2.8-.89,4.73-.96,9.45.16,14.1.8,3.6,2.25,6.97,4.91,9.69,4.82,4.97,11.02,5.93,17.46,5.45,16.98-1.28,21.4-11.94,19.39-25.56-.4-2.32-2.09-3.45-4.51-3.04Z"/>
      <path class="cls-2" d="M150,156.79c0-2.24-.96-3.36-3.22-3.36h-34.36c-1.93,0-3.05.88-2.98,2.96,0,2.8-.08,5.53,0,8.33.16,5.61,1.21,6.73,6.76,7.61,1.53.24,3.7.16,3.95,2.16.24,2.09-1.93,2.41-3.3,2.89-9.17,3.04-7.08,4.16-7.48,11.05v.8c.32,2.64.56,5.69,3.54,6.33,3.14.72,6.68,1.68,9.57-1.2,3.86-3.77,9.73-3.29,12.95,1.04.4.48.64,1.28,1.12,1.52,3.14,1.2,6.28,2.32,9.57.72,3.06-1.52,3.78-4.17,3.78-7.13v-16.42c.08-5.77.08-11.54.08-17.31ZM137.53,186.76c-4.27-.96-8.53-1.04-12.88-1.04-.96,0-2.25.24-2.49-.96-.32-1.28.88-1.84,1.85-2.25,1.69-.72,3.38-1.6,4.83-2.8,4.67-3.93,3.7-9.86-2.01-12.1-1.37-.48-2.73-.96-3.94-1.52-.72-.32-1.37-1.04-.96-2,.32-.8,1.12-.4,1.69-.4,2.17-.08,4.35,0,6.44,0,1.85,0,3.78.08,5.63,0,2.33-.16,3.3.96,3.38,3.12.08,3.53.16,6.97.24,10.5.08,2.48.24,4.97.4,7.45.08,1.6-.48,2.4-2.17,2Z"/>
      <path class="cls-2" d="M128.68,193.57c-4.02,0-7,2.96-7,6.89s2.98,6.89,7,6.89,6.84-2.96,6.84-7.05c-.08-3.85-2.98-6.73-6.84-6.73Z"/>
      <path class="cls-3" d="M44.44,19.55C44.44,8.75,35.65,0,24.81,0S5.18,8.75,5.18,19.55s8.79,19.55,19.63,19.55,19.63-8.75,19.63-19.55Z"/>
      <path class="cls-1" d="M144.29,19.55c0-10.8-8.79-19.55-19.63-19.55s-19.63,8.75-19.63,19.55,8.79,19.55,19.63,19.55,19.63-8.75,19.63-19.55Z"/>
      <path class="cls-1" d="M57.88,113.77c-.56,5.77,1.77,11.06,5.79,14.58,2.98,2.64,7,4.25,11.34,4.33,10.22.16,20.68-1.04,30.57-4.41,25.26-8.33,39.1-29.89,38.94-56v-8.73c0-2.56-.96-4.96-2.49-6.81-1.93-2.32-4.91-3.77-8.12-3.77h-15.53c-3.38,0-6.36,1.52-8.29,3.93-1.53,1.84-2.41,4.16-2.41,6.73v8.57c0,4.41-.96,9.54-3.05,13.06-2.57,4.48-6.2,7.21-11.34,9.29-6.12,2.4-12.55,3.45-19.15,3.84-4.02.24-7.64,1.84-10.54,4.41-3.21,2.57-5.31,6.49-5.71,10.98Z"/>
      <path class="cls-3" d="M91.67,113.77c.56,5.77-1.77,11.06-5.79,14.58-2.98,2.64-7,4.25-11.34,4.33-10.22.16-20.68-1.04-30.57-4.41-25.26-8.33-39.1-29.89-38.94-56v-8.73c0-2.56.96-4.96,2.5-6.81,1.93-2.32,4.91-3.77,8.12-3.77h15.53c3.38,0,6.36,1.52,8.29,3.93,1.53,1.84,2.41,4.16,2.41,6.73v8.57c0,4.41.97,9.54,3.06,13.06,2.57,4.48,6.2,7.21,11.34,9.29,6.11,2.4,12.55,3.45,19.15,3.84,4.02.24,7.64,1.84,10.54,4.41,3.22,2.57,5.31,6.49,5.71,10.98Z"/>
    </g>
  </g>
</svg>