<?xml version="1.0" encoding="UTF-8"?>
<svg id="Layer_2" data-name="Layer 2" xmlns="http://www.w3.org/2000/svg" viewBox="0 0 219.51 60.59">
  <defs>
    <style>
      .cls-1 {
        fill: #ed752e;
      }

      .cls-1, .cls-2, .cls-3 {
        fill-rule: evenodd;
      }

      .cls-2 {
        fill: #097939;
      }

      .cls-3 {
        fill: #747474;
      }
    </style>
  </defs>
  <g id="Layer_1-2" data-name="Layer 1">
    <g>
      <path class="cls-2" d="M188.07,58.61l31.44-28.68L204.62.26l-16.55,58.35Z"/>
      <path class="cls-1" d="M177.48,58.61l31.44-28.68L194.03.26l-16.55,58.35Z"/>
      <path class="cls-3" d="M27.24.6l-13.24,47.14,46.99.33L73.9.6h11.91l-15.48,55.19c-.59,2.11-2.85,3.82-5.04,3.82H5.07c-3.65,0-5.82-2.85-4.83-6.37L15,.6h12.24ZM172.52.27h11.91l-16.55,59.33h-12.25L172.52.27ZM87.14,24.99l59.57-.33,3.97-12.53h-60.56l3.64-11.54L158.29,0c4.02-.04,6.41,3.07,5.35,6.95l-6.08,22.22c-1.06,3.88-5.18,7.02-9.2,7.02h-53.28l-6.28,24.39h-11.59l9.93-35.6Z"/>
    </g>
  </g>
</svg>