<?xml version="1.0" encoding="UTF-8"?>
<svg id="Layer_2" data-name="Layer 2" xmlns="http://www.w3.org/2000/svg" viewBox="0 0 241.98 241.98">
  <defs>
    <style>
      .cls-1 {
        fill: #fff;
        fill-rule: evenodd;
      }

      .cls-2 {
        fill: #26a17b;
      }
    </style>
  </defs>
  <g id="Layer_1-2" data-name="Layer 1">
    <g>
      <circle class="cls-2" cx="120.99" cy="120.99" r="120.99"/>
      <path class="cls-1" d="M135.53,131.45v-.02c-.83.06-5.12.32-14.69.32-7.64,0-13.01-.23-14.9-.32v.02c-29.4-1.29-51.35-6.41-51.35-12.54s21.94-11.24,51.35-12.55v19.99c1.92.14,7.43.46,15.03.46,9.13,0,13.7-.38,14.56-.45v-19.99c29.34,1.31,51.23,6.43,51.23,12.54s-21.89,11.23-51.23,12.53M135.53,104.3v-17.89h40.94v-27.28h-111.47v27.28h40.94v17.88c-33.27,1.53-58.3,8.12-58.3,16.02s25.02,14.48,58.3,16.02v57.33h29.59v-57.35c33.22-1.53,58.18-8.11,58.18-16s-24.96-14.47-58.18-16.01"/>
    </g>
  </g>
</svg>