<?xml version="1.0" encoding="UTF-8"?>
<svg id="Layer_2" data-name="Layer 2" xmlns="http://www.w3.org/2000/svg" viewBox="0 0 234.51 75.9">
  <defs>
    <style>
      .cls-1 {
        fill: #faa61a;
      }

      .cls-2 {
        fill: #00579f;
      }
    </style>
  </defs>
  <g id="Layer_1-2" data-name="Layer 1">
    <g id="g4158">
      <polygon id="polygon9" class="cls-2" points="101.62 74.8 82.62 74.8 94.51 1.33 113.5 1.33 101.62 74.8"/>
      <path id="path11" class="cls-2" d="M170.49,3.13c-3.75-1.49-9.69-3.13-17.04-3.13-18.76,0-31.97,10-32.05,24.31-.16,10.55,9.46,16.41,16.65,19.93,7.35,3.6,9.85,5.94,9.85,9.15-.07,4.92-5.94,7.19-11.41,7.19-7.58,0-11.65-1.17-17.82-3.91l-2.5-1.17-2.66,16.49c4.46,2.03,12.66,3.83,21.19,3.91,19.93,0,32.91-9.85,33.06-25.09.08-8.36-5-14.77-15.95-20.01-6.64-3.36-10.71-5.63-10.71-9.07.08-3.13,3.44-6.33,10.94-6.33,6.18-.16,10.71,1.33,14.15,2.81l1.72.78,2.58-15.86h0Z"/>
      <path id="path13" class="cls-2" d="M195.73,48.77c1.56-4.22,7.58-20.56,7.58-20.56-.08.16,1.56-4.3,2.5-7.03l1.33,6.33s3.6,17.59,4.38,21.26h-15.79ZM219.18,1.33h-14.69c-4.53,0-7.97,1.33-9.93,6.1l-28.22,67.37h19.93s3.28-9.07,3.99-11.02h24.39c.55,2.58,2.27,11.02,2.27,11.02h17.59L219.18,1.33h0Z"/>
      <path id="path15" class="cls-2" d="M66.76,1.33l-18.6,50.1-2.03-10.16c-3.44-11.72-14.23-24.46-26.26-30.8l17.04,64.25h20.09L86.84,1.33h-20.09Z"/>
      <path id="path17" class="cls-1" d="M30.88,1.33H.31l-.31,1.48c23.84,6.1,39.63,20.79,46.12,38.46l-6.64-33.77c-1.09-4.69-4.46-6.02-8.6-6.18h0Z"/>
    </g>
  </g>
</svg>