<?xml version="1.0" encoding="UTF-8"?>
<svg id="Layer_2" data-name="Layer 2" xmlns="http://www.w3.org/2000/svg" viewBox="0 0 238.01 238.71">
  <defs>
    <style>
      .cls-1 {
        fill: #e60000;
      }

      .cls-2 {
        fill: #fff;
      }
    </style>
  </defs>
  <g id="Layer_1-2" data-name="Layer 1">
    <g>
      <path class="cls-1" d="M75.14,8.34c29.93-11.93,64.79-11.1,93.92,2.75-8.3-1.26-16.74-.31-24.96,1.08-22.32,4.21-43.52,14.71-60.1,30.31-15.89,15.62-27.03,36.35-30.18,58.53-2.08,15.71-.15,32.2,6.9,46.5,7.27,15.01,20.06,27.32,35.47,33.67,14.86,6.29,32.09,6.22,47.13.61,22.58-8.29,38.8-30.66,40.65-54.56,1.17-15.67-2.64-32.33-13.17-44.35-10.05-11.76-24.74-18.24-39.45-21.93-.79-14.5,6.04-28.83,16.88-38.26,6.02-5.43,13.49-8.88,21.21-11.1l.59-.2c22.11,10.6,40.89,28.08,52.86,49.55,10.25,18.27,15.6,39.33,15.07,60.31-.1,27.12-10.24,53.98-27.62,74.72-16.43,19.78-39.42,34.01-64.47,39.7-25.12,5.8-52.14,3.3-75.65-7.38-23-10.27-42.49-28.13-54.89-50.1C5.03,159.93-.43,138.88.03,117.88c.05-26.17,9.34-52.13,25.56-72.59,12.96-16.34,30.15-29.33,49.55-36.95h0Z"/>
      <path class="cls-2" d="M144.1,12.17c8.22-1.39,16.66-2.34,24.96-1.08l1.19.2-.8.3c-7.72,2.21-15.19,5.67-21.21,11.1-10.84,9.43-17.67,23.76-16.88,38.26,14.7,3.69,29.4,10.16,39.45,21.93,10.52,12.02,14.34,28.68,13.17,44.35-1.86,23.9-18.08,46.27-40.65,54.56-15.05,5.61-32.28,5.68-47.13-.61-15.42-6.35-28.21-18.66-35.47-33.67-7.05-14.3-8.98-30.79-6.9-46.5,3.15-22.18,14.28-42.91,30.18-58.53,16.58-15.6,37.78-26.1,60.1-30.31h0Z"/>
    </g>
  </g>
</svg>