<?xml version="1.0" encoding="UTF-8"?>
<svg id="Layer_2" data-name="Layer 2" xmlns="http://www.w3.org/2000/svg" viewBox="0 0 230.27 223.04">
  <defs>
    <style>
      .cls-1 {
        fill: #0068a3;
        fill-rule: evenodd;
      }
    </style>
  </defs>
  <g id="Layer_1-2" data-name="Layer 1">
    <path class="cls-1" d="M114.7,0c18.01,0,35.07,4.08,50.26,11.32,2.39,1.1,4.77,2.31,7.15,3.65l-10.56,9.19-15.86-15.95-26.78,23.22-15.9-16.88-49.88,43.71,31.98,34.26-12.57,10.75,31.5,34.31-12.49,10.72,45.01,48.7,26.72-23.91,23.1,25.62c-4.59,3.47-9.6,6.74-15.11,9.76-16.7,9.26-36.01,14.56-56.55,14.56C51.53,223.04,0,172.94,0,111.52S51.53,0,114.7,0ZM93.8,104.47l27.28-23.88,24.56,26.52-27.27,23.87-24.56-26.52ZM140.47,126.42l-27.28,23.87,24.56,26.52,27.28-23.88-24.56-26.52ZM74.28,59.19l27.28-23.87,24.55,26.52-27.28,23.87-24.55-26.52ZM144.79,28.43l-20.46,17.9,18.42,19.9,20.46-17.91-18.42-19.89ZM160.68,128.36l20.46-17.91,18.42,19.89-20.46,17.91-18.43-19.89ZM199.13,150.62l-20.45,17.91,18.42,19.88,20.46-17.91-18.42-19.89ZM186.92,76.46l13.64-11.94,12.28,13.26-13.63,11.94-12.28-13.26ZM183.13,25.13l-13.64,11.94,12.28,13.26,13.64-11.94-12.28-13.26ZM204.35,115.85l13.64-11.94,12.28,13.26-13.64,11.94-12.28-13.26ZM163.64,68.42l-20.45,17.91,18.42,19.88,20.45-17.91-18.42-19.89Z"/>
  </g>
</svg>