<?xml version="1.0" encoding="UTF-8"?>
<svg id="Layer_2" data-name="Layer 2" xmlns="http://www.w3.org/2000/svg" viewBox="0 0 248.38 248.38">
  <defs>
    <style>
      .cls-1 {
        fill: #ffdf1b;
      }
    </style>
  </defs>
  <g id="Layer_1-2" data-name="Layer 1">
    <g>
      <g>
        <circle class="cls-1" cx="124.19" cy="124.19" r="124.19"/>
        <polyline points="17.3 100.33 24.9 100.33 26.7 113.8 26.76 113.8 28.75 100.33 37.53 100.33 39.52 113.8 39.58 113.8 41.39 100.33 48.99 100.33 44.35 121.76 35.16 121.76 33.17 107.87 33.11 107.87 31.12 121.76 21.93 121.76 17.3 100.33"/>
        <polyline points="54.18 100.33 70.47 100.33 70.47 105.91 62.31 105.91 62.31 108.2 69.85 108.2 69.85 113.77 62.31 113.77 62.31 116.17 70.74 116.17 70.74 121.76 54.18 121.76 54.18 100.33"/>
        <path d="M88.09,106.42c-.03-1.34-.77-1.78-1.87-1.78-1.36,0-1.96.59-1.96,1.25,0,.77.51,1.1,1.39,1.36,1.64.47,4.63,1.07,6.79,1.99,2.7,1.13,3.89,3.05,3.89,5.64,0,5.25-4.27,7.45-10.33,7.45-5.16,0-9.91-1.6-9.91-7.18h8.13c0,.6.12,1.19.44,1.63.32.42.86.68,1.66.68,1.25,0,2.05-.8,2.05-1.75,0-.8-.62-1.22-1.43-1.45l-6.02-1.78c-3.29-.98-4.45-2.97-4.45-5.72,0-4.45,3.59-6.97,9.85-6.97,5.34,0,9.35,1.66,9.35,6.65h-7.59"/>
        <polyline points="106.46 106.09 101.18 106.09 101.18 100.33 120.22 100.33 120.22 106.09 114.95 106.09 114.95 121.76 106.46 121.76 106.46 106.09"/>
        <polyline points="125.98 100.33 142.27 100.33 142.27 105.91 134.12 105.91 134.12 108.2 141.65 108.2 141.65 113.77 134.12 113.77 134.12 116.17 142.54 116.17 142.54 121.76 125.98 121.76 125.98 100.33"/>
        <path d="M148.83,100.33h12.67c4.6,0,7.29,1.39,7.29,5.43,0,2.47-1.03,4.33-4.24,5.11v.06c2.08.18,3.21,1.1,3.63,2.73.47,1.84.41,4.87,1.39,8.1h-8.31c-.5-1.6-.77-4.31-1.06-6.14-.18-1.06-.72-1.49-2.08-1.49h-.98v7.63h-8.31v-21.42M157.85,109.27c1.63,0,2.82-.56,2.82-2.17s-1.1-1.9-2.76-1.9h-.77v4.07h.71Z"/>
        <polyline points="175.47 100.33 185.64 100.33 190.18 113.3 190.24 113.3 190.24 100.33 197.13 100.33 197.13 121.76 186.95 121.76 182.42 108.7 182.36 108.7 182.36 121.76 175.47 121.76 175.47 100.33"/>
        <path d="M96.17,140.19c0,5.16-3.71,7.74-10.18,7.74s-10.18-2.58-10.18-7.74v-14.24h8.49v13.89c0,1.69.8,2.34,1.69,2.34s1.69-.65,1.69-2.34v-13.89h8.49v14.24"/>
        <polyline points="103.19 125.95 113.37 125.95 117.91 138.91 117.97 138.91 117.97 125.95 124.85 125.95 124.85 147.37 114.67 147.37 110.13 134.31 110.08 134.31 110.08 147.37 103.19 147.37 103.19 125.95"/>
        <rect x="132.03" y="125.95" width="8.48" height="21.42"/>
        <path d="M158,125.38c7.39,0,11.06,4.6,11.06,11.27s-3.67,11.27-11.06,11.27-11.07-4.6-11.07-11.27c0-6.68,3.68-11.27,11.07-11.27M158,142.35c1.3,0,2.28-.74,2.28-5.7s-.92-5.7-2.28-5.7-2.29.86-2.29,5.7.98,5.7,2.29,5.7Z"/>
        <polyline points="175.47 125.95 185.64 125.95 190.18 138.91 190.24 138.91 190.24 125.95 197.13 125.95 197.13 147.37 186.95 147.37 182.42 134.31 182.36 134.31 182.36 147.37 175.47 147.37 175.47 125.95"/>
      </g>
      <rect x="203.3" y="99.91" width="2.71" height="47.53"/>
      <rect x="222.49" y="100.36" width="2.71" height="47.05"/>
      <path d="M227.54,102.9c0-1.57,1.28-2.85,2.86-2.85s2.85,1.28,2.85,2.85-1.27,2.86-2.85,2.86-2.86-1.28-2.86-2.86M232.8,102.9c0-1.39-1.01-2.47-2.4-2.47s-2.41,1.08-2.41,2.47,1.02,2.49,2.41,2.49c1.39,0,2.4-1.09,2.4-2.49ZM231.83,104.5h-.47l-.91-1.47h-.72v1.47h-.39v-3.19h1.39c.85,0,1.13.32,1.13.84,0,.62-.44.86-1,.87l.96,1.47ZM230.33,102.72c.45,0,1.12.07,1.12-.57,0-.5-.41-.56-.8-.56h-.92v1.13h.6Z"/>
    </g>
  </g>
</svg>