<?xml version="1.0" encoding="UTF-8"?>
<svg id="Layer_2" data-name="Layer 2" xmlns="http://www.w3.org/2000/svg" viewBox="0 0 237.07 237.56">
  <defs>
    <style>
      .cls-1 {
        fill: #fff;
      }

      .cls-2 {
        fill: #00e55e;
      }
    </style>
  </defs>
  <g id="Layer_1-2" data-name="Layer 1">
    <g>
      <circle class="cls-1" cx="118.54" cy="118.54" r="118.54"/>
      <g>
        <path class="cls-2" d="M119.29,56.33c-34.05,0-61.75,27.7-61.75,61.75,0,11.24,3.12,22.31,9.03,32.02l1.6,2.63-6.17,23.02,23.16-6.2,2.61,1.56c9.58,5.71,20.49,8.73,31.52,8.73,34.05,0,61.75-27.7,61.75-61.75,0-34.05-27.7-61.75-61.75-61.75ZM155.56,141.41c-2.3,5.58-8,9.16-13.79,10.26-5.53,1.05-10.09-.71-15.21-2.4-4.57-1.51-8.98-3.71-13.07-6.21-8.19-5.02-15.27-11.73-20.96-19.46-1.74-2.36-3.35-4.82-4.83-7.35-1.97-3.36-3.71-6.88-4.63-10.67-.38-1.57-.58-3.2-.6-4.82-.07-5.73,2.12-11.51,6.65-15.2,2.62-2.14,6.5-3.07,9.45-1.4,3.21,1.81,4.87,6.37,6.35,9.57,1.16,2.5,2.48,5.79,2,8.6-.48,2.81-2.71,5.18-4.48,7.27-1.2,1.41-1.38,2.61-.38,4.13,5.87,9.78,14.01,16.88,24.65,21.11,1.45.58,2.57.4,3.51-.76,1.83-2.26,3.64-6.7,6.48-7.86,3.69-1.51,7.77.58,10.9,2.46,2.92,1.74,7.8,3.89,8.59,7.49.38,1.74.04,3.58-.64,5.24Z"/>
        <path class="cls-2" d="M118.54.49C53.07.49,0,53.56,0,119.02s53.07,118.54,118.54,118.54,118.54-53.07,118.54-118.54c0-65.47-53.07-118.54-118.54-118.54ZM119.29,194.23c-12.6,0-25.05-3.18-36.19-9.23l-41.45,11.11,11.05-41.24c-6.26-11.29-9.55-23.94-9.55-36.78,0-41.98,34.16-76.14,76.14-76.14s76.15,34.16,76.15,76.14c0,41.98-34.16,76.14-76.14,76.14Z"/>
      </g>
    </g>
  </g>
</svg>