<?xml version="1.0" encoding="UTF-8"?>
<svg id="Layer_2" data-name="Layer 2" xmlns="http://www.w3.org/2000/svg" viewBox="0 0 237.07 237.34">
  <defs>
    <style>
      .cls-1 {
        fill: #fff;
      }
    </style>
  </defs>
  <g id="Layer_1-2" data-name="Layer 1">
    <g>
      <circle class="cls-1" cx="118.54" cy="118.54" r="118.54"/>
      <g>
        <polygon points="119.97 107.39 85.35 57.09 66.93 57.09 109.74 119.29 114.99 126.92 151.89 180.52 170.3 180.52 125.22 115.02 119.97 107.39"/>
        <path d="M118.54.27C53.07.27,0,53.34,0,118.8s53.07,118.54,118.54,118.54,118.54-53.07,118.54-118.54c0-65.47-53.07-118.54-118.54-118.54ZM147.03,189.75l-2.75-4-35.51-51.59-47.78,55.59h-11.78l54.31-63.22L59.32,62.32l-9.96-14.48h40.84l2.75,4,33.24,48.29,34.89-40.61,10.09-11.68h11.78l-51.51,59.93,46.47,67.5,9.96,14.48h-40.84Z"/>
      </g>
    </g>
  </g>
</svg>