<?xml version="1.0" encoding="UTF-8"?>
<svg id="Layer_2" data-name="Layer 2" xmlns="http://www.w3.org/2000/svg" viewBox="0 0 237.09 237.24">
  <defs>
    <style>
      .cls-1 {
        fill: #fff;
      }

      .cls-2 {
        fill: #ff0e17;
      }
    </style>
  </defs>
  <g id="Layer_1-2" data-name="Layer 1">
    <g>
      <circle class="cls-1" cx="118.54" cy="118.7" r="118.54"/>
      <g>
        <path class="cls-2" d="M118.55,0C53.09,0,.02,53.07.02,118.54s53.07,118.54,118.54,118.54,118.54-53.07,118.54-118.54S184.02,0,118.55,0ZM196.88,138.99c0,18.99-15.39,34.38-34.38,34.38h-87.9c-18.98,0-34.38-15.39-34.38-34.38v-40.91c0-18.99,15.39-34.38,34.38-34.38h87.9c18.98,0,34.38,15.39,34.38,34.38v40.91Z"/>
        <path class="cls-2" d="M141.79,117l-39.49-19.92c-1.52-.77-3.32.34-3.32,2.04v39.84c0,1.71,1.8,2.81,3.32,2.04l39.49-19.92c1.68-.85,1.68-3.24,0-4.09Z"/>
      </g>
    </g>
  </g>
</svg>