<svg xmlns="http://www.w3.org/2000/svg" version="1.1" xmlns:xlink="http://www.w3.org/1999/xlink" width="512" height="512" x="0" y="0" viewBox="0 0 100 100" style="enable-background:new 0 0 512 512" xml:space="preserve" class=""><g><linearGradient id="a" x1="7.766" x2="99.783" y1="-11.984" y2="88.856" gradientUnits="userSpaceOnUse"><stop stop-opacity="1" stop-color="#fbfdff" offset="0"></stop><stop stop-opacity="1" stop-color="#3a82f6" offset="1"></stop></linearGradient><path fill="url(#a)" d="M65.102 74.404c13.448-5.653 21.837-19.972 20.556-34.31 10.598-3.216 15.256-16.43 9.066-25.61-5.915-9.359-19.89-10.41-27.094-1.998-12.616-6.942-29.1-5.013-39.688 5.029-5.47-3.117-12.291-2.977-17.732.576-13.286 8.69-8.452 29.386 7.252 31.277 1.57 8.742 6.886 16.876 14.258 21.835-4.59 15.148 12.429 27.873 25.716 19.21 5.448-3.558 8.322-9.762 7.666-16.009zm-1.818-6.156c-5.447-10.972-21.186-12.468-28.626-2.77-5.417-3.953-9.337-9.956-10.778-16.505 11.871-2.91 16.83-17.928 8.976-27.324 8.642-7.578 21.467-9.036 31.474-3.664-3.927 10.585 3.7 22.25 14.966 22.919.895 11.321-5.599 22.48-16.012 27.344z" opacity="1" data-original="url(#a)" class=""></path></g></svg>